<?xml version="1.0" encoding="UTF-8" standalone="no"?><svg xmlns="http://www.w3.org/2000/svg" xmlns:xlink="http://www.w3.org/1999/xlink" contentScriptType="application/ecmascript" contentStyleType="text/css" height="647px" preserveAspectRatio="none" style="width:1015px;height:647px;background:#FCF9EA;" version="1.1" viewBox="0 0 1015 647" width="1015px" zoomAndPan="magnify"><defs><filter height="300%" id="fsv500de5nc18" width="300%" x="-1" y="-1"><feGaussianBlur result="blurOut" stdDeviation="2.0"/><feColorMatrix in="blurOut" result="blurOut2" type="matrix" values="0 0 0 0 0 0 0 0 0 0 0 0 0 0 0 0 0 0 .4 0"/><feOffset dx="4.0" dy="4.0" in="blurOut2" result="blurOut3"/><feBlend in="SourceGraphic" in2="blurOut3" mode="normal"/></filter></defs><g><text fill="#888888" font-family="sans-serif" font-size="10" lengthAdjust="spacing" textLength="0" x="502.75" y="10.3809"/><text fill="#888888" font-family="sans-serif" font-size="10" lengthAdjust="spacing" textLength="0" x="502.75" y="22.959"/><text fill="#000000" font-family="sans-serif" font-size="15" font-weight="bold" lengthAdjust="spacing" textLength="126" x="438.25" y="40.7275">Built by WeByte ©</text><text fill="#F8A978" font-family="Arial Black" font-size="30" font-weight="bold" lengthAdjust="spacing" textLength="276" x="363.25" y="77.041">DOMAIN MODEL</text><text fill="#F8A978" font-family="Arial Black" font-size="30" lengthAdjust="spacing" textLength="0" x="506.25" y="119.3457"/><!--MD5=[02e4b9b7573f1156f41e60aa5b4e25a4]
class Company--><rect codeLine="30" fill="#BADFDB" filter="url(#fsv500de5nc18)" height="53.8359" id="Company" rx="10" ry="10" style="stroke:#FFFFFF;stroke-width:1.5;" width="85" x="7" y="163.1328"/><ellipse cx="22" cy="179.1328" fill="#FFC5A1" rx="11" ry="11" style="stroke:#FFFFFF;stroke-width:1.0;"/><path d="M24,175.6328 Q24.2031,175.1328 24.4375,174.8828 Q24.6719,174.6328 24.9375,174.6328 Q25.4063,174.6328 25.7031,174.9141 Q26,175.1953 26,175.8516 L26,177.4141 Q26,178.0703 25.7188,178.3516 Q25.4375,178.6328 25,178.6328 Q24.6094,178.6328 24.3594,178.4609 Q24.1094,178.2891 24,177.8359 Q23.9531,177.5234 23.7813,177.3516 Q23.4688,177.0234 22.9063,176.8359 Q22.3438,176.6328 21.7813,176.6328 Q21.0781,176.6328 20.4844,176.9141 Q19.9063,177.1953 19.4531,177.8203 Q19,178.4453 19,179.3047 L19,180.2266 Q19,181.2578 19.8438,181.9453 Q20.6875,182.6328 22.1875,182.6328 Q23.0781,182.6328 23.7031,182.4297 Q24.0625,182.3203 24.4688,181.9609 Q24.7344,181.7578 24.875,181.6953 Q25.0156,181.6328 25.1875,181.6328 Q25.5156,181.6328 25.75,181.8984 Q26,182.1484 26,182.5078 Q26,182.8516 25.6563,183.2578 Q25.1563,183.8516 24.3594,184.1797 Q23.3125,184.6328 22.0313,184.6328 Q20.5313,184.6328 19.3281,184.0391 Q18.3594,183.5703 17.6719,182.5547 Q17,181.5391 17,180.3359 L17,179.2422 Q17,177.9922 17.5938,176.8984 Q18.2031,175.8047 19.25,175.2266 Q20.3125,174.6328 21.5,174.6328 Q22.2188,174.6328 22.8438,174.8828 Q23.4688,175.1328 24,175.6328 Z " fill="#000000"/><text fill="#000000" font-family="sans-serif" font-size="12" lengthAdjust="spacing" textLength="53" x="36" y="184.043">Company</text><line style="stroke:#FFFFFF;stroke-width:1.5;" x1="8" x2="91" y1="195.1328" y2="195.1328"/><text fill="#000000" font-family="sans-serif" font-size="11" lengthAdjust="spacing" textLength="59" x="13" y="210.5518">-designation</text><!--MD5=[3fd616f346a44cd59a91eb10b19e157c]
class User--><rect codeLine="34" fill="#BADFDB" filter="url(#fsv500de5nc18)" height="81.5078" id="User" rx="10" ry="10" style="stroke:#FFFFFF;stroke-width:1.5;" width="66" x="394.5" y="551.6328"/><ellipse cx="412.65" cy="567.6328" fill="#FFC5A1" rx="11" ry="11" style="stroke:#FFFFFF;stroke-width:1.0;"/><path d="M414.65,564.1328 Q414.8531,563.6328 415.0875,563.3828 Q415.3219,563.1328 415.5875,563.1328 Q416.0563,563.1328 416.3531,563.4141 Q416.65,563.6953 416.65,564.3516 L416.65,565.9141 Q416.65,566.5703 416.3688,566.8516 Q416.0875,567.1328 415.65,567.1328 Q415.2594,567.1328 415.0094,566.9609 Q414.7594,566.7891 414.65,566.3359 Q414.6031,566.0234 414.4313,565.8516 Q414.1188,565.5234 413.5563,565.3359 Q412.9938,565.1328 412.4313,565.1328 Q411.7281,565.1328 411.1344,565.4141 Q410.5563,565.6953 410.1031,566.3203 Q409.65,566.9453 409.65,567.8047 L409.65,568.7266 Q409.65,569.7578 410.4938,570.4453 Q411.3375,571.1328 412.8375,571.1328 Q413.7281,571.1328 414.3531,570.9297 Q414.7125,570.8203 415.1188,570.4609 Q415.3844,570.2578 415.525,570.1953 Q415.6656,570.1328 415.8375,570.1328 Q416.1656,570.1328 416.4,570.3984 Q416.65,570.6484 416.65,571.0078 Q416.65,571.3516 416.3063,571.7578 Q415.8063,572.3516 415.0094,572.6797 Q413.9625,573.1328 412.6813,573.1328 Q411.1813,573.1328 409.9781,572.5391 Q409.0094,572.0703 408.3219,571.0547 Q407.65,570.0391 407.65,568.8359 L407.65,567.7422 Q407.65,566.4922 408.2438,565.3984 Q408.8531,564.3047 409.9,563.7266 Q410.9625,563.1328 412.15,563.1328 Q412.8688,563.1328 413.4938,563.3828 Q414.1188,563.6328 414.65,564.1328 Z " fill="#000000"/><text fill="#000000" font-family="sans-serif" font-size="12" lengthAdjust="spacing" textLength="27" x="427.35" y="572.543">User</text><line style="stroke:#FFFFFF;stroke-width:1.5;" x1="395.5" x2="459.5" y1="583.6328" y2="583.6328"/><text fill="#000000" font-family="sans-serif" font-size="11" lengthAdjust="spacing" textLength="30" x="400.5" y="599.0518">-name</text><text fill="#000000" font-family="sans-serif" font-size="11" lengthAdjust="spacing" textLength="28" x="400.5" y="612.8877">-email</text><text fill="#000000" font-family="sans-serif" font-size="11" lengthAdjust="spacing" textLength="54" x="400.5" y="626.7236">-password</text><!--MD5=[03960189e81aa2c066c762ffabbee709]
class Receptionist--><rect codeLine="39" fill="#BADFDB" filter="url(#fsv500de5nc18)" height="40" id="Receptionist" rx="10" ry="10" style="stroke:#FFFFFF;stroke-width:1.5;" width="101" x="127" y="170.1328"/><ellipse cx="142" cy="186.1328" fill="#FFC5A1" rx="11" ry="11" style="stroke:#FFFFFF;stroke-width:1.0;"/><path d="M144,182.6328 Q144.2031,182.1328 144.4375,181.8828 Q144.6719,181.6328 144.9375,181.6328 Q145.4063,181.6328 145.7031,181.9141 Q146,182.1953 146,182.8516 L146,184.4141 Q146,185.0703 145.7188,185.3516 Q145.4375,185.6328 145,185.6328 Q144.6094,185.6328 144.3594,185.4609 Q144.1094,185.2891 144,184.8359 Q143.9531,184.5234 143.7813,184.3516 Q143.4688,184.0234 142.9063,183.8359 Q142.3438,183.6328 141.7813,183.6328 Q141.0781,183.6328 140.4844,183.9141 Q139.9063,184.1953 139.4531,184.8203 Q139,185.4453 139,186.3047 L139,187.2266 Q139,188.2578 139.8438,188.9453 Q140.6875,189.6328 142.1875,189.6328 Q143.0781,189.6328 143.7031,189.4297 Q144.0625,189.3203 144.4688,188.9609 Q144.7344,188.7578 144.875,188.6953 Q145.0156,188.6328 145.1875,188.6328 Q145.5156,188.6328 145.75,188.8984 Q146,189.1484 146,189.5078 Q146,189.8516 145.6563,190.2578 Q145.1563,190.8516 144.3594,191.1797 Q143.3125,191.6328 142.0313,191.6328 Q140.5313,191.6328 139.3281,191.0391 Q138.3594,190.5703 137.6719,189.5547 Q137,188.5391 137,187.3359 L137,186.2422 Q137,184.9922 137.5938,183.8984 Q138.2031,182.8047 139.25,182.2266 Q140.3125,181.6328 141.5,181.6328 Q142.2188,181.6328 142.8438,181.8828 Q143.4688,182.1328 144,182.6328 Z " fill="#000000"/><text fill="#000000" font-family="sans-serif" font-size="12" lengthAdjust="spacing" textLength="69" x="156" y="191.043">Receptionist</text><line style="stroke:#FFFFFF;stroke-width:1.5;" x1="128" x2="227" y1="202.1328" y2="202.1328"/><!--MD5=[01931d41e78f8996acd44f6f0fd8de28]
class MedicalLabTechnician--><rect codeLine="42" fill="#BADFDB" filter="url(#fsv500de5nc18)" height="40" id="MedicalLabTechnician" rx="10" ry="10" style="stroke:#FFFFFF;stroke-width:1.5;" width="155" x="263" y="170.1328"/><ellipse cx="278" cy="186.1328" fill="#FFC5A1" rx="11" ry="11" style="stroke:#FFFFFF;stroke-width:1.0;"/><path d="M280,182.6328 Q280.2031,182.1328 280.4375,181.8828 Q280.6719,181.6328 280.9375,181.6328 Q281.4063,181.6328 281.7031,181.9141 Q282,182.1953 282,182.8516 L282,184.4141 Q282,185.0703 281.7188,185.3516 Q281.4375,185.6328 281,185.6328 Q280.6094,185.6328 280.3594,185.4609 Q280.1094,185.2891 280,184.8359 Q279.9531,184.5234 279.7813,184.3516 Q279.4688,184.0234 278.9063,183.8359 Q278.3438,183.6328 277.7813,183.6328 Q277.0781,183.6328 276.4844,183.9141 Q275.9063,184.1953 275.4531,184.8203 Q275,185.4453 275,186.3047 L275,187.2266 Q275,188.2578 275.8438,188.9453 Q276.6875,189.6328 278.1875,189.6328 Q279.0781,189.6328 279.7031,189.4297 Q280.0625,189.3203 280.4688,188.9609 Q280.7344,188.7578 280.875,188.6953 Q281.0156,188.6328 281.1875,188.6328 Q281.5156,188.6328 281.75,188.8984 Q282,189.1484 282,189.5078 Q282,189.8516 281.6563,190.2578 Q281.1563,190.8516 280.3594,191.1797 Q279.3125,191.6328 278.0313,191.6328 Q276.5313,191.6328 275.3281,191.0391 Q274.3594,190.5703 273.6719,189.5547 Q273,188.5391 273,187.3359 L273,186.2422 Q273,184.9922 273.5938,183.8984 Q274.2031,182.8047 275.25,182.2266 Q276.3125,181.6328 277.5,181.6328 Q278.2188,181.6328 278.8438,181.8828 Q279.4688,182.1328 280,182.6328 Z " fill="#000000"/><text fill="#000000" font-family="sans-serif" font-size="12" lengthAdjust="spacing" textLength="123" x="292" y="191.043">MedicalLabTechnician</text><line style="stroke:#FFFFFF;stroke-width:1.5;" x1="264" x2="417" y1="202.1328" y2="202.1328"/><!--MD5=[7d96fd15f3014691d2fcaf89c5791e2a]
class SpecialistDoctor--><rect codeLine="45" fill="#BADFDB" filter="url(#fsv500de5nc18)" height="53.8359" id="SpecialistDoctor" rx="10" ry="10" style="stroke:#FFFFFF;stroke-width:1.5;" width="122" x="453.5" y="163.1328"/><ellipse cx="468.5" cy="179.1328" fill="#FFC5A1" rx="11" ry="11" style="stroke:#FFFFFF;stroke-width:1.0;"/><path d="M470.5,175.6328 Q470.7031,175.1328 470.9375,174.8828 Q471.1719,174.6328 471.4375,174.6328 Q471.9063,174.6328 472.2031,174.9141 Q472.5,175.1953 472.5,175.8516 L472.5,177.4141 Q472.5,178.0703 472.2188,178.3516 Q471.9375,178.6328 471.5,178.6328 Q471.1094,178.6328 470.8594,178.4609 Q470.6094,178.2891 470.5,177.8359 Q470.4531,177.5234 470.2813,177.3516 Q469.9688,177.0234 469.4063,176.8359 Q468.8438,176.6328 468.2813,176.6328 Q467.5781,176.6328 466.9844,176.9141 Q466.4063,177.1953 465.9531,177.8203 Q465.5,178.4453 465.5,179.3047 L465.5,180.2266 Q465.5,181.2578 466.3438,181.9453 Q467.1875,182.6328 468.6875,182.6328 Q469.5781,182.6328 470.2031,182.4297 Q470.5625,182.3203 470.9688,181.9609 Q471.2344,181.7578 471.375,181.6953 Q471.5156,181.6328 471.6875,181.6328 Q472.0156,181.6328 472.25,181.8984 Q472.5,182.1484 472.5,182.5078 Q472.5,182.8516 472.1563,183.2578 Q471.6563,183.8516 470.8594,184.1797 Q469.8125,184.6328 468.5313,184.6328 Q467.0313,184.6328 465.8281,184.0391 Q464.8594,183.5703 464.1719,182.5547 Q463.5,181.5391 463.5,180.3359 L463.5,179.2422 Q463.5,177.9922 464.0938,176.8984 Q464.7031,175.8047 465.75,175.2266 Q466.8125,174.6328 468,174.6328 Q468.7188,174.6328 469.3438,174.8828 Q469.9688,175.1328 470.5,175.6328 Z " fill="#000000"/><text fill="#000000" font-family="sans-serif" font-size="12" lengthAdjust="spacing" textLength="90" x="482.5" y="184.043">SpecialistDoctor</text><line style="stroke:#FFFFFF;stroke-width:1.5;" x1="454.5" x2="574.5" y1="195.1328" y2="195.1328"/><text fill="#000000" font-family="sans-serif" font-size="11" lengthAdjust="spacing" textLength="98" x="459.5" y="210.5518">-doctorIndexNumber</text><!--MD5=[052425de1c0eb6cc1c1b48342b0bb88f]
class LaboratoryCoordinator--><rect codeLine="49" fill="#BADFDB" filter="url(#fsv500de5nc18)" height="40" id="LaboratoryCoordinator" rx="10" ry="10" style="stroke:#FFFFFF;stroke-width:1.5;" width="155" x="611" y="170.1328"/><ellipse cx="626" cy="186.1328" fill="#FFC5A1" rx="11" ry="11" style="stroke:#FFFFFF;stroke-width:1.0;"/><path d="M628,182.6328 Q628.2031,182.1328 628.4375,181.8828 Q628.6719,181.6328 628.9375,181.6328 Q629.4063,181.6328 629.7031,181.9141 Q630,182.1953 630,182.8516 L630,184.4141 Q630,185.0703 629.7188,185.3516 Q629.4375,185.6328 629,185.6328 Q628.6094,185.6328 628.3594,185.4609 Q628.1094,185.2891 628,184.8359 Q627.9531,184.5234 627.7813,184.3516 Q627.4688,184.0234 626.9063,183.8359 Q626.3438,183.6328 625.7813,183.6328 Q625.0781,183.6328 624.4844,183.9141 Q623.9063,184.1953 623.4531,184.8203 Q623,185.4453 623,186.3047 L623,187.2266 Q623,188.2578 623.8438,188.9453 Q624.6875,189.6328 626.1875,189.6328 Q627.0781,189.6328 627.7031,189.4297 Q628.0625,189.3203 628.4688,188.9609 Q628.7344,188.7578 628.875,188.6953 Q629.0156,188.6328 629.1875,188.6328 Q629.5156,188.6328 629.75,188.8984 Q630,189.1484 630,189.5078 Q630,189.8516 629.6563,190.2578 Q629.1563,190.8516 628.3594,191.1797 Q627.3125,191.6328 626.0313,191.6328 Q624.5313,191.6328 623.3281,191.0391 Q622.3594,190.5703 621.6719,189.5547 Q621,188.5391 621,187.3359 L621,186.2422 Q621,184.9922 621.5938,183.8984 Q622.2031,182.8047 623.25,182.2266 Q624.3125,181.6328 625.5,181.6328 Q626.2188,181.6328 626.8438,181.8828 Q627.4688,182.1328 628,182.6328 Z " fill="#000000"/><text fill="#000000" font-family="sans-serif" font-size="12" lengthAdjust="spacing" textLength="123" x="640" y="191.043">LaboratoryCoordinator</text><line style="stroke:#FFFFFF;stroke-width:1.5;" x1="612" x2="765" y1="202.1328" y2="202.1328"/><!--MD5=[012ee2a8bf3ae2b319009b06f951c2e5]
class ClinicalChemistryTechnologist--><rect codeLine="52" fill="#BADFDB" filter="url(#fsv500de5nc18)" height="109.1797" id="ClinicalChemistryTechnologist" rx="10" ry="10" style="stroke:#FFFFFF;stroke-width:1.5;" width="200" x="801.5" y="135.6328"/><ellipse cx="816.5" cy="151.6328" fill="#FFC5A1" rx="11" ry="11" style="stroke:#FFFFFF;stroke-width:1.0;"/><path d="M818.5,148.1328 Q818.7031,147.6328 818.9375,147.3828 Q819.1719,147.1328 819.4375,147.1328 Q819.9063,147.1328 820.2031,147.4141 Q820.5,147.6953 820.5,148.3516 L820.5,149.9141 Q820.5,150.5703 820.2188,150.8516 Q819.9375,151.1328 819.5,151.1328 Q819.1094,151.1328 818.8594,150.9609 Q818.6094,150.7891 818.5,150.3359 Q818.4531,150.0234 818.2813,149.8516 Q817.9688,149.5234 817.4063,149.3359 Q816.8438,149.1328 816.2813,149.1328 Q815.5781,149.1328 814.9844,149.4141 Q814.4063,149.6953 813.9531,150.3203 Q813.5,150.9453 813.5,151.8047 L813.5,152.7266 Q813.5,153.7578 814.3438,154.4453 Q815.1875,155.1328 816.6875,155.1328 Q817.5781,155.1328 818.2031,154.9297 Q818.5625,154.8203 818.9688,154.4609 Q819.2344,154.2578 819.375,154.1953 Q819.5156,154.1328 819.6875,154.1328 Q820.0156,154.1328 820.25,154.3984 Q820.5,154.6484 820.5,155.0078 Q820.5,155.3516 820.1563,155.7578 Q819.6563,156.3516 818.8594,156.6797 Q817.8125,157.1328 816.5313,157.1328 Q815.0313,157.1328 813.8281,156.5391 Q812.8594,156.0703 812.1719,155.0547 Q811.5,154.0391 811.5,152.8359 L811.5,151.7422 Q811.5,150.4922 812.0938,149.3984 Q812.7031,148.3047 813.75,147.7266 Q814.8125,147.1328 816,147.1328 Q816.7188,147.1328 817.3438,147.3828 Q817.9688,147.6328 818.5,148.1328 Z " fill="#000000"/><text fill="#000000" font-family="sans-serif" font-size="12" lengthAdjust="spacing" textLength="168" x="830.5" y="156.543">ClinicalChemistryTechnologist</text><line style="stroke:#FFFFFF;stroke-width:1.5;" x1="802.5" x2="1000.5" y1="167.6328" y2="167.6328"/><text fill="#000000" font-family="sans-serif" font-size="11" lengthAdjust="spacing" textLength="64" x="807.5" y="183.0518">-laboratoryId;</text><text fill="#000000" font-family="sans-serif" font-size="11" lengthAdjust="spacing" textLength="33" x="807.5" y="196.8877">-name;</text><text fill="#000000" font-family="sans-serif" font-size="11" lengthAdjust="spacing" textLength="47" x="807.5" y="210.7236">-address;</text><text fill="#000000" font-family="sans-serif" font-size="11" lengthAdjust="spacing" textLength="74" x="807.5" y="224.5596">-phoneNumber;</text><text fill="#000000" font-family="sans-serif" font-size="11" lengthAdjust="spacing" textLength="51" x="807.5" y="238.3955">-tinnumber</text><!--MD5=[7421f545a0d8420c5bec41e74b387d9c]
class Employee--><rect codeLine="60" fill="#BADFDB" filter="url(#fsv500de5nc18)" height="150.6875" id="Employee" rx="10" ry="10" style="stroke:#FFFFFF;stroke-width:1.5;" width="96" x="379.5" y="322.6328"/><ellipse cx="398.55" cy="338.6328" fill="#FFC5A1" rx="11" ry="11" style="stroke:#FFFFFF;stroke-width:1.0;"/><path d="M400.55,335.1328 Q400.7531,334.6328 400.9875,334.3828 Q401.2219,334.1328 401.4875,334.1328 Q401.9563,334.1328 402.2531,334.4141 Q402.55,334.6953 402.55,335.3516 L402.55,336.9141 Q402.55,337.5703 402.2688,337.8516 Q401.9875,338.1328 401.55,338.1328 Q401.1594,338.1328 400.9094,337.9609 Q400.6594,337.7891 400.55,337.3359 Q400.5031,337.0234 400.3313,336.8516 Q400.0188,336.5234 399.4563,336.3359 Q398.8938,336.1328 398.3313,336.1328 Q397.6281,336.1328 397.0344,336.4141 Q396.4563,336.6953 396.0031,337.3203 Q395.55,337.9453 395.55,338.8047 L395.55,339.7266 Q395.55,340.7578 396.3938,341.4453 Q397.2375,342.1328 398.7375,342.1328 Q399.6281,342.1328 400.2531,341.9297 Q400.6125,341.8203 401.0188,341.4609 Q401.2844,341.2578 401.425,341.1953 Q401.5656,341.1328 401.7375,341.1328 Q402.0656,341.1328 402.3,341.3984 Q402.55,341.6484 402.55,342.0078 Q402.55,342.3516 402.2063,342.7578 Q401.7063,343.3516 400.9094,343.6797 Q399.8625,344.1328 398.5813,344.1328 Q397.0813,344.1328 395.8781,343.5391 Q394.9094,343.0703 394.2219,342.0547 Q393.55,341.0391 393.55,339.8359 L393.55,338.7422 Q393.55,337.4922 394.1438,336.3984 Q394.7531,335.3047 395.8,334.7266 Q396.8625,334.1328 398.05,334.1328 Q398.7688,334.1328 399.3938,334.3828 Q400.0188,334.6328 400.55,335.1328 Z " fill="#000000"/><text fill="#000000" font-family="sans-serif" font-size="12" lengthAdjust="spacing" textLength="55" x="413.45" y="343.543">Employee</text><line style="stroke:#FFFFFF;stroke-width:1.5;" x1="380.5" x2="474.5" y1="354.6328" y2="354.6328"/><text fill="#000000" font-family="sans-serif" font-size="11" lengthAdjust="spacing" textLength="52" x="385.5" y="370.0518">-username</text><text fill="#000000" font-family="sans-serif" font-size="11" lengthAdjust="spacing" textLength="58" x="385.5" y="383.8877">-employeeId</text><text fill="#000000" font-family="sans-serif" font-size="11" lengthAdjust="spacing" textLength="84" x="385.5" y="397.7236">-organizationRole</text><text fill="#000000" font-family="sans-serif" font-size="11" lengthAdjust="spacing" textLength="30" x="385.5" y="411.5596">-name</text><text fill="#000000" font-family="sans-serif" font-size="11" lengthAdjust="spacing" textLength="44" x="385.5" y="425.3955">-address</text><text fill="#000000" font-family="sans-serif" font-size="11" lengthAdjust="spacing" textLength="71" x="385.5" y="439.2314">-phoneNumber</text><text fill="#000000" font-family="sans-serif" font-size="11" lengthAdjust="spacing" textLength="32" x="385.5" y="453.0674">-e-Mail</text><text fill="#000000" font-family="sans-serif" font-size="11" lengthAdjust="spacing" textLength="47" x="385.5" y="466.9033">-socCode</text><!--MD5=[09366576ee87d48d594df10cacc83f45]
link Company to Employee--><path codeLine="71" d="M75.71,217.2728 C85.78,226.5528 97.7,236.6628 109.5,244.6328 C198.56,304.7628 314.96,354.1228 379.36,379.2128 " fill="none" id="Company-Employee" style="stroke:#FFC5A1;stroke-width:1.0;"/><polygon fill="#000000" points="193.9118,286.1615,187.3138,279.3119,184.5478,284.4983,193.9118,286.1615" style="stroke:#000000;stroke-width:1.0;"/><text fill="#000000" font-family="sans-serif" font-size="13" lengthAdjust="spacing" textLength="42" x="198.5" y="289.1279">employ</text><text fill="#000000" font-family="sans-serif" font-size="13" lengthAdjust="spacing" textLength="7" x="73.6778" y="238.5112">1</text><text fill="#000000" font-family="sans-serif" font-size="13" lengthAdjust="spacing" textLength="5" x="366.6058" y="372.6366">*</text><!--MD5=[22fb9506fac029fc1d2ae00f0eb8d606]
link Employee to User--><path codeLine="72" d="M427.5,473.8328 C427.5,500.2528 427.5,528.9628 427.5,551.4228 " fill="none" id="Employee-User" style="stroke:#FFC5A1;stroke-width:1.0;"/><polygon fill="#000000" points="432.5,517.8086,435.4389,508.7635,429.5611,508.7635,432.5,517.8086" style="stroke:#000000;stroke-width:1.0;"/><text fill="#000000" font-family="sans-serif" font-size="13" lengthAdjust="spacing" textLength="54" x="441.5" y="518.1279">relates to</text><text fill="#000000" font-family="sans-serif" font-size="13" lengthAdjust="spacing" textLength="22" x="404.5203" y="494.812">0..1</text><text fill="#000000" font-family="sans-serif" font-size="13" lengthAdjust="spacing" textLength="5" x="422.0859" y="540.8374">*</text><!--MD5=[2d3d1e6d66ae86ad5e3a19e2e565ce0b]
link MedicalLabTechnician to Employee--><path codeLine="73" d="M348.53,210.1428 C359.26,235.5428 378.89,282.0228 395.89,322.2928 " fill="none" id="MedicalLabTechnician-Employee" style="stroke:#FFC5A1;stroke-width:1.0;"/><polygon fill="#000000" points="387.4451,288.4147,386.6338,278.9388,381.2189,281.2255,387.4451,288.4147" style="stroke:#000000;stroke-width:1.0;"/><text fill="#000000" font-family="sans-serif" font-size="13" lengthAdjust="spacing" textLength="63" x="394.5" y="289.1279">is rolled as</text><text fill="#000000" font-family="sans-serif" font-size="13" lengthAdjust="spacing" textLength="7" x="342.8041" y="231.5652">1</text><text fill="#000000" font-family="sans-serif" font-size="13" lengthAdjust="spacing" textLength="7" x="385.5436" y="311.8286">1</text><!--MD5=[bc1c1d8da623d615fbfb1cbca2838790]
link LaboratoryCoordinator to Employee--><path codeLine="74" d="M665.38,210.4528 C640.62,231.0528 600.08,264.5128 564.5,292.6328 C535.28,315.7228 502.08,341.0728 475.68,361.0228 " fill="none" id="LaboratoryCoordinator-Employee" style="stroke:#FFC5A1;stroke-width:1.0;"/><polygon fill="#000000" points="585.5837,286.9171,594.4955,283.5957,590.8412,278.9918,585.5837,286.9171" style="stroke:#000000;stroke-width:1.0;"/><text fill="#000000" font-family="sans-serif" font-size="13" lengthAdjust="spacing" textLength="63" x="598.5" y="289.1279">is rolled as</text><text fill="#000000" font-family="sans-serif" font-size="13" lengthAdjust="spacing" textLength="7" x="651.2259" y="231.6062">1</text><text fill="#000000" font-family="sans-serif" font-size="13" lengthAdjust="spacing" textLength="7" x="483.5935" y="351.6613">1</text><!--MD5=[87a5f0022a2a3a92268bc4ee95033c51]
link ClinicalChemistryTechnologist to Employee--><path codeLine="75" d="M801.46,236.6628 C795.39,239.3728 789.37,242.0428 783.5,244.6328 C673.83,292.9728 544.29,347.9328 475.72,376.8528 " fill="none" id="ClinicalChemistryTechnologist-Employee" style="stroke:#FFC5A1;stroke-width:1.0;"/><polygon fill="#000000" points="705.9073,285.7852,715.3774,284.909,713.0538,279.51,705.9073,285.7852" style="stroke:#000000;stroke-width:1.0;"/><text fill="#000000" font-family="sans-serif" font-size="13" lengthAdjust="spacing" textLength="63" x="719.5" y="289.1279">is rolled as</text><text fill="#000000" font-family="sans-serif" font-size="13" lengthAdjust="spacing" textLength="7" x="786.5327" y="237.1145">1</text><text fill="#000000" font-family="sans-serif" font-size="13" lengthAdjust="spacing" textLength="7" x="483.6396" y="369.9153">1</text><!--MD5=[e66f8c4fa516e197a55cf1b13c3927b3]
link SpecialistDoctor to Employee--><path codeLine="76" d="M503.48,217.2228 C492.32,243.6428 474.55,285.7328 458.99,322.5728 " fill="none" id="SpecialistDoctor-Employee" style="stroke:#FFC5A1;stroke-width:1.0;"/><polygon fill="#000000" points="481.5548,288.4147,487.7811,281.2255,482.3663,278.9388,481.5548,288.4147" style="stroke:#000000;stroke-width:1.0;"/><text fill="#000000" font-family="sans-serif" font-size="13" lengthAdjust="spacing" textLength="63" x="492.5" y="289.1279">is rolled as</text><text fill="#000000" font-family="sans-serif" font-size="13" lengthAdjust="spacing" textLength="7" x="493.3038" y="238.4503">1</text><text fill="#000000" font-family="sans-serif" font-size="13" lengthAdjust="spacing" textLength="7" x="454.7453" y="311.8752">1</text><!--MD5=[06bb7d2a85a007b79d10922b2d5e4cdd]
link Receptionist to Employee--><path codeLine="77" d="M197.66,210.3928 C219.72,231.2328 256.37,265.1628 289.5,292.6328 C318.65,316.8028 352.54,342.4928 379.43,362.3528 " fill="none" id="Receptionist-Employee" style="stroke:#FFC5A1;stroke-width:1.0;"/><polygon fill="#000000" points="298.3361,287.0156,293.2816,278.9593,289.5116,283.4689,298.3361,287.0156" style="stroke:#000000;stroke-width:1.0;"/><text fill="#000000" font-family="sans-serif" font-size="13" lengthAdjust="spacing" textLength="63" x="303.5" y="289.1279">is rolled as</text><text fill="#000000" font-family="sans-serif" font-size="13" lengthAdjust="spacing" textLength="7" x="195.1374" y="231.53">1</text><text fill="#000000" font-family="sans-serif" font-size="13" lengthAdjust="spacing" textLength="7" x="364.5333" y="353.195">1</text><!--MD5=[b2c98cf0067843324a01dfdee7a44602]
@startuml
hide methods
' ======= layout =========
skinparam backgroundColor #fcf9ea
skinparam titleBorderRoundCorner 15
skinparam titleFontSize 30
skinparam classAttributeIconSize 0
skinparam titleFontName Arial Black
skinparam titleFontColor #f8a978
skinparam roundcorner 20
skinparam stereotypeCBackgroundColor ffc5a1
skinparam class {

ArrowColor ffc5a1
BorderColor White
BackgroundColor badfdb
}


' ======= title =========
center header


<font color=Black size=15><b>Built by WeByte ©</font>
endheader
title <b>DOMAIN MODEL\n


class Company{
 - designation
}

class User{
-name
-email
-password
}
class Receptionist{
    }

    class MedicalLabTechnician{
    }

    class SpecialistDoctor{
    - doctorIndexNumber
    }

    class LaboratoryCoordinator{
    }

    class ClinicalChemistryTechnologist{
    - laboratoryId;
    - name;
    - address;
    - phoneNumber;
    - tinnumber
    }

    class Employee{
    - username
    - employeeId
    - organizationRole
    - name
    - address
    - phoneNumber
    - e-Mail
    - socCode
    }

Company "1" - - "*" Employee : employ >
Employee "0..1" - - "*" User : relates to >
MedicalLabTechnician "1" - - "1" Employee : is rolled as >
LaboratoryCoordinator "1" - - "1" Employee : is rolled as >
ClinicalChemistryTechnologist "1" - - "1" Employee : is rolled as >
SpecialistDoctor "1" - - "1" Employee : is rolled as >
Receptionist "1" - - "1" Employee : is rolled as >


@enduml

@startuml
hide methods
skinparam backgroundColor #fcf9ea
skinparam titleBorderRoundCorner 15
skinparam titleFontSize 30
skinparam classAttributeIconSize 0
skinparam titleFontName Arial Black
skinparam titleFontColor #f8a978
skinparam roundcorner 20
skinparam stereotypeCBackgroundColor ffc5a1
skinparam class {

ArrowColor ffc5a1
BorderColor White
BackgroundColor badfdb
}


center header


<font color=Black size=15><b>Built by WeByte ©</font>
endheader
title <b>DOMAIN MODEL\n


class Company{
 - designation
}

class User{
-name
-email
-password
}
class Receptionist{
    }

    class MedicalLabTechnician{
    }

    class SpecialistDoctor{
    - doctorIndexNumber
    }

    class LaboratoryCoordinator{
    }

    class ClinicalChemistryTechnologist{
    - laboratoryId;
    - name;
    - address;
    - phoneNumber;
    - tinnumber
    }

    class Employee{
    - username
    - employeeId
    - organizationRole
    - name
    - address
    - phoneNumber
    - e-Mail
    - socCode
    }

Company "1" - - "*" Employee : employ >
Employee "0..1" - - "*" User : relates to >
MedicalLabTechnician "1" - - "1" Employee : is rolled as >
LaboratoryCoordinator "1" - - "1" Employee : is rolled as >
ClinicalChemistryTechnologist "1" - - "1" Employee : is rolled as >
SpecialistDoctor "1" - - "1" Employee : is rolled as >
Receptionist "1" - - "1" Employee : is rolled as >


@enduml

PlantUML version 1.2021.4(Sun Apr 04 09:49:39 BST 2021)
(GPL source distribution)
Java Runtime: OpenJDK Runtime Environment
JVM: OpenJDK 64-Bit Server VM
Default Encoding: Cp1252
Language: pt
Country: PT
--></g></svg>