<?xml version="1.0" encoding="UTF-8" standalone="no"?><svg xmlns="http://www.w3.org/2000/svg" xmlns:xlink="http://www.w3.org/1999/xlink" contentScriptType="application/ecmascript" contentStyleType="text/css" height="665px" preserveAspectRatio="none" style="width:583px;height:665px;background:#FCF9EA;" version="1.1" viewBox="0 0 583 665" width="583.75px" zoomAndPan="magnify"><defs><filter height="300%" id="fipgxruno1u1m" width="300%" x="-1" y="-1"><feGaussianBlur result="blurOut" stdDeviation="2.5"/><feColorMatrix in="blurOut" result="blurOut2" type="matrix" values="0 0 0 0 0 0 0 0 0 0 0 0 0 0 0 0 0 0 .4 0"/><feOffset dx="5.0" dy="5.0" in="blurOut2" result="blurOut3"/><feBlend in="SourceGraphic" in2="blurOut3" mode="normal"/></filter></defs><g><text fill="#888888" font-family="sans-serif" font-size="12.5" lengthAdjust="spacing" textLength="0" x="285.9375" y="12.9761"/><text fill="#888888" font-family="sans-serif" font-size="12.5" lengthAdjust="spacing" textLength="0" x="285.9375" y="28.6987"/><text fill="#000000" font-family="sans-serif" font-size="18.75" font-weight="bold" lengthAdjust="spacing" textLength="157.5" x="205.3125" y="50.9094">Built by WeByte ©</text><text fill="#F8A978" font-family="Arial Black" font-size="37.5" font-weight="bold" lengthAdjust="spacing" textLength="432.5" x="67.8125" y="96.3013">US8 - Domain Model</text><text fill="#F8A978" font-family="Arial Black" font-size="37.5" lengthAdjust="spacing" textLength="0" x="290.3125" y="149.1821"/><!--MD5=[02e4b9b7573f1156f41e60aa5b4e25a4]
class Company--><rect codeLine="26" fill="#BADFDB" filter="url(#fipgxruno1u1m)" height="77.2949" id="Company" rx="12.5" ry="12.5" style="stroke:#FFFFFF;stroke-width:1.875;" width="106.25" x="288.75" y="169.541"/><ellipse cx="307.5" cy="189.541" fill="#FFC5A1" rx="13.75" ry="13.75" style="stroke:#FFFFFF;stroke-width:1.25;"/><path d="M310,185.166 Q310.2539,184.541 310.5469,184.2285 Q310.8398,183.916 311.1719,183.916 Q311.7578,183.916 312.1289,184.2676 Q312.5,184.6191 312.5,185.4395 L312.5,187.3926 Q312.5,188.2129 312.1484,188.5645 Q311.7969,188.916 311.25,188.916 Q310.7617,188.916 310.4492,188.7012 Q310.1367,188.4863 310,187.9199 Q309.9414,187.5293 309.7266,187.3145 Q309.3359,186.9043 308.6328,186.6699 Q307.9297,186.416 307.2266,186.416 Q306.3477,186.416 305.6055,186.7676 Q304.8828,187.1191 304.3164,187.9004 Q303.75,188.6816 303.75,189.7559 L303.75,190.9082 Q303.75,192.1973 304.8047,193.0566 Q305.8594,193.916 307.7344,193.916 Q308.8477,193.916 309.6289,193.6621 Q310.0781,193.5254 310.5859,193.0762 Q310.918,192.8223 311.0938,192.7441 Q311.2695,192.666 311.4844,192.666 Q311.8945,192.666 312.1875,192.998 Q312.5,193.3105 312.5,193.7598 Q312.5,194.1895 312.0703,194.6973 Q311.4453,195.4395 310.4492,195.8496 Q309.1406,196.416 307.5391,196.416 Q305.6641,196.416 304.1602,195.6738 Q302.9492,195.0879 302.0898,193.8184 Q301.25,192.5488 301.25,191.0449 L301.25,189.6777 Q301.25,188.1152 301.9922,186.748 Q302.7539,185.3809 304.0625,184.6582 Q305.3906,183.916 306.875,183.916 Q307.7734,183.916 308.5547,184.2285 Q309.3359,184.541 310,185.166 Z " fill="#000000"/><text fill="#000000" font-family="sans-serif" font-size="15" lengthAdjust="spacing" textLength="66.25" x="325" y="195.6787">Company</text><line style="stroke:#FFFFFF;stroke-width:1.875;" x1="290" x2="393.75" y1="209.541" y2="209.541"/><text fill="#000000" font-family="sans-serif" font-size="13.75" lengthAdjust="spacing" textLength="73.75" x="296.25" y="228.8147">-designation</text><line style="stroke:#FFFFFF;stroke-width:1.875;" x1="290" x2="393.75" y1="236.8359" y2="236.8359"/><!--MD5=[1934a092c0e7d4da7dc7075b6f4b6b03]
class ClinicalAnalysisLaboratory--><rect codeLine="30" fill="#BADFDB" filter="url(#fipgxruno1u1m)" height="77.2949" id="ClinicalAnalysisLaboratory" rx="12.5" ry="12.5" style="stroke:#FFFFFF;stroke-width:1.875;" width="221.25" x="231.25" y="344.541"/><ellipse cx="250" cy="364.541" fill="#FFC5A1" rx="13.75" ry="13.75" style="stroke:#FFFFFF;stroke-width:1.25;"/><path d="M252.5,360.166 Q252.7539,359.541 253.0469,359.2285 Q253.3398,358.916 253.6719,358.916 Q254.2578,358.916 254.6289,359.2676 Q255,359.6191 255,360.4395 L255,362.3926 Q255,363.2129 254.6484,363.5645 Q254.2969,363.916 253.75,363.916 Q253.2617,363.916 252.9492,363.7012 Q252.6367,363.4863 252.5,362.9199 Q252.4414,362.5293 252.2266,362.3145 Q251.8359,361.9043 251.1328,361.6699 Q250.4297,361.416 249.7266,361.416 Q248.8477,361.416 248.1055,361.7676 Q247.3828,362.1191 246.8164,362.9004 Q246.25,363.6816 246.25,364.7559 L246.25,365.9082 Q246.25,367.1973 247.3047,368.0566 Q248.3594,368.916 250.2344,368.916 Q251.3477,368.916 252.1289,368.6621 Q252.5781,368.5254 253.0859,368.0762 Q253.418,367.8223 253.5938,367.7441 Q253.7695,367.666 253.9844,367.666 Q254.3945,367.666 254.6875,367.998 Q255,368.3105 255,368.7598 Q255,369.1895 254.5703,369.6973 Q253.9453,370.4395 252.9492,370.8496 Q251.6406,371.416 250.0391,371.416 Q248.1641,371.416 246.6602,370.6738 Q245.4492,370.0879 244.5898,368.8184 Q243.75,367.5488 243.75,366.0449 L243.75,364.6777 Q243.75,363.1152 244.4922,361.748 Q245.2539,360.3809 246.5625,359.6582 Q247.8906,358.916 249.375,358.916 Q250.2734,358.916 251.0547,359.2285 Q251.8359,359.541 252.5,360.166 Z " fill="#000000"/><text fill="#000000" font-family="sans-serif" font-size="15" lengthAdjust="spacing" textLength="181.25" x="267.5" y="370.6787">ClinicalAnalysisLaboratory</text><line style="stroke:#FFFFFF;stroke-width:1.875;" x1="232.5" x2="451.25" y1="384.541" y2="384.541"/><text fill="#000000" font-family="sans-serif" font-size="13.75" lengthAdjust="spacing" textLength="15" x="238.75" y="403.8147">-id</text><line style="stroke:#FFFFFF;stroke-width:1.875;" x1="232.5" x2="451.25" y1="411.8359" y2="411.8359"/><!--MD5=[0caf3a413731a0de34fc6162fe213ed9]
class Laboratory--><rect codeLine="33" fill="#BADFDB" filter="url(#fipgxruno1u1m)" height="129.1797" id="Laboratory" rx="12.5" ry="12.5" style="stroke:#FFFFFF;stroke-width:1.875;" width="160" x="116.875" y="519.541"/><ellipse cx="157" cy="539.541" fill="#FFC5A1" rx="13.75" ry="13.75" style="stroke:#FFFFFF;stroke-width:1.25;"/><path d="M159.5,535.166 Q159.7539,534.541 160.0469,534.2285 Q160.3398,533.916 160.6719,533.916 Q161.2578,533.916 161.6289,534.2676 Q162,534.6191 162,535.4395 L162,537.3926 Q162,538.2129 161.6484,538.5645 Q161.2969,538.916 160.75,538.916 Q160.2617,538.916 159.9492,538.7012 Q159.6367,538.4863 159.5,537.9199 Q159.4414,537.5293 159.2266,537.3145 Q158.8359,536.9043 158.1328,536.6699 Q157.4297,536.416 156.7266,536.416 Q155.8477,536.416 155.1055,536.7676 Q154.3828,537.1191 153.8164,537.9004 Q153.25,538.6816 153.25,539.7559 L153.25,540.9082 Q153.25,542.1973 154.3047,543.0566 Q155.3594,543.916 157.2344,543.916 Q158.3477,543.916 159.1289,543.6621 Q159.5781,543.5254 160.0859,543.0762 Q160.418,542.8223 160.5938,542.7441 Q160.7695,542.666 160.9844,542.666 Q161.3945,542.666 161.6875,542.998 Q162,543.3105 162,543.7598 Q162,544.1895 161.5703,544.6973 Q160.9453,545.4395 159.9492,545.8496 Q158.6406,546.416 157.0391,546.416 Q155.1641,546.416 153.6602,545.6738 Q152.4492,545.0879 151.5898,543.8184 Q150.75,542.5488 150.75,541.0449 L150.75,539.6777 Q150.75,538.1152 151.4922,536.748 Q152.2539,535.3809 153.5625,534.6582 Q154.8906,533.916 156.375,533.916 Q157.2734,533.916 158.0547,534.2285 Q158.8359,534.541 159.5,535.166 Z " fill="#000000"/><text fill="#000000" font-family="sans-serif" font-size="15" lengthAdjust="spacing" textLength="72.5" x="179.25" y="545.6787">Laboratory</text><line style="stroke:#FFFFFF;stroke-width:1.875;" x1="118.125" x2="275.625" y1="559.541" y2="559.541"/><text fill="#000000" font-family="sans-serif" font-size="13.75" lengthAdjust="spacing" textLength="37.5" x="124.375" y="578.8147">-name</text><text fill="#000000" font-family="sans-serif" font-size="13.75" lengthAdjust="spacing" textLength="55" x="124.375" y="596.1096">-address</text><text fill="#000000" font-family="sans-serif" font-size="13.75" lengthAdjust="spacing" textLength="88.75" x="124.375" y="613.4045">-phoneNumber</text><text fill="#000000" font-family="sans-serif" font-size="13.75" lengthAdjust="spacing" textLength="145" x="124.375" y="630.6995">-texIdentificationNumber</text><line style="stroke:#FFFFFF;stroke-width:1.875;" x1="118.125" x2="275.625" y1="638.7207" y2="638.7207"/><!--MD5=[aeb3272166074d8737a70b61b1e71682]
class TestType--><rect codeLine="39" fill="#BADFDB" filter="url(#fipgxruno1u1m)" height="111.8848" id="TestType" rx="12.5" ry="12.5" style="stroke:#FFFFFF;stroke-width:1.875;" width="117.5" x="378.125" y="527.666"/><ellipse cx="403.625" cy="547.666" fill="#FFC5A1" rx="13.75" ry="13.75" style="stroke:#FFFFFF;stroke-width:1.25;"/><path d="M406.125,543.291 Q406.3789,542.666 406.6719,542.3535 Q406.9648,542.041 407.2969,542.041 Q407.8828,542.041 408.2539,542.3926 Q408.625,542.7441 408.625,543.5645 L408.625,545.5176 Q408.625,546.3379 408.2734,546.6895 Q407.9219,547.041 407.375,547.041 Q406.8867,547.041 406.5742,546.8262 Q406.2617,546.6113 406.125,546.0449 Q406.0664,545.6543 405.8516,545.4395 Q405.4609,545.0293 404.7578,544.7949 Q404.0547,544.541 403.3516,544.541 Q402.4727,544.541 401.7305,544.8926 Q401.0078,545.2441 400.4414,546.0254 Q399.875,546.8066 399.875,547.8809 L399.875,549.0332 Q399.875,550.3223 400.9297,551.1816 Q401.9844,552.041 403.8594,552.041 Q404.9727,552.041 405.7539,551.7871 Q406.2031,551.6504 406.7109,551.2012 Q407.043,550.9473 407.2188,550.8691 Q407.3945,550.791 407.6094,550.791 Q408.0195,550.791 408.3125,551.123 Q408.625,551.4355 408.625,551.8848 Q408.625,552.3145 408.1953,552.8223 Q407.5703,553.5645 406.5742,553.9746 Q405.2656,554.541 403.6641,554.541 Q401.7891,554.541 400.2852,553.7988 Q399.0742,553.2129 398.2148,551.9434 Q397.375,550.6738 397.375,549.1699 L397.375,547.8027 Q397.375,546.2402 398.1172,544.873 Q398.8789,543.5059 400.1875,542.7832 Q401.5156,542.041 403,542.041 Q403.8984,542.041 404.6797,542.3535 Q405.4609,542.666 406.125,543.291 Z " fill="#000000"/><text fill="#000000" font-family="sans-serif" font-size="15" lengthAdjust="spacing" textLength="62.5" x="422.625" y="553.8037">TestType</text><line style="stroke:#FFFFFF;stroke-width:1.875;" x1="379.375" x2="494.375" y1="567.666" y2="567.666"/><text fill="#000000" font-family="sans-serif" font-size="13.75" lengthAdjust="spacing" textLength="35" x="385.625" y="586.9397">-code</text><text fill="#000000" font-family="sans-serif" font-size="13.75" lengthAdjust="spacing" textLength="71.25" x="385.625" y="604.2346">-description</text><text fill="#000000" font-family="sans-serif" font-size="13.75" lengthAdjust="spacing" textLength="102.5" x="385.625" y="621.5295">-colectingMethod</text><line style="stroke:#FFFFFF;stroke-width:1.875;" x1="379.375" x2="494.375" y1="629.5508" y2="629.5508"/><!--MD5=[a64badb107d3691f2dc6af242cdbeb21]
class ChemicalLaboratory--><rect fill="#BADFDB" filter="url(#fipgxruno1u1m)" height="60" id="ChemicalLaboratory" rx="12.5" ry="12.5" style="stroke:#FFFFFF;stroke-width:1.875;" width="178.75" x="8.75" y="353.291"/><ellipse cx="27.5" cy="373.291" fill="#FFC5A1" rx="13.75" ry="13.75" style="stroke:#FFFFFF;stroke-width:1.25;"/><path d="M30,368.916 Q30.2539,368.291 30.5469,367.9785 Q30.8398,367.666 31.1719,367.666 Q31.7578,367.666 32.1289,368.0176 Q32.5,368.3691 32.5,369.1895 L32.5,371.1426 Q32.5,371.9629 32.1484,372.3145 Q31.7969,372.666 31.25,372.666 Q30.7617,372.666 30.4492,372.4512 Q30.1367,372.2363 30,371.6699 Q29.9414,371.2793 29.7266,371.0645 Q29.3359,370.6543 28.6328,370.4199 Q27.9297,370.166 27.2266,370.166 Q26.3477,370.166 25.6055,370.5176 Q24.8828,370.8691 24.3164,371.6504 Q23.75,372.4316 23.75,373.5059 L23.75,374.6582 Q23.75,375.9473 24.8047,376.8066 Q25.8594,377.666 27.7344,377.666 Q28.8477,377.666 29.6289,377.4121 Q30.0781,377.2754 30.5859,376.8262 Q30.918,376.5723 31.0938,376.4941 Q31.2695,376.416 31.4844,376.416 Q31.8945,376.416 32.1875,376.748 Q32.5,377.0605 32.5,377.5098 Q32.5,377.9395 32.0703,378.4473 Q31.4453,379.1895 30.4492,379.5996 Q29.1406,380.166 27.5391,380.166 Q25.6641,380.166 24.1602,379.4238 Q22.9492,378.8379 22.0898,377.5684 Q21.25,376.2988 21.25,374.7949 L21.25,373.4277 Q21.25,371.8652 21.9922,370.498 Q22.7539,369.1309 24.0625,368.4082 Q25.3906,367.666 26.875,367.666 Q27.7734,367.666 28.5547,367.9785 Q29.3359,368.291 30,368.916 Z " fill="#000000"/><text fill="#000000" font-family="sans-serif" font-size="15" lengthAdjust="spacing" textLength="138.75" x="45" y="379.4287">ChemicalLaboratory</text><line style="stroke:#FFFFFF;stroke-width:1.875;" x1="10" x2="186.25" y1="393.291" y2="393.291"/><line style="stroke:#FFFFFF;stroke-width:1.875;" x1="10" x2="186.25" y1="403.291" y2="403.291"/><!--MD5=[aafc5d8a5829a6a8d6dc892cb1ff5d24]
link Company to ClinicalAnalysisLaboratory--><path codeLine="46" d="M341.875,247.391 C341.875,276.1535 341.875,315.5285 341.875,344.2785 " fill="none" id="Company-ClinicalAnalysisLaboratory" style="stroke:#FFC5A1;stroke-width:1.25;"/><polygon fill="#000000" points="348.125,302.2607,351.7987,290.9544,344.4513,290.9544,348.125,302.2607" style="stroke:#000000;stroke-width:1.25;"/><text fill="#000000" font-family="sans-serif" font-size="16.25" lengthAdjust="spacing" textLength="37.5" x="359.375" y="302.6599">owns</text><text fill="#000000" font-family="sans-serif" font-size="16.25" lengthAdjust="spacing" textLength="8.75" x="332.291" y="273.681">1</text><text fill="#000000" font-family="sans-serif" font-size="16.25" lengthAdjust="spacing" textLength="6.25" x="334.9805" y="331.1051">*</text><!--MD5=[d6a5ae732362cd0f86c2003645f951b1]
link Company to ChemicalLaboratory--><path codeLine="47" d="M288.3875,247.391 C243.4,279.2285 180.0375,324.0785 139.025,353.1035 " fill="none" id="Company-ChemicalLaboratory" style="stroke:#FFC5A1;stroke-width:1.25;"/><polygon fill="#000000" points="236.7735,299.6214,248.1245,296.0883,243.8799,290.0911,236.7735,299.6214" style="stroke:#000000;stroke-width:1.25;"/><text fill="#000000" font-family="sans-serif" font-size="16.25" lengthAdjust="spacing" textLength="37.5" x="253.125" y="302.6599">owns</text><text fill="#000000" font-family="sans-serif" font-size="16.25" lengthAdjust="spacing" textLength="8.75" x="270.054" y="249.133">1</text><text fill="#000000" font-family="sans-serif" font-size="16.25" lengthAdjust="spacing" textLength="32.5" x="112.8416" y="339.7307">0.. 1</text><!--MD5=[2eb961b30663a01bbfd8b4b9b8950031]
link ClinicalAnalysisLaboratory to TestType--><path codeLine="48" d="M359.9625,422.2785 C374.2375,452.0285 394.3375,493.941 410.4125,527.466 " fill="none" id="ClinicalAnalysisLaboratory-TestType" style="stroke:#FFC5A1;stroke-width:1.25;"/><polygon fill="#000000" points="395.8278,476.6461,394.2507,464.863,387.626,468.0403,395.8278,476.6461" style="stroke:#000000;stroke-width:1.25;"/><text fill="#000000" font-family="sans-serif" font-size="16.25" lengthAdjust="spacing" textLength="62.5" x="404.375" y="477.6599">performs</text><text fill="#000000" font-family="sans-serif" font-size="16.25" lengthAdjust="spacing" textLength="6.25" x="356.6582" y="448.8553">*</text><text fill="#000000" font-family="sans-serif" font-size="16.25" lengthAdjust="spacing" textLength="6.25" x="399.6319" y="514.2405">*</text><!--MD5=[742a261f27a3dcd734c626287d811acd]
link Company to TestType--><path codeLine="49" d="M394.7,247.216 C423.9375,271.3535 457.65,305.441 474.375,344.541 C498.425,400.741 489.9375,422.066 478.125,482.041 C475.1375,497.2285 469.825,513.016 463.9875,527.4535 " fill="none" id="Company-TestType" style="stroke:#FFC5A1;stroke-width:1.25;"/><polygon fill="#000000" points="498.3751,389.578,499.2277,377.7204,492.0951,379.4839,498.3751,389.578" style="stroke:#000000;stroke-width:1.25;"/><text fill="#000000" font-family="sans-serif" font-size="16.25" lengthAdjust="spacing" textLength="66.25" x="508.125" y="390.1599">conducts</text><text fill="#000000" font-family="sans-serif" font-size="16.25" lengthAdjust="spacing" textLength="8.75" x="395.4886" y="273.7805">1</text><text fill="#000000" font-family="sans-serif" font-size="16.25" lengthAdjust="spacing" textLength="6.25" x="461.4106" y="514.2261">*</text><!--MD5=[ca241da2d6b7ba1ad04f00d8baddcc83]
link ChemicalLaboratory to Laboratory--><path codeLine="50" d="M112.4875,413.3535 C123.4875,435.416 139.25,467.066 154.2,497.0285 " fill="none" id="ChemicalLaboratory-to-Laboratory" style="stroke:#FFC5A1;stroke-width:1.25;"/><polygon fill="none" points="162.0375,493.166,165.3625,519.441,146.375,500.9785,162.0375,493.166" style="stroke:#FFC5A1;stroke-width:1.25;"/><!--MD5=[6d0dfcacb99e5b6ea3de933623cb0bd1]
link ClinicalAnalysisLaboratory to Laboratory--><path codeLine="51" d="M314.2625,422.2785 C298.3625,443.991 277.7125,472.2035 258.175,498.9035 " fill="none" id="ClinicalAnalysisLaboratory-to-Laboratory" style="stroke:#FFC5A1;stroke-width:1.25;"/><polygon fill="none" points="265.0375,504.341,243.2125,519.3535,250.9125,494.016,265.0375,504.341" style="stroke:#FFC5A1;stroke-width:1.25;"/><!--MD5=[f3b6ce5c1cfbdb5f0b6549491a8aff0c]
@startuml
'https://plantuml.com/class-diagram
' ======= layout =========
skinparam backgroundColor #fcf9ea
skinparam titleBorderRoundCorner 15
skinparam titleFontSize 30
skinparam classAttributeIconSize 0
skinparam titleFontName Arial Black
skinparam titleFontColor #f8a978
skinparam roundcorner 20
skinparam stereotypeCBackgroundColor ffc5a1
skinparam class {

ArrowColor ffc5a1
BorderColor White
BackgroundColor badfdb
}


' ======= title =========
center header


<font color=Black size=15><b>Built by WeByte ©</font>
endheader
title <b>US8 - Domain Model\n
class Company{
 - designation
}

class ClinicalAnalysisLaboratory{
- id
}
class Laboratory{
- name
- address
- phoneNumber
- texIdentificationNumber
}
class TestType{
- code
- description
- colectingMethod
}


Company "1" - - "*" ClinicalAnalysisLaboratory : owns >
Company "1" - - "0.. 1" ChemicalLaboratory : owns >
ClinicalAnalysisLaboratory "*" - - "*" TestType : performs >
Company "1" - - "*" TestType : conducts >
ChemicalLaboratory - -|> Laboratory
ClinicalAnalysisLaboratory - -|> Laboratory
@enduml

@startuml
skinparam backgroundColor #fcf9ea
skinparam titleBorderRoundCorner 15
skinparam titleFontSize 30
skinparam classAttributeIconSize 0
skinparam titleFontName Arial Black
skinparam titleFontColor #f8a978
skinparam roundcorner 20
skinparam stereotypeCBackgroundColor ffc5a1
skinparam class {

ArrowColor ffc5a1
BorderColor White
BackgroundColor badfdb
}


center header


<font color=Black size=15><b>Built by WeByte ©</font>
endheader
title <b>US8 - Domain Model\n
class Company{
 - designation
}

class ClinicalAnalysisLaboratory{
- id
}
class Laboratory{
- name
- address
- phoneNumber
- texIdentificationNumber
}
class TestType{
- code
- description
- colectingMethod
}


Company "1" - - "*" ClinicalAnalysisLaboratory : owns >
Company "1" - - "0.. 1" ChemicalLaboratory : owns >
ClinicalAnalysisLaboratory "*" - - "*" TestType : performs >
Company "1" - - "*" TestType : conducts >
ChemicalLaboratory - -|> Laboratory
ClinicalAnalysisLaboratory - -|> Laboratory
@enduml

PlantUML version 1.2021.4(Sun Apr 04 09:49:39 BST 2021)
(GPL source distribution)
Java Runtime: OpenJDK Runtime Environment
JVM: Dynamic Code Evolution 64-Bit Server VM
Default Encoding: Cp1252
Language: pt
Country: PT
--></g></svg>