<?xml version="1.0" encoding="UTF-8" standalone="no"?><svg xmlns="http://www.w3.org/2000/svg" xmlns:xlink="http://www.w3.org/1999/xlink" contentScriptType="application/ecmascript" contentStyleType="text/css" height="1155px" preserveAspectRatio="none" style="width:1190px;height:1155px;background:#FCF9EA;" version="1.1" viewBox="0 0 1190 1155" width="1190px" zoomAndPan="magnify"><defs><filter height="300%" id="f19d97o5xssyvi" width="300%" x="-1" y="-1"><feGaussianBlur result="blurOut" stdDeviation="2.5"/><feColorMatrix in="blurOut" result="blurOut2" type="matrix" values="0 0 0 0 0 0 0 0 0 0 0 0 0 0 0 0 0 0 .4 0"/><feOffset dx="5.0" dy="5.0" in="blurOut2" result="blurOut3"/><feBlend in="SourceGraphic" in2="blurOut3" mode="normal"/></filter></defs><g><text fill="#888888" font-family="sans-serif" font-size="12.5" lengthAdjust="spacing" textLength="0" x="589.0375" y="12.9761"/><text fill="#888888" font-family="sans-serif" font-size="12.5" lengthAdjust="spacing" textLength="0" x="589.0375" y="28.6987"/><text fill="#000000" font-family="sans-serif" font-size="18.75" font-weight="bold" lengthAdjust="spacing" textLength="157.5" x="508.4125" y="50.9094">Built by WeByte ©</text><text fill="#F8A978" font-family="Arial Black" font-size="37.5" font-weight="bold" lengthAdjust="spacing" textLength="458.75" x="357.7875" y="96.3013">US04 - Domain Model</text><text fill="#F8A978" font-family="Arial Black" font-size="37.5" lengthAdjust="spacing" textLength="0" x="593.4125" y="149.1821"/><!--MD5=[02e4b9b7573f1156f41e60aa5b4e25a4]
class Company--><rect codeLine="26" fill="#BADFDB" filter="url(#f19d97o5xssyvi)" height="77.2949" id="Company" rx="12.5" ry="12.5" style="stroke:#FFFFFF;stroke-width:1.875;" width="106.25" x="898.7" y="169.541"/><ellipse cx="917.45" cy="189.541" fill="#FFC5A1" rx="13.75" ry="13.75" style="stroke:#FFFFFF;stroke-width:1.25;"/><path d="M919.95,185.166 Q920.2039,184.541 920.4969,184.2285 Q920.7898,183.916 921.1219,183.916 Q921.7078,183.916 922.0789,184.2676 Q922.45,184.6191 922.45,185.4395 L922.45,187.3926 Q922.45,188.2129 922.0984,188.5645 Q921.7469,188.916 921.2,188.916 Q920.7117,188.916 920.3992,188.7012 Q920.0867,188.4863 919.95,187.9199 Q919.8914,187.5293 919.6766,187.3145 Q919.2859,186.9043 918.5828,186.6699 Q917.8797,186.416 917.1766,186.416 Q916.2977,186.416 915.5555,186.7676 Q914.8328,187.1191 914.2664,187.9004 Q913.7,188.6816 913.7,189.7559 L913.7,190.9082 Q913.7,192.1973 914.7547,193.0566 Q915.8094,193.916 917.6844,193.916 Q918.7977,193.916 919.5789,193.6621 Q920.0281,193.5254 920.5359,193.0762 Q920.868,192.8223 921.0438,192.7441 Q921.2195,192.666 921.4344,192.666 Q921.8445,192.666 922.1375,192.998 Q922.45,193.3105 922.45,193.7598 Q922.45,194.1895 922.0203,194.6973 Q921.3953,195.4395 920.3992,195.8496 Q919.0906,196.416 917.4891,196.416 Q915.6141,196.416 914.1102,195.6738 Q912.8992,195.0879 912.0398,193.8184 Q911.2,192.5488 911.2,191.0449 L911.2,189.6777 Q911.2,188.1152 911.9422,186.748 Q912.7039,185.3809 914.0125,184.6582 Q915.3406,183.916 916.825,183.916 Q917.7234,183.916 918.5047,184.2285 Q919.2859,184.541 919.95,185.166 Z " fill="#000000"/><text fill="#000000" font-family="sans-serif" font-size="15" lengthAdjust="spacing" textLength="66.25" x="934.95" y="195.6787">Company</text><line style="stroke:#FFFFFF;stroke-width:1.875;" x1="899.95" x2="1003.7" y1="209.541" y2="209.541"/><text fill="#000000" font-family="sans-serif" font-size="13.75" lengthAdjust="spacing" textLength="73.75" x="906.2" y="228.8147">-designation</text><line style="stroke:#FFFFFF;stroke-width:1.875;" x1="899.95" x2="1003.7" y1="236.8359" y2="236.8359"/><!--MD5=[df38be88ccee13e832d6fafd6288a4ca]
class Test--><rect codeLine="29" fill="#BADFDB" filter="url(#f19d97o5xssyvi)" height="111.8848" id="Test" rx="12.5" ry="12.5" style="stroke:#FFFFFF;stroke-width:1.875;" width="80" x="626.825" y="344.541"/><ellipse cx="650.075" cy="364.541" fill="#FFC5A1" rx="13.75" ry="13.75" style="stroke:#FFFFFF;stroke-width:1.25;"/><path d="M652.575,360.166 Q652.8289,359.541 653.1219,359.2285 Q653.4148,358.916 653.7469,358.916 Q654.3328,358.916 654.7039,359.2676 Q655.075,359.6191 655.075,360.4395 L655.075,362.3926 Q655.075,363.2129 654.7234,363.5645 Q654.3719,363.916 653.825,363.916 Q653.3367,363.916 653.0242,363.7012 Q652.7117,363.4863 652.575,362.9199 Q652.5164,362.5293 652.3016,362.3145 Q651.9109,361.9043 651.2078,361.6699 Q650.5047,361.416 649.8016,361.416 Q648.9227,361.416 648.1805,361.7676 Q647.4578,362.1191 646.8914,362.9004 Q646.325,363.6816 646.325,364.7559 L646.325,365.9082 Q646.325,367.1973 647.3797,368.0566 Q648.4344,368.916 650.3094,368.916 Q651.4227,368.916 652.2039,368.6621 Q652.6531,368.5254 653.1609,368.0762 Q653.493,367.8223 653.6688,367.7441 Q653.8445,367.666 654.0594,367.666 Q654.4695,367.666 654.7625,367.998 Q655.075,368.3105 655.075,368.7598 Q655.075,369.1895 654.6453,369.6973 Q654.0203,370.4395 653.0242,370.8496 Q651.7156,371.416 650.1141,371.416 Q648.2391,371.416 646.7352,370.6738 Q645.5242,370.0879 644.6648,368.8184 Q643.825,367.5488 643.825,366.0449 L643.825,364.6777 Q643.825,363.1152 644.5672,361.748 Q645.3289,360.3809 646.6375,359.6582 Q647.9656,358.916 649.45,358.916 Q650.3484,358.916 651.1297,359.2285 Q651.9109,359.541 652.575,360.166 Z " fill="#000000"/><text fill="#000000" font-family="sans-serif" font-size="15" lengthAdjust="spacing" textLength="30" x="668.575" y="370.6787">Test</text><line style="stroke:#FFFFFF;stroke-width:1.875;" x1="628.075" x2="705.575" y1="384.541" y2="384.541"/><text fill="#000000" font-family="sans-serif" font-size="13.75" lengthAdjust="spacing" textLength="35" x="634.325" y="403.8147">-code</text><text fill="#000000" font-family="sans-serif" font-size="13.75" lengthAdjust="spacing" textLength="58.75" x="634.325" y="421.1096">-nhsCode</text><text fill="#000000" font-family="sans-serif" font-size="13.75" lengthAdjust="spacing" textLength="65" x="634.325" y="438.4045">-createdAt</text><line style="stroke:#FFFFFF;stroke-width:1.875;" x1="628.075" x2="705.575" y1="446.4258" y2="446.4258"/><!--MD5=[1f6362a5c8f21d8d6a0fce68f3a92a4e]
class Parameter--><rect codeLine="34" fill="#BADFDB" filter="url(#f19d97o5xssyvi)" height="111.8848" id="Parameter" rx="12.5" ry="12.5" style="stroke:#FFFFFF;stroke-width:1.875;" width="112.5" x="143.075" y="833.291"/><ellipse cx="161.825" cy="853.291" fill="#FFC5A1" rx="13.75" ry="13.75" style="stroke:#FFFFFF;stroke-width:1.25;"/><path d="M164.325,848.916 Q164.5789,848.291 164.8719,847.9785 Q165.1648,847.666 165.4969,847.666 Q166.0828,847.666 166.4539,848.0176 Q166.825,848.3691 166.825,849.1895 L166.825,851.1426 Q166.825,851.9629 166.4734,852.3145 Q166.1219,852.666 165.575,852.666 Q165.0867,852.666 164.7742,852.4512 Q164.4617,852.2363 164.325,851.6699 Q164.2664,851.2793 164.0516,851.0645 Q163.6609,850.6543 162.9578,850.4199 Q162.2547,850.166 161.5516,850.166 Q160.6727,850.166 159.9305,850.5176 Q159.2078,850.8691 158.6414,851.6504 Q158.075,852.4316 158.075,853.5059 L158.075,854.6582 Q158.075,855.9473 159.1297,856.8066 Q160.1844,857.666 162.0594,857.666 Q163.1727,857.666 163.9539,857.4121 Q164.4031,857.2754 164.9109,856.8262 Q165.243,856.5723 165.4188,856.4941 Q165.5945,856.416 165.8094,856.416 Q166.2195,856.416 166.5125,856.748 Q166.825,857.0605 166.825,857.5098 Q166.825,857.9395 166.3953,858.4473 Q165.7703,859.1895 164.7742,859.5996 Q163.4656,860.166 161.8641,860.166 Q159.9891,860.166 158.4852,859.4238 Q157.2742,858.8379 156.4148,857.5684 Q155.575,856.2988 155.575,854.7949 L155.575,853.4277 Q155.575,851.8652 156.3172,850.498 Q157.0789,849.1309 158.3875,848.4082 Q159.7156,847.666 161.2,847.666 Q162.0984,847.666 162.8797,847.9785 Q163.6609,848.291 164.325,848.916 Z " fill="#000000"/><text fill="#000000" font-family="sans-serif" font-size="15" lengthAdjust="spacing" textLength="72.5" x="179.325" y="859.4287">Parameter</text><line style="stroke:#FFFFFF;stroke-width:1.875;" x1="144.325" x2="254.325" y1="873.291" y2="873.291"/><text fill="#000000" font-family="sans-serif" font-size="13.75" lengthAdjust="spacing" textLength="35" x="150.575" y="892.5647">-code</text><text fill="#000000" font-family="sans-serif" font-size="13.75" lengthAdjust="spacing" textLength="37.5" x="150.575" y="909.8596">-name</text><text fill="#000000" font-family="sans-serif" font-size="13.75" lengthAdjust="spacing" textLength="71.25" x="150.575" y="927.1545">-description</text><line style="stroke:#FFFFFF;stroke-width:1.875;" x1="144.325" x2="254.325" y1="935.1758" y2="935.1758"/><!--MD5=[36afb6bbd95a8ac778c4537c55a683d5]
class ParameterCategory--><rect codeLine="39" fill="#BADFDB" filter="url(#f19d97o5xssyvi)" height="94.5898" id="ParameterCategory" rx="12.5" ry="12.5" style="stroke:#FFFFFF;stroke-width:1.875;" width="173.75" x="962.45" y="1043.291"/><ellipse cx="981.2" cy="1063.291" fill="#FFC5A1" rx="13.75" ry="13.75" style="stroke:#FFFFFF;stroke-width:1.25;"/><path d="M983.7,1058.916 Q983.9539,1058.291 984.2469,1057.9785 Q984.5398,1057.666 984.8719,1057.666 Q985.4578,1057.666 985.8289,1058.0176 Q986.2,1058.3691 986.2,1059.1895 L986.2,1061.1426 Q986.2,1061.9629 985.8484,1062.3145 Q985.4969,1062.666 984.95,1062.666 Q984.4617,1062.666 984.1492,1062.4512 Q983.8367,1062.2363 983.7,1061.6699 Q983.6414,1061.2793 983.4266,1061.0645 Q983.0359,1060.6543 982.3328,1060.4199 Q981.6297,1060.166 980.9266,1060.166 Q980.0477,1060.166 979.3055,1060.5176 Q978.5828,1060.8691 978.0164,1061.6504 Q977.45,1062.4316 977.45,1063.5059 L977.45,1064.6582 Q977.45,1065.9473 978.5047,1066.8066 Q979.5594,1067.666 981.4344,1067.666 Q982.5477,1067.666 983.3289,1067.4121 Q983.7781,1067.2754 984.2859,1066.8262 Q984.618,1066.5723 984.7938,1066.4941 Q984.9695,1066.416 985.1844,1066.416 Q985.5945,1066.416 985.8875,1066.748 Q986.2,1067.0605 986.2,1067.5098 Q986.2,1067.9395 985.7703,1068.4473 Q985.1453,1069.1895 984.1492,1069.5996 Q982.8406,1070.166 981.2391,1070.166 Q979.3641,1070.166 977.8602,1069.4238 Q976.6492,1068.8379 975.7898,1067.5684 Q974.95,1066.2988 974.95,1064.7949 L974.95,1063.4277 Q974.95,1061.8652 975.6922,1060.498 Q976.4539,1059.1309 977.7625,1058.4082 Q979.0906,1057.666 980.575,1057.666 Q981.4734,1057.666 982.2547,1057.9785 Q983.0359,1058.291 983.7,1058.916 Z " fill="#000000"/><text fill="#000000" font-family="sans-serif" font-size="15" lengthAdjust="spacing" textLength="133.75" x="998.7" y="1069.4287">ParameterCategory</text><line style="stroke:#FFFFFF;stroke-width:1.875;" x1="963.7" x2="1134.95" y1="1083.291" y2="1083.291"/><text fill="#000000" font-family="sans-serif" font-size="13.75" lengthAdjust="spacing" textLength="35" x="969.95" y="1102.5647">-code</text><text fill="#000000" font-family="sans-serif" font-size="13.75" lengthAdjust="spacing" textLength="37.5" x="969.95" y="1119.8596">-name</text><line style="stroke:#FFFFFF;stroke-width:1.875;" x1="963.7" x2="1134.95" y1="1127.8809" y2="1127.8809"/><!--MD5=[a999c1570c205a2156b04a15307bc1ff]
class LabOrder--><rect codeLine="43" fill="#BADFDB" filter="url(#f19d97o5xssyvi)" height="60" id="LabOrder" rx="12.5" ry="12.5" style="stroke:#FFFFFF;stroke-width:1.875;" width="105" x="406.825" y="615.166"/><ellipse cx="425.575" cy="635.166" fill="#FFC5A1" rx="13.75" ry="13.75" style="stroke:#FFFFFF;stroke-width:1.25;"/><path d="M428.075,630.791 Q428.3289,630.166 428.6219,629.8535 Q428.9148,629.541 429.2469,629.541 Q429.8328,629.541 430.2039,629.8926 Q430.575,630.2441 430.575,631.0645 L430.575,633.0176 Q430.575,633.8379 430.2234,634.1895 Q429.8719,634.541 429.325,634.541 Q428.8367,634.541 428.5242,634.3262 Q428.2117,634.1113 428.075,633.5449 Q428.0164,633.1543 427.8016,632.9395 Q427.4109,632.5293 426.7078,632.2949 Q426.0047,632.041 425.3016,632.041 Q424.4227,632.041 423.6805,632.3926 Q422.9578,632.7441 422.3914,633.5254 Q421.825,634.3066 421.825,635.3809 L421.825,636.5332 Q421.825,637.8223 422.8797,638.6816 Q423.9344,639.541 425.8094,639.541 Q426.9227,639.541 427.7039,639.2871 Q428.1531,639.1504 428.6609,638.7012 Q428.993,638.4473 429.1688,638.3691 Q429.3445,638.291 429.5594,638.291 Q429.9695,638.291 430.2625,638.623 Q430.575,638.9355 430.575,639.3848 Q430.575,639.8145 430.1453,640.3223 Q429.5203,641.0645 428.5242,641.4746 Q427.2156,642.041 425.6141,642.041 Q423.7391,642.041 422.2352,641.2988 Q421.0242,640.7129 420.1648,639.4434 Q419.325,638.1738 419.325,636.6699 L419.325,635.3027 Q419.325,633.7402 420.0672,632.373 Q420.8289,631.0059 422.1375,630.2832 Q423.4656,629.541 424.95,629.541 Q425.8484,629.541 426.6297,629.8535 Q427.4109,630.166 428.075,630.791 Z " fill="#000000"/><text fill="#000000" font-family="sans-serif" font-size="15" lengthAdjust="spacing" textLength="65" x="443.075" y="641.3037">LabOrder</text><line style="stroke:#FFFFFF;stroke-width:1.875;" x1="408.075" x2="510.575" y1="655.166" y2="655.166"/><line style="stroke:#FFFFFF;stroke-width:1.875;" x1="408.075" x2="510.575" y1="665.166" y2="665.166"/><!--MD5=[9681492165142af2a4a3a169d90ee8d4]
class Sample--><rect codeLine="45" fill="#BADFDB" filter="url(#f19d97o5xssyvi)" height="77.2949" id="Sample" rx="12.5" ry="12.5" style="stroke:#FFFFFF;stroke-width:1.875;" width="93.75" x="556.2" y="606.416"/><ellipse cx="574.95" cy="626.416" fill="#FFC5A1" rx="13.75" ry="13.75" style="stroke:#FFFFFF;stroke-width:1.25;"/><path d="M577.45,622.041 Q577.7039,621.416 577.9969,621.1035 Q578.2898,620.791 578.6219,620.791 Q579.2078,620.791 579.5789,621.1426 Q579.95,621.4941 579.95,622.3145 L579.95,624.2676 Q579.95,625.0879 579.5984,625.4395 Q579.2469,625.791 578.7,625.791 Q578.2117,625.791 577.8992,625.5762 Q577.5867,625.3613 577.45,624.7949 Q577.3914,624.4043 577.1766,624.1895 Q576.7859,623.7793 576.0828,623.5449 Q575.3797,623.291 574.6766,623.291 Q573.7977,623.291 573.0555,623.6426 Q572.3328,623.9941 571.7664,624.7754 Q571.2,625.5566 571.2,626.6309 L571.2,627.7832 Q571.2,629.0723 572.2547,629.9316 Q573.3094,630.791 575.1844,630.791 Q576.2977,630.791 577.0789,630.5371 Q577.5281,630.4004 578.0359,629.9512 Q578.368,629.6973 578.5438,629.6191 Q578.7195,629.541 578.9344,629.541 Q579.3445,629.541 579.6375,629.873 Q579.95,630.1855 579.95,630.6348 Q579.95,631.0645 579.5203,631.5723 Q578.8953,632.3145 577.8992,632.7246 Q576.5906,633.291 574.9891,633.291 Q573.1141,633.291 571.6102,632.5488 Q570.3992,631.9629 569.5398,630.6934 Q568.7,629.4238 568.7,627.9199 L568.7,626.5527 Q568.7,624.9902 569.4422,623.623 Q570.2039,622.2559 571.5125,621.5332 Q572.8406,620.791 574.325,620.791 Q575.2234,620.791 576.0047,621.1035 Q576.7859,621.416 577.45,622.041 Z " fill="#000000"/><text fill="#000000" font-family="sans-serif" font-size="15" lengthAdjust="spacing" textLength="53.75" x="592.45" y="632.5537">Sample</text><line style="stroke:#FFFFFF;stroke-width:1.875;" x1="557.45" x2="648.7" y1="646.416" y2="646.416"/><text fill="#000000" font-family="sans-serif" font-size="13.75" lengthAdjust="spacing" textLength="55" x="563.7" y="665.6897">-barcode</text><line style="stroke:#FFFFFF;stroke-width:1.875;" x1="557.45" x2="648.7" y1="673.7109" y2="673.7109"/><!--MD5=[aeb3272166074d8737a70b61b1e71682]
class TestType--><rect codeLine="48" fill="#BADFDB" filter="url(#f19d97o5xssyvi)" height="111.8848" id="TestType" rx="12.5" ry="12.5" style="stroke:#FFFFFF;stroke-width:1.875;" width="123.75" x="873.7" y="833.291"/><ellipse cx="902.0125" cy="853.291" fill="#FFC5A1" rx="13.75" ry="13.75" style="stroke:#FFFFFF;stroke-width:1.25;"/><path d="M904.5125,848.916 Q904.7664,848.291 905.0594,847.9785 Q905.3523,847.666 905.6844,847.666 Q906.2703,847.666 906.6414,848.0176 Q907.0125,848.3691 907.0125,849.1895 L907.0125,851.1426 Q907.0125,851.9629 906.6609,852.3145 Q906.3094,852.666 905.7625,852.666 Q905.2742,852.666 904.9617,852.4512 Q904.6492,852.2363 904.5125,851.6699 Q904.4539,851.2793 904.2391,851.0645 Q903.8484,850.6543 903.1453,850.4199 Q902.4422,850.166 901.7391,850.166 Q900.8602,850.166 900.118,850.5176 Q899.3953,850.8691 898.8289,851.6504 Q898.2625,852.4316 898.2625,853.5059 L898.2625,854.6582 Q898.2625,855.9473 899.3172,856.8066 Q900.3719,857.666 902.2469,857.666 Q903.3602,857.666 904.1414,857.4121 Q904.5906,857.2754 905.0984,856.8262 Q905.4305,856.5723 905.6063,856.4941 Q905.782,856.416 905.9969,856.416 Q906.407,856.416 906.7,856.748 Q907.0125,857.0605 907.0125,857.5098 Q907.0125,857.9395 906.5828,858.4473 Q905.9578,859.1895 904.9617,859.5996 Q903.6531,860.166 902.0516,860.166 Q900.1766,860.166 898.6727,859.4238 Q897.4617,858.8379 896.6023,857.5684 Q895.7625,856.2988 895.7625,854.7949 L895.7625,853.4277 Q895.7625,851.8652 896.5047,850.498 Q897.2664,849.1309 898.575,848.4082 Q899.9031,847.666 901.3875,847.666 Q902.2859,847.666 903.0672,847.9785 Q903.8484,848.291 904.5125,848.916 Z " fill="#000000"/><text fill="#000000" font-family="sans-serif" font-size="15" lengthAdjust="spacing" textLength="62.5" x="921.6375" y="859.4287">TestType</text><line style="stroke:#FFFFFF;stroke-width:1.875;" x1="874.95" x2="996.2" y1="873.291" y2="873.291"/><text fill="#000000" font-family="sans-serif" font-size="13.75" lengthAdjust="spacing" textLength="35" x="881.2" y="892.5647">-code</text><text fill="#000000" font-family="sans-serif" font-size="13.75" lengthAdjust="spacing" textLength="71.25" x="881.2" y="909.8596">-description</text><text fill="#000000" font-family="sans-serif" font-size="13.75" lengthAdjust="spacing" textLength="108.75" x="881.2" y="927.1545">-collecting method</text><line style="stroke:#FFFFFF;stroke-width:1.875;" x1="874.95" x2="996.2" y1="935.1758" y2="935.1758"/><!--MD5=[ed6624c6556d5e7b1bd23032162d20b7]
class Client--><rect codeLine="53" fill="#BADFDB" filter="url(#f19d97o5xssyvi)" height="181.0645" id="Client" rx="12.5" ry="12.5" style="stroke:#FFFFFF;stroke-width:1.875;" width="103.75" x="693.7" y="554.541"/><ellipse cx="723.1375" cy="574.541" fill="#FFC5A1" rx="13.75" ry="13.75" style="stroke:#FFFFFF;stroke-width:1.25;"/><path d="M725.6375,570.166 Q725.8914,569.541 726.1844,569.2285 Q726.4773,568.916 726.8094,568.916 Q727.3953,568.916 727.7664,569.2676 Q728.1375,569.6191 728.1375,570.4395 L728.1375,572.3926 Q728.1375,573.2129 727.7859,573.5645 Q727.4344,573.916 726.8875,573.916 Q726.3992,573.916 726.0867,573.7012 Q725.7742,573.4863 725.6375,572.9199 Q725.5789,572.5293 725.3641,572.3145 Q724.9734,571.9043 724.2703,571.6699 Q723.5672,571.416 722.8641,571.416 Q721.9852,571.416 721.243,571.7676 Q720.5203,572.1191 719.9539,572.9004 Q719.3875,573.6816 719.3875,574.7559 L719.3875,575.9082 Q719.3875,577.1973 720.4422,578.0566 Q721.4969,578.916 723.3719,578.916 Q724.4852,578.916 725.2664,578.6621 Q725.7156,578.5254 726.2234,578.0762 Q726.5555,577.8223 726.7313,577.7441 Q726.907,577.666 727.1219,577.666 Q727.532,577.666 727.825,577.998 Q728.1375,578.3105 728.1375,578.7598 Q728.1375,579.1895 727.7078,579.6973 Q727.0828,580.4395 726.0867,580.8496 Q724.7781,581.416 723.1766,581.416 Q721.3016,581.416 719.7977,580.6738 Q718.5867,580.0879 717.7273,578.8184 Q716.8875,577.5488 716.8875,576.0449 L716.8875,574.6777 Q716.8875,573.1152 717.6297,571.748 Q718.3914,570.3809 719.7,569.6582 Q721.0281,568.916 722.5125,568.916 Q723.4109,568.916 724.1922,569.2285 Q724.9734,569.541 725.6375,570.166 Z " fill="#000000"/><text fill="#000000" font-family="sans-serif" font-size="15" lengthAdjust="spacing" textLength="40" x="743.0125" y="580.6787">Client</text><line style="stroke:#FFFFFF;stroke-width:1.875;" x1="694.95" x2="796.2" y1="594.541" y2="594.541"/><text fill="#000000" font-family="sans-serif" font-size="13.75" lengthAdjust="spacing" textLength="73.75" x="701.2" y="613.8147">-nhsNumber</text><text fill="#000000" font-family="sans-serif" font-size="13.75" lengthAdjust="spacing" textLength="58.75" x="701.2" y="631.1096">-birthDate</text><text fill="#000000" font-family="sans-serif" font-size="13.75" lengthAdjust="spacing" textLength="27.5" x="701.2" y="648.4045">-sex</text><text fill="#000000" font-family="sans-serif" font-size="13.75" lengthAdjust="spacing" textLength="18.75" x="701.2" y="665.6995">-tin</text><text fill="#000000" font-family="sans-serif" font-size="13.75" lengthAdjust="spacing" textLength="88.75" x="701.2" y="682.9944">-phoneNumber</text><text fill="#000000" font-family="sans-serif" font-size="13.75" lengthAdjust="spacing" textLength="40" x="701.2" y="700.2893">-e-mail</text><text fill="#000000" font-family="sans-serif" font-size="13.75" lengthAdjust="spacing" textLength="37.5" x="701.2" y="717.5842">-name</text><line style="stroke:#FFFFFF;stroke-width:1.875;" x1="694.95" x2="796.2" y1="725.6055" y2="725.6055"/><!--MD5=[ce196d60179d4c6ae847449fc07f987f]
link LabOrder to Parameter--><path codeLine="62" d="M432.725,675.1785 C415.9625,692.991 393.675,716.141 373.075,735.791 C335.0375,772.0785 290.425,811.166 255.9375,840.6785 " fill="none" id="LabOrder-Parameter" style="stroke:#FFC5A1;stroke-width:1.25;"/><polygon fill="#000000" points="333.5123,789.0321,344.2769,783.987,339.2556,778.6233,333.5123,789.0321" style="stroke:#000000;stroke-width:1.25;"/><text fill="#000000" font-family="sans-serif" font-size="16.25" lengthAdjust="spacing" textLength="145" x="349.325" y="791.4099">requests analysis of</text><text fill="#000000" font-family="sans-serif" font-size="16.25" lengthAdjust="spacing" textLength="8.75" x="416.4248" y="701.854">1</text><text fill="#000000" font-family="sans-serif" font-size="16.25" lengthAdjust="spacing" textLength="25" x="265.6564" y="829.344">1..*</text><!--MD5=[fba3ac294f3c76c431d275cef443fef8]
link LabOrder to TestType--><path codeLine="63" d="M477.925,675.5535 C491.525,694.891 511.55,719.591 534.325,735.791 C641.0875,811.666 790.375,855.241 873.4875,875.1035 " fill="none" id="LabOrder-TestType" style="stroke:#FFC5A1;stroke-width:1.25;"/><polygon fill="#000000" points="647.4052,787.5758,638.9652,779.2034,635.6559,785.7633,647.4052,787.5758" style="stroke:#000000;stroke-width:1.25;"/><text fill="#000000" font-family="sans-serif" font-size="16.25" lengthAdjust="spacing" textLength="26.25" x="653.075" y="791.4099">has</text><text fill="#000000" font-family="sans-serif" font-size="16.25" lengthAdjust="spacing" textLength="8.75" x="472.4645" y="701.8128">1</text><text fill="#000000" font-family="sans-serif" font-size="16.25" lengthAdjust="spacing" textLength="8.75" x="854.9758" y="868.4606">1</text><!--MD5=[8aaf0efd5e2f3824be7ea3e488dcc283]
link TestType to ParameterCategory--><path codeLine="64" d="M967.2625,946.1535 C984.75,976.7035 1006.2125,1014.216 1022.8125,1043.2035 " fill="none" id="TestType-ParameterCategory" style="stroke:#FFC5A1;stroke-width:1.25;"/><polygon fill="#000000" points="1007.4298,1000.185,1005.0015,988.5475,998.6249,992.1973,1007.4298,1000.185" style="stroke:#000000;stroke-width:1.25;"/><text fill="#000000" font-family="sans-serif" font-size="16.25" lengthAdjust="spacing" textLength="26.25" x="1015.575" y="1001.4099">has</text><text fill="#000000" font-family="sans-serif" font-size="16.25" lengthAdjust="spacing" textLength="8.75" x="962.1826" y="972.0443">1</text><text fill="#000000" font-family="sans-serif" font-size="16.25" lengthAdjust="spacing" textLength="25" x="990.8634" y="1029.8903">1..*</text><!--MD5=[12d76240d3c3c66074d4ec2ea8bf469c]
link Company to Parameter--><path codeLine="65" d="M898.6125,218.716 C725.375,249.7535 182.95,356.666 83.075,494.541 C7.5,598.8785 96.6,752.166 155.5125,833.266 " fill="none" id="Company-Parameter" style="stroke:#FFC5A1;stroke-width:1.25;"/><polygon fill="#000000" points="84.5087,509.9939,95.5627,505.6193,90.8803,499.9573,84.5087,509.9939" style="stroke:#000000;stroke-width:1.25;"/><text fill="#000000" font-family="sans-serif" font-size="16.25" lengthAdjust="spacing" textLength="147.5" x="100.575" y="512.6599">capable of analysing</text><text fill="#000000" font-family="sans-serif" font-size="16.25" lengthAdjust="spacing" textLength="8.75" x="879.9646" y="215.7133">1</text><text fill="#000000" font-family="sans-serif" font-size="16.25" lengthAdjust="spacing" textLength="6.25" x="141.7818" y="819.6564">*</text><!--MD5=[93b4f25fb503a8e0e9a46b1d30ff3f44]
link Company to ParameterCategory--><path codeLine="66" d="M1005.0375,241.6035 C1052.425,274.6535 1114.325,330.966 1114.325,399.541 C1114.325,399.541 1114.325,399.541 1114.325,890.791 C1114.325,945.066 1092.1625,1003.7285 1073.7125,1043.1535 " fill="none" id="Company-ParameterCategory" style="stroke:#FFC5A1;stroke-width:1.25;"/><polygon fill="#000000" points="1121.1085,651.6129,1123.8036,640.0342,1116.4831,640.6614,1121.1085,651.6129" style="stroke:#000000;stroke-width:1.25;"/><text fill="#000000" font-family="sans-serif" font-size="16.25" lengthAdjust="spacing" textLength="48.75" x="1131.825" y="652.0349">adopts</text><text fill="#000000" font-family="sans-serif" font-size="16.25" lengthAdjust="spacing" textLength="8.75" x="1014.9354" y="242.5346">1</text><text fill="#000000" font-family="sans-serif" font-size="16.25" lengthAdjust="spacing" textLength="6.25" x="1071.2499" y="1029.8314">*</text><!--MD5=[7e4bc624457760b649895ff2ead938fa]
link Company to Test--><path codeLine="67" d="M898.5625,245.0535 C842.975,282.116 757.0875,339.366 706.9625,372.7785 " fill="none" id="Company-Test" style="stroke:#FFC5A1;stroke-width:1.25;"/><polygon fill="#000000" points="835.3746,299.4775,846.8199,296.2628,842.7445,290.1494,835.3746,299.4775" style="stroke:#000000;stroke-width:1.25;"/><text fill="#000000" font-family="sans-serif" font-size="16.25" lengthAdjust="spacing" textLength="62.5" x="851.825" y="302.6599">performs</text><text fill="#000000" font-family="sans-serif" font-size="16.25" lengthAdjust="spacing" textLength="8.75" x="879.9061" y="246.5776">1</text><text fill="#000000" font-family="sans-serif" font-size="16.25" lengthAdjust="spacing" textLength="6.25" x="716.967" y="360.979">*</text><!--MD5=[742a261f27a3dcd734c626287d811acd]
link Company to TestType--><path codeLine="68" d="M955.2375,247.2785 C962.4625,333.8285 977.425,553.241 961.825,735.791 C959.05,768.316 953,804.316 947.4,833.166 " fill="none" id="Company-TestType" style="stroke:#FFC5A1;stroke-width:1.25;"/><polygon fill="#000000" points="974.2414,512.2602,978.066,501.004,970.7193,500.9057,974.2414,512.2602" style="stroke:#000000;stroke-width:1.25;"/><text fill="#000000" font-family="sans-serif" font-size="16.25" lengthAdjust="spacing" textLength="66.25" x="985.575" y="512.6599">conducts</text><text fill="#000000" font-family="sans-serif" font-size="16.25" lengthAdjust="spacing" textLength="8.75" x="946.298" y="273.8553">1</text><text fill="#000000" font-family="sans-serif" font-size="16.25" lengthAdjust="spacing" textLength="6.25" x="942.5366" y="819.5404">*</text><!--MD5=[c23963f6e403fc3ebec8dae22c30ade6]
link Test to Parameter--><path codeLine="69" d="M626.725,402.0535 C536.9875,404.491 320.125,424.2785 220.575,554.541 C159.0625,635.041 171.5375,760.866 185.7125,832.8285 " fill="none" id="Test-Parameter" style="stroke:#FFC5A1;stroke-width:1.25;"/><polygon fill="#000000" points="222.354,649.753,233.0091,644.4806,227.8751,639.2246,222.354,649.753" style="stroke:#000000;stroke-width:1.25;"/><text fill="#000000" font-family="sans-serif" font-size="16.25" lengthAdjust="spacing" textLength="145" x="238.075" y="652.0349">requests analysis of</text><text fill="#000000" font-family="sans-serif" font-size="16.25" lengthAdjust="spacing" textLength="8.75" x="608.2461" y="397.1264">1</text><text fill="#000000" font-family="sans-serif" font-size="16.25" lengthAdjust="spacing" textLength="6.25" x="176.8996" y="819.5628">*</text><!--MD5=[b72ac8ab7fb5921fceb5036a3902baea]
link Test to Sample--><path codeLine="70" d="M631.4125,457.1035 C625.15,469.041 619.4125,481.891 615.575,494.541 C604.3875,531.391 601.9625,575.566 601.9,606.266 " fill="none" id="Test-Sample" style="stroke:#FFC5A1;stroke-width:1.25;"/><polygon fill="#000000" points="620.6119,512.1419,626.4102,501.7636,619.2026,500.3375,620.6119,512.1419" style="stroke:#000000;stroke-width:1.25;"/><text fill="#000000" font-family="sans-serif" font-size="16.25" lengthAdjust="spacing" textLength="56.25" x="633.075" y="512.6599">collects</text><text fill="#000000" font-family="sans-serif" font-size="16.25" lengthAdjust="spacing" textLength="8.75" x="617.0674" y="483.3718">1</text><text fill="#000000" font-family="sans-serif" font-size="16.25" lengthAdjust="spacing" textLength="6.25" x="594.7631" y="593.1158">*</text><!--MD5=[e981d4f96c4342412d1e68160b30cf70]
link Test to TestType--><path codeLine="71" d="M707,415.466 C743.2,429.591 795.25,455.291 825.575,494.541 C866.7,547.7535 907.2125,737.941 925.4875,833.1535 " fill="none" id="Test-TestType" style="stroke:#FFC5A1;stroke-width:1.25;"/><polygon fill="#000000" points="912.2219,650.9238,910.2366,639.2026,903.7261,642.6081,912.2219,650.9238" style="stroke:#000000;stroke-width:1.25;"/><text fill="#000000" font-family="sans-serif" font-size="16.25" lengthAdjust="spacing" textLength="30" x="920.575" y="652.0349">is of</text><text fill="#000000" font-family="sans-serif" font-size="16.25" lengthAdjust="spacing" textLength="8.75" x="716.7453" y="413.4729">1</text><text fill="#000000" font-family="sans-serif" font-size="16.25" lengthAdjust="spacing" textLength="6.25" x="917.1318" y="819.5259">*</text><!--MD5=[3994f36c72829dbcddd1cf7021dddf61]
link Test to Client--><path codeLine="72" d="M684.9,457.5285 C694.2,486.1285 705.7875,521.7035 716.325,554.0785 " fill="none" id="Test-Client" style="stroke:#FFC5A1;stroke-width:1.25;"/><polygon fill="#000000" points="711.2594,511.9539,711.2533,500.0657,704.2668,502.3396,711.2594,511.9539" style="stroke:#000000;stroke-width:1.25;"/><text fill="#000000" font-family="sans-serif" font-size="16.25" lengthAdjust="spacing" textLength="93.75" x="720.575" y="512.6599">requested by</text><text fill="#000000" font-family="sans-serif" font-size="16.25" lengthAdjust="spacing" textLength="8.75" x="677.9909" y="483.4361">1</text><text fill="#000000" font-family="sans-serif" font-size="16.25" lengthAdjust="spacing" textLength="8.75" x="704.265" y="541.0274">1</text><!--MD5=[7ae31b06ecb5db678e40497ee74dd179]
link Test to LabOrder--><path codeLine="73" d="M626.4125,408.5285 C579.95,418.3285 505.45,441.7285 469.325,494.541 C444.975,530.1535 448,582.391 453.1375,614.716 " fill="none" id="Test-LabOrder" style="stroke:#FFC5A1;stroke-width:1.25;"/><polygon fill="#000000" points="471.554,510.7955,481.6405,504.5033,476.0156,499.7763,471.554,510.7955" style="stroke:#000000;stroke-width:1.25;"/><text fill="#000000" font-family="sans-serif" font-size="16.25" lengthAdjust="spacing" textLength="112.5" x="486.825" y="512.6599">associated with</text><text fill="#000000" font-family="sans-serif" font-size="16.25" lengthAdjust="spacing" textLength="8.75" x="607.8652" y="429.3928">1</text><text fill="#000000" font-family="sans-serif" font-size="16.25" lengthAdjust="spacing" textLength="8.75" x="441.8129" y="601.7788">1</text><!--MD5=[1e6e0110984f6e0fadaa52648c77d60d]
@startuml
'https://plantuml.com/class-diagram
' ======= layout =========
skinparam backgroundColor #fcf9ea
skinparam titleBorderRoundCorner 15
skinparam titleFontSize 30
skinparam classAttributeIconSize 0
skinparam titleFontName Arial Black
skinparam titleFontColor #f8a978
skinparam roundcorner 20
skinparam stereotypeCBackgroundColor ffc5a1
skinparam class {

ArrowColor ffc5a1
BorderColor White
BackgroundColor badfdb
}


' ======= title =========
center header


<font color=Black size=15><b>Built by WeByte ©</font>
endheader
title <b>US04 - Domain Model\n
class Company{
 - designation
}
class Test{
    - code
    - nhsCode
    - createdAt
    }
class Parameter{
- code
- name
- description
}
class ParameterCategory{
- code
- name
}
 class LabOrder{
 }
 class Sample{
        - barcode
        }
class TestType{
    - code
    - description
    - collecting method
    }
class Client{
    - nhsNumber
    - birthDate
    - sex
    - tin
    - phoneNumber
    - e-mail
    - name
    }
LabOrder "1" - - "1..*" Parameter : requests analysis of >
LabOrder "1" - - "1" TestType : has >
TestType "1" - - "1..*" ParameterCategory : has >
Company "1" - - "*" Parameter : capable of analysing >
Company "1" - - "*" ParameterCategory : adopts >
Company "1" - - "*" Test : performs >
Company "1" - - "*" TestType : conducts >
Test "1" - - "*" Parameter : requests analysis of >
Test "1" - - "*" Sample : collects >
Test "1" - - "*" TestType : is of >
Test "1" - - "1" Client : requested by >
Test "1" - - "1" LabOrder : associated with >
@enduml

@startuml
skinparam backgroundColor #fcf9ea
skinparam titleBorderRoundCorner 15
skinparam titleFontSize 30
skinparam classAttributeIconSize 0
skinparam titleFontName Arial Black
skinparam titleFontColor #f8a978
skinparam roundcorner 20
skinparam stereotypeCBackgroundColor ffc5a1
skinparam class {

ArrowColor ffc5a1
BorderColor White
BackgroundColor badfdb
}


center header


<font color=Black size=15><b>Built by WeByte ©</font>
endheader
title <b>US04 - Domain Model\n
class Company{
 - designation
}
class Test{
    - code
    - nhsCode
    - createdAt
    }
class Parameter{
- code
- name
- description
}
class ParameterCategory{
- code
- name
}
 class LabOrder{
 }
 class Sample{
        - barcode
        }
class TestType{
    - code
    - description
    - collecting method
    }
class Client{
    - nhsNumber
    - birthDate
    - sex
    - tin
    - phoneNumber
    - e-mail
    - name
    }
LabOrder "1" - - "1..*" Parameter : requests analysis of >
LabOrder "1" - - "1" TestType : has >
TestType "1" - - "1..*" ParameterCategory : has >
Company "1" - - "*" Parameter : capable of analysing >
Company "1" - - "*" ParameterCategory : adopts >
Company "1" - - "*" Test : performs >
Company "1" - - "*" TestType : conducts >
Test "1" - - "*" Parameter : requests analysis of >
Test "1" - - "*" Sample : collects >
Test "1" - - "*" TestType : is of >
Test "1" - - "1" Client : requested by >
Test "1" - - "1" LabOrder : associated with >
@enduml

PlantUML version 1.2021.4(Sun Apr 04 09:49:39 BST 2021)
(GPL source distribution)
Java Runtime: OpenJDK Runtime Environment
JVM: Dynamic Code Evolution 64-Bit Server VM
Default Encoding: Cp1252
Language: pt
Country: PT
--></g></svg>