<?xml version="1.0" encoding="UTF-8" standalone="no"?><svg xmlns="http://www.w3.org/2000/svg" xmlns:xlink="http://www.w3.org/1999/xlink" contentScriptType="application/ecmascript" contentStyleType="text/css" height="454px" preserveAspectRatio="none" style="width:480px;height:454px;" version="1.1" viewBox="0 0 480 454" width="480px" zoomAndPan="magnify"><defs><filter height="300%" id="f1awjowx4lo8gw" width="300%" x="-1" y="-1"><feGaussianBlur result="blurOut" stdDeviation="2.0"/><feColorMatrix in="blurOut" result="blurOut2" type="matrix" values="0 0 0 0 0 0 0 0 0 0 0 0 0 0 0 0 0 0 .4 0"/><feOffset dx="4.0" dy="4.0" in="blurOut2" result="blurOut3"/><feBlend in="SourceGraphic" in2="blurOut3" mode="normal"/></filter></defs><g><rect fill="#FFFFFF" filter="url(#f1awjowx4lo8gw)" height="251.1641" style="stroke:#A80036;stroke-width:1.0;" width="10" x="77" y="99.6094"/><rect fill="#FFFFFF" filter="url(#f1awjowx4lo8gw)" height="30.3516" style="stroke:#A80036;stroke-width:1.0;" width="10" x="431" y="138.3125"/><rect fill="#FFFFFF" filter="url(#f1awjowx4lo8gw)" height="30.3516" style="stroke:#A80036;stroke-width:1.0;" width="10" x="431" y="199.0156"/><rect fill="#FFFFFF" filter="url(#f1awjowx4lo8gw)" height="30.3516" style="stroke:#A80036;stroke-width:1.0;" width="10" x="431" y="259.7188"/><rect fill="#FFFFFF" filter="url(#f1awjowx4lo8gw)" height="30.3516" style="stroke:#A80036;stroke-width:1.0;" width="10" x="431" y="320.4219"/><line style="stroke:#A80036;stroke-width:1.0;stroke-dasharray:5.0,5.0;" x1="82" x2="82" y1="89.6094" y2="368.7734"/><line style="stroke:#A80036;stroke-width:1.0;stroke-dasharray:5.0,5.0;" x1="436" x2="436" y1="89.6094" y2="368.7734"/><text fill="#000000" font-family="sans-serif" font-size="14" lengthAdjust="spacing" textLength="148" x="5" y="86.5332">Laboratory Coordinator</text><ellipse cx="82" cy="15" fill="#FEFECE" filter="url(#f1awjowx4lo8gw)" rx="8" ry="8" style="stroke:#A80036;stroke-width:2.0;"/><path d="M82,23 L82,50 M69,31 L95,31 M82,50 L69,65 M82,50 L95,65 " fill="none" filter="url(#f1awjowx4lo8gw)" style="stroke:#A80036;stroke-width:2.0;"/><text fill="#000000" font-family="sans-serif" font-size="14" lengthAdjust="spacing" textLength="148" x="5" y="382.3066">Laboratory Coordinator</text><ellipse cx="82" cy="395.3828" fill="#FEFECE" filter="url(#f1awjowx4lo8gw)" rx="8" ry="8" style="stroke:#A80036;stroke-width:2.0;"/><path d="M82,403.3828 L82,430.3828 M69,411.3828 L95,411.3828 M82,430.3828 L69,445.3828 M82,430.3828 L95,445.3828 " fill="none" filter="url(#f1awjowx4lo8gw)" style="stroke:#A80036;stroke-width:2.0;"/><rect fill="#FEFECE" filter="url(#f1awjowx4lo8gw)" height="31.6094" style="stroke:#A80036;stroke-width:1.5;" width="64" x="402" y="53"/><text fill="#000000" font-family="sans-serif" font-size="14" lengthAdjust="spacing" textLength="50" x="409" y="74.5332">:System</text><rect fill="#FEFECE" filter="url(#f1awjowx4lo8gw)" height="31.6094" style="stroke:#A80036;stroke-width:1.5;" width="64" x="402" y="367.7734"/><text fill="#000000" font-family="sans-serif" font-size="14" lengthAdjust="spacing" textLength="50" x="409" y="389.3066">:System</text><rect fill="#FFFFFF" filter="url(#f1awjowx4lo8gw)" height="251.1641" style="stroke:#A80036;stroke-width:1.0;" width="10" x="77" y="99.6094"/><rect fill="#FFFFFF" filter="url(#f1awjowx4lo8gw)" height="30.3516" style="stroke:#A80036;stroke-width:1.0;" width="10" x="431" y="138.3125"/><rect fill="#FFFFFF" filter="url(#f1awjowx4lo8gw)" height="30.3516" style="stroke:#A80036;stroke-width:1.0;" width="10" x="431" y="199.0156"/><rect fill="#FFFFFF" filter="url(#f1awjowx4lo8gw)" height="30.3516" style="stroke:#A80036;stroke-width:1.0;" width="10" x="431" y="259.7188"/><rect fill="#FFFFFF" filter="url(#f1awjowx4lo8gw)" height="30.3516" style="stroke:#A80036;stroke-width:1.0;" width="10" x="431" y="320.4219"/><polygon fill="#A80036" points="419,134.3125,429,138.3125,419,142.3125,423,138.3125" style="stroke:#A80036;stroke-width:1.0;"/><line style="stroke:#A80036;stroke-width:1.0;" x1="87" x2="425" y1="138.3125" y2="138.3125"/><text fill="#000000" font-family="sans-serif" font-size="13" font-weight="bold" lengthAdjust="spacing" textLength="7" x="94" y="125.2803">1</text><text fill="#000000" font-family="sans-serif" font-size="13" lengthAdjust="spacing" textLength="131" x="105" y="117.1045">starts overview of tests</text><text fill="#000000" font-family="sans-serif" font-size="13" lengthAdjust="spacing" textLength="167" x="109" y="133.4561">and performance of company</text><polygon fill="#A80036" points="98,164.6641,88,168.6641,98,172.6641,94,168.6641" style="stroke:#A80036;stroke-width:1.0;"/><line style="stroke:#A80036;stroke-width:1.0;stroke-dasharray:2.0,2.0;" x1="92" x2="435" y1="168.6641" y2="168.6641"/><text fill="#000000" font-family="sans-serif" font-size="13" font-weight="bold" lengthAdjust="spacing" textLength="7" x="104" y="163.8076">2</text><text fill="#000000" font-family="sans-serif" font-size="13" lengthAdjust="spacing" textLength="245" x="115" y="163.8076">shows overall performance of the company</text><polygon fill="#A80036" points="419,195.0156,429,199.0156,419,203.0156,423,199.0156" style="stroke:#A80036;stroke-width:1.0;"/><line style="stroke:#A80036;stroke-width:1.0;" x1="87" x2="425" y1="199.0156" y2="199.0156"/><text fill="#000000" font-family="sans-serif" font-size="13" font-weight="bold" lengthAdjust="spacing" textLength="7" x="94" y="194.1592">3</text><text fill="#000000" font-family="sans-serif" font-size="13" lengthAdjust="spacing" textLength="303" x="105" y="194.1592">selects first and last interval (firstInterval, lastInterval)</text><polygon fill="#A80036" points="98,225.3672,88,229.3672,98,233.3672,94,229.3672" style="stroke:#A80036;stroke-width:1.0;"/><line style="stroke:#A80036;stroke-width:1.0;stroke-dasharray:2.0,2.0;" x1="92" x2="435" y1="229.3672" y2="229.3672"/><text fill="#000000" font-family="sans-serif" font-size="13" font-weight="bold" lengthAdjust="spacing" textLength="7" x="104" y="224.5107">4</text><text fill="#000000" font-family="sans-serif" font-size="13" lengthAdjust="spacing" textLength="176" x="115" y="224.5107">overview of all tests performed.</text><polygon fill="#A80036" points="419,255.7188,429,259.7188,419,263.7188,423,259.7188" style="stroke:#A80036;stroke-width:1.0;"/><line style="stroke:#A80036;stroke-width:1.0;" x1="87" x2="425" y1="259.7188" y2="259.7188"/><text fill="#000000" font-family="sans-serif" font-size="13" font-weight="bold" lengthAdjust="spacing" textLength="7" x="94" y="254.8623">5</text><text fill="#000000" font-family="sans-serif" font-size="13" lengthAdjust="spacing" textLength="135" x="105" y="254.8623">select algorithm(option)</text><polygon fill="#A80036" points="98,286.0703,88,290.0703,98,294.0703,94,290.0703" style="stroke:#A80036;stroke-width:1.0;"/><line style="stroke:#A80036;stroke-width:1.0;stroke-dasharray:2.0,2.0;" x1="92" x2="435" y1="290.0703" y2="290.0703"/><text fill="#000000" font-family="sans-serif" font-size="13" font-weight="bold" lengthAdjust="spacing" textLength="7" x="104" y="285.2139">6</text><text fill="#000000" font-family="sans-serif" font-size="13" lengthAdjust="spacing" textLength="309" x="115" y="285.2139">shows most delayed interval in time space introduced</text><polygon fill="#A80036" points="419,316.4219,429,320.4219,419,324.4219,423,320.4219" style="stroke:#A80036;stroke-width:1.0;"/><line style="stroke:#A80036;stroke-width:1.0;" x1="87" x2="425" y1="320.4219" y2="320.4219"/><text fill="#000000" font-family="sans-serif" font-size="13" font-weight="bold" lengthAdjust="spacing" textLength="7" x="94" y="315.5654">7</text><text fill="#000000" font-family="sans-serif" font-size="13" lengthAdjust="spacing" textLength="231" x="105" y="315.5654">selects the graphis he/she wants to see</text><polygon fill="#A80036" points="93,346.7734,83,350.7734,93,354.7734,89,350.7734" style="stroke:#A80036;stroke-width:1.0;"/><line style="stroke:#A80036;stroke-width:1.0;stroke-dasharray:2.0,2.0;" x1="87" x2="435" y1="350.7734" y2="350.7734"/><text fill="#000000" font-family="sans-serif" font-size="13" font-weight="bold" lengthAdjust="spacing" textLength="7" x="99" y="345.917">8</text><text fill="#000000" font-family="sans-serif" font-size="13" lengthAdjust="spacing" textLength="99" x="110" y="345.917">shows the graph.</text><!--MD5=[3ec489ba44b8bc77d0dbbc0bdd80836f]
@startuml
autonumber

actor "Laboratory Coordinator" as LC

activate LC
LC -> ":System" : starts overview of tests \n and performance of company
activate ":System"


":System" - -> LC : shows overall performance of the company

deactivate ":System"


LC -> ":System" : selects first and last interval (firstInterval, lastInterval)
activate ":System"
":System" - -> LC : overview of all tests performed.

deactivate ":System"

LC -> ":System" : select algorithm(option)
activate ":System"
":System" - -> LC : shows most delayed interval in time space introduced
deactivate ":System"
LC -> ":System":selects the graphis he/she wants to see
activate ":System"
":System" - -> LC:  shows the graph.
deactivate ":System"
deactivate LC
@enduml

PlantUML version 1.2021.4(Sun Apr 04 09:49:39 BST 2021)
(GPL source distribution)
Java Runtime: OpenJDK Runtime Environment
JVM: Dynamic Code Evolution 64-Bit Server VM
Default Encoding: Cp1252
Language: pt
Country: PT
--></g></svg>