<?xml version="1.0" encoding="UTF-8" standalone="no"?><svg xmlns="http://www.w3.org/2000/svg" xmlns:xlink="http://www.w3.org/1999/xlink" contentScriptType="application/ecmascript" contentStyleType="text/css" height="1224px" preserveAspectRatio="none" style="width:1968px;height:1224px;background:#FCF9EA;" version="1.1" viewBox="0 0 1968 1224" width="1968.8px" zoomAndPan="magnify"><defs><filter height="300%" id="f19b560hjtvd58" width="300%" x="-1" y="-1"><feGaussianBlur result="blurOut" stdDeviation="1.6000000000000003"/><feColorMatrix in="blurOut" result="blurOut2" type="matrix" values="0 0 0 0 0 0 0 0 0 0 0 0 0 0 0 0 0 0 .4 0"/><feOffset dx="3.2000000000000006" dy="3.2000000000000006" in="blurOut2" result="blurOut3"/><feBlend in="SourceGraphic" in2="blurOut3" mode="normal"/></filter></defs><g><text fill="#888888" font-family="sans-serif" font-size="8" lengthAdjust="spacing" textLength="0" x="980.6" y="8.3047"/><text fill="#888888" font-family="sans-serif" font-size="8" lengthAdjust="spacing" textLength="0" x="980.6" y="18.3672"/><text fill="#000000" font-family="sans-serif" font-size="12" font-weight="bold" lengthAdjust="spacing" textLength="100.8" x="929" y="32.582">Built by WeByte ©</text><text fill="#F8A978" font-family="Arial Black" font-size="24" font-weight="bold" lengthAdjust="spacing" textLength="297.6" x="830.6" y="61.6328">US17 - Class Diagram</text><text fill="#F8A978" font-family="Arial Black" font-size="24" lengthAdjust="spacing" textLength="0" x="983.4" y="95.4766"/><!--MD5=[0f6f7964b844a64b0496af0dda7914bd]
class TestStore--><rect codeLine="27" fill="#BADFDB" filter="url(#f19b560hjtvd58)" height="248.7063" id="TestStore" rx="8" ry="8" style="stroke:#FFFFFF;stroke-width:1.2000000000000002;" width="397.6" x="1560.4" y="429.3063"/><ellipse cx="1734.6" cy="442.1063" fill="#FFC5A1" rx="8.8" ry="8.8" style="stroke:#FFFFFF;stroke-width:0.8000000000000002;"/><path d="M1736.2,439.3063 Q1736.3625,438.9063 1736.55,438.7063 Q1736.7375,438.5063 1736.95,438.5063 Q1737.325,438.5063 1737.5625,438.7313 Q1737.8,438.9563 1737.8,439.4813 L1737.8,440.7313 Q1737.8,441.2563 1737.575,441.4813 Q1737.35,441.7063 1737,441.7063 Q1736.6875,441.7063 1736.4875,441.5688 Q1736.2875,441.4313 1736.2,441.0688 Q1736.1625,440.8188 1736.025,440.6813 Q1735.775,440.4188 1735.325,440.2688 Q1734.875,440.1063 1734.425,440.1063 Q1733.8625,440.1063 1733.3875,440.3313 Q1732.925,440.5563 1732.5625,441.0563 Q1732.2,441.5563 1732.2,442.2438 L1732.2,442.9813 Q1732.2,443.8063 1732.875,444.3563 Q1733.55,444.9063 1734.75,444.9063 Q1735.4625,444.9063 1735.9625,444.7438 Q1736.25,444.6563 1736.575,444.3688 Q1736.7875,444.2063 1736.9,444.1563 Q1737.0125,444.1063 1737.15,444.1063 Q1737.4125,444.1063 1737.6,444.3188 Q1737.8,444.5188 1737.8,444.8063 Q1737.8,445.0813 1737.525,445.4063 Q1737.125,445.8813 1736.4875,446.1438 Q1735.65,446.5063 1734.625,446.5063 Q1733.425,446.5063 1732.4625,446.0313 Q1731.6875,445.6563 1731.1375,444.8438 Q1730.6,444.0313 1730.6,443.0688 L1730.6,442.1938 Q1730.6,441.1938 1731.075,440.3188 Q1731.5625,439.4438 1732.4,438.9813 Q1733.25,438.5063 1734.2,438.5063 Q1734.775,438.5063 1735.275,438.7063 Q1735.775,438.9063 1736.2,439.3063 Z " fill="#000000"/><text fill="#000000" font-family="sans-serif" font-size="9.6" lengthAdjust="spacing" textLength="42.4" x="1751" y="446.0344">TestStore</text><line style="stroke:#FFFFFF;stroke-width:1.2000000000000002;" x1="1561.2" x2="1957.2" y1="454.9063" y2="454.9063"/><text fill="#000000" font-family="sans-serif" font-size="8.8" lengthAdjust="spacing" textLength="31.2" x="1565.2" y="467.2414">-testList</text><text fill="#000000" font-family="sans-serif" font-size="8.8" lengthAdjust="spacing" textLength="91.2" x="1565.2" y="478.3102">-valueMaxForCovidTest</text><line style="stroke:#FFFFFF;stroke-width:1.2000000000000002;" x1="1561.2" x2="1957.2" y1="483.4438" y2="483.4438"/><text fill="#000000" font-family="sans-serif" font-size="8.8" lengthAdjust="spacing" textLength="380.8" x="1565.2" y="495.7789">-getHistoryOfPointsSimpleWeek(numberOfHistoricalPoints,  dateToday, regression, nhsReportDTO)</text><text fill="#000000" font-family="sans-serif" font-size="8.8" lengthAdjust="spacing" textLength="388" x="1565.2" y="506.8477">-getHistoryOfPointsSimpleDays( numberOfHistoricalPoints, DateToday,  regressionr,  nhsReportDTO)</text><text fill="#000000" font-family="sans-serif" font-size="8.8" lengthAdjust="spacing" textLength="351.2" x="1565.2" y="517.9164">-getHistoryOfPointsMultiLinearDays(inumberOfHistoricalPoints, regression,  nhsReportDTO)</text><text fill="#000000" font-family="sans-serif" font-size="8.8" lengthAdjust="spacing" textLength="340" x="1565.2" y="528.9852">-getHistoryOfPointsMultiLinearWeeks(inumberOfHistoricalPoints, DateToday, regression)</text><text fill="#000000" font-family="sans-serif" font-size="8.8" lengthAdjust="spacing" textLength="340" x="1565.2" y="540.0539">+double[] value = getXListNumberTestsByWeek(lowerLimitDate, upperLimitDate, testList)</text><text fill="#000000" font-family="sans-serif" font-size="8.8" lengthAdjust="spacing" textLength="276.8" x="1565.2" y="551.1227">+double[] value = getXListAgesByWeek(lowerLimitDate, upperLimitDate)</text><text fill="#000000" font-family="sans-serif" font-size="8.8" lengthAdjust="spacing" textLength="232" x="1565.2" y="562.1914">+getNumberPositiveCasesOnDate(date, testsMadeInInterval)</text><text fill="#000000" font-family="sans-serif" font-size="8.8" lengthAdjust="spacing" textLength="246.4" x="1565.2" y="573.2602">+double[] value = getYListWeek(lowerLimitDate, upperLimitDate)</text><text fill="#000000" font-family="sans-serif" font-size="8.8" lengthAdjust="spacing" textLength="304" x="1565.2" y="584.3289">+double[] value = getYList(lowerLimitDate, upperLimitDate, testsMadeInInterval)</text><text fill="#000000" font-family="sans-serif" font-size="8.8" lengthAdjust="spacing" textLength="374.4" x="1565.2" y="595.3977">+double[] value = getXlistNumberTestPerDay(lowerLimitDate, upperLimitDate, testsMadeInInterval)</text><text fill="#000000" font-family="sans-serif" font-size="8.8" lengthAdjust="spacing" textLength="244.8" x="1565.2" y="606.4664">+double[] value = getXListAges(lowerLimitDate, upperLimitDate)</text><text fill="#000000" font-family="sans-serif" font-size="8.8" lengthAdjust="spacing" textLength="211.2" x="1565.2" y="617.5352">+getMeanAgesPerDay(lowerLimitDate, upperLimitDate)</text><text fill="#000000" font-family="sans-serif" font-size="8.8" lengthAdjust="spacing" textLength="217.6" x="1565.2" y="628.6039">+getMeanAgesPerWeek(lowerLimitDate, upperLimitDate)</text><text fill="#000000" font-family="sans-serif" font-size="8.8" lengthAdjust="spacing" textLength="173.6" x="1565.2" y="639.6727">+getNumberTestsMadeOnDate(date, testList)</text><text fill="#000000" font-family="sans-serif" font-size="8.8" lengthAdjust="spacing" textLength="133.6" x="1565.2" y="650.7414">+getMeanAgesOfTestsMade(date)</text><text fill="#000000" font-family="sans-serif" font-size="8.8" lengthAdjust="spacing" textLength="241.6" x="1565.2" y="661.8102">+getCovidTestsForRegression(lowerLimitDate, upperLimitDate)</text><text fill="#000000" font-family="sans-serif" font-size="8.8" lengthAdjust="spacing" textLength="265.6" x="1565.2" y="672.8789">+getTableWithHistoricalDataToSendNHS( regression, nhsReportDTO)</text><!--MD5=[7421f545a0d8420c5bec41e74b387d9c]
class Employee--><rect codeLine="48" fill="#BADFDB" filter="url(#f19b560hjtvd58)" height="126.95" id="Employee" rx="8" ry="8" style="stroke:#FFFFFF;stroke-width:1.2000000000000002;" width="76.8" x="5.6" y="490.1063"/><ellipse cx="20.84" cy="502.9063" fill="#FFC5A1" rx="8.8" ry="8.8" style="stroke:#FFFFFF;stroke-width:0.8000000000000002;"/><path d="M22.44,500.1063 Q22.6025,499.7063 22.79,499.5063 Q22.9775,499.3063 23.19,499.3063 Q23.565,499.3063 23.8025,499.5313 Q24.04,499.7563 24.04,500.2813 L24.04,501.5313 Q24.04,502.0563 23.815,502.2813 Q23.59,502.5063 23.24,502.5063 Q22.9275,502.5063 22.7275,502.3688 Q22.5275,502.2313 22.44,501.8688 Q22.4025,501.6188 22.265,501.4813 Q22.015,501.2188 21.565,501.0688 Q21.115,500.9063 20.665,500.9063 Q20.1025,500.9063 19.6275,501.1313 Q19.165,501.3563 18.8025,501.8563 Q18.44,502.3563 18.44,503.0438 L18.44,503.7813 Q18.44,504.6063 19.115,505.1563 Q19.79,505.7063 20.99,505.7063 Q21.7025,505.7063 22.2025,505.5438 Q22.49,505.4563 22.815,505.1688 Q23.0275,505.0063 23.14,504.9563 Q23.2525,504.9063 23.39,504.9063 Q23.6525,504.9063 23.84,505.1188 Q24.04,505.3188 24.04,505.6063 Q24.04,505.8813 23.765,506.2063 Q23.365,506.6813 22.7275,506.9438 Q21.89,507.3063 20.865,507.3063 Q19.665,507.3063 18.7025,506.8313 Q17.9275,506.4563 17.3775,505.6438 Q16.84,504.8313 16.84,503.8688 L16.84,502.9938 Q16.84,501.9938 17.315,501.1188 Q17.8025,500.2438 18.64,499.7813 Q19.49,499.3063 20.44,499.3063 Q21.015,499.3063 21.515,499.5063 Q22.015,499.7063 22.44,500.1063 Z " fill="#000000"/><text fill="#000000" font-family="sans-serif" font-size="9.6" lengthAdjust="spacing" textLength="44" x="32.76" y="506.8344">Employee</text><line style="stroke:#FFFFFF;stroke-width:1.2000000000000002;" x1="6.4" x2="81.6" y1="515.7063" y2="515.7063"/><text fill="#000000" font-family="sans-serif" font-size="8.8" lengthAdjust="spacing" textLength="41.6" x="10.4" y="528.0414">-username</text><text fill="#000000" font-family="sans-serif" font-size="8.8" lengthAdjust="spacing" textLength="46.4" x="10.4" y="539.1102">-employeeId</text><text fill="#000000" font-family="sans-serif" font-size="8.8" lengthAdjust="spacing" textLength="67.2" x="10.4" y="550.1789">-organizationRole</text><text fill="#000000" font-family="sans-serif" font-size="8.8" lengthAdjust="spacing" textLength="24" x="10.4" y="561.2477">-name</text><text fill="#000000" font-family="sans-serif" font-size="8.8" lengthAdjust="spacing" textLength="35.2" x="10.4" y="572.3164">-address</text><text fill="#000000" font-family="sans-serif" font-size="8.8" lengthAdjust="spacing" textLength="56.8" x="10.4" y="583.3852">-phoneNumber</text><text fill="#000000" font-family="sans-serif" font-size="8.8" lengthAdjust="spacing" textLength="25.6" x="10.4" y="594.4539">-e-Mail</text><text fill="#000000" font-family="sans-serif" font-size="8.8" lengthAdjust="spacing" textLength="37.6" x="10.4" y="605.5227">-socCode</text><line style="stroke:#FFFFFF;stroke-width:1.2000000000000002;" x1="6.4" x2="81.6" y1="610.6563" y2="610.6563"/><!--MD5=[02e4b9b7573f1156f41e60aa5b4e25a4]
class Company--><rect codeLine="58" fill="#BADFDB" filter="url(#f19b560hjtvd58)" height="49.4688" id="Company" rx="8" ry="8" style="stroke:#FFFFFF;stroke-width:1.2000000000000002;" width="68" x="726.8" y="256.5063"/><ellipse cx="738.8" cy="269.3063" fill="#FFC5A1" rx="8.8" ry="8.8" style="stroke:#FFFFFF;stroke-width:0.8000000000000002;"/><path d="M740.4,266.5063 Q740.5625,266.1063 740.75,265.9063 Q740.9375,265.7063 741.15,265.7063 Q741.525,265.7063 741.7625,265.9313 Q742,266.1563 742,266.6813 L742,267.9313 Q742,268.4563 741.775,268.6813 Q741.55,268.9063 741.2,268.9063 Q740.8875,268.9063 740.6875,268.7688 Q740.4875,268.6313 740.4,268.2688 Q740.3625,268.0188 740.225,267.8813 Q739.975,267.6188 739.525,267.4688 Q739.075,267.3063 738.625,267.3063 Q738.0625,267.3063 737.5875,267.5313 Q737.125,267.7563 736.7625,268.2563 Q736.4,268.7563 736.4,269.4438 L736.4,270.1813 Q736.4,271.0063 737.075,271.5563 Q737.75,272.1063 738.95,272.1063 Q739.6625,272.1063 740.1625,271.9438 Q740.45,271.8563 740.775,271.5688 Q740.9875,271.4063 741.1,271.3563 Q741.2125,271.3063 741.35,271.3063 Q741.6125,271.3063 741.8,271.5188 Q742,271.7188 742,272.0063 Q742,272.2813 741.725,272.6063 Q741.325,273.0813 740.6875,273.3438 Q739.85,273.7063 738.825,273.7063 Q737.625,273.7063 736.6625,273.2313 Q735.8875,272.8563 735.3375,272.0438 Q734.8,271.2313 734.8,270.2688 L734.8,269.3938 Q734.8,268.3938 735.275,267.5188 Q735.7625,266.6438 736.6,266.1813 Q737.45,265.7063 738.4,265.7063 Q738.975,265.7063 739.475,265.9063 Q739.975,266.1063 740.4,266.5063 Z " fill="#000000"/><text fill="#000000" font-family="sans-serif" font-size="9.6" lengthAdjust="spacing" textLength="42.4" x="750" y="273.2344">Company</text><line style="stroke:#FFFFFF;stroke-width:1.2000000000000002;" x1="727.6" x2="794" y1="282.1063" y2="282.1063"/><text fill="#000000" font-family="sans-serif" font-size="8.8" lengthAdjust="spacing" textLength="47.2" x="731.6" y="294.4414">-designation</text><line style="stroke:#FFFFFF;stroke-width:1.2000000000000002;" x1="727.6" x2="794" y1="299.575" y2="299.575"/><!--MD5=[7ed141c03e0152edde835bfe9581b283]
class ImportTestsUI--><rect codeLine="61" fill="#BADFDB" filter="url(#f19b560hjtvd58)" height="38.4" id="ImportTestsUI" rx="8" ry="8" style="stroke:#FFFFFF;stroke-width:1.2000000000000002;" width="88" x="1715.2" y="108.5063"/><ellipse cx="1727.2" cy="121.3063" fill="#FFC5A1" rx="8.8" ry="8.8" style="stroke:#FFFFFF;stroke-width:0.8000000000000002;"/><path d="M1728.8,118.5063 Q1728.9625,118.1063 1729.15,117.9063 Q1729.3375,117.7063 1729.55,117.7063 Q1729.925,117.7063 1730.1625,117.9313 Q1730.4,118.1563 1730.4,118.6813 L1730.4,119.9313 Q1730.4,120.4563 1730.175,120.6813 Q1729.95,120.9063 1729.6,120.9063 Q1729.2875,120.9063 1729.0875,120.7688 Q1728.8875,120.6313 1728.8,120.2688 Q1728.7625,120.0188 1728.625,119.8813 Q1728.375,119.6188 1727.925,119.4688 Q1727.475,119.3063 1727.025,119.3063 Q1726.4625,119.3063 1725.9875,119.5313 Q1725.525,119.7563 1725.1625,120.2563 Q1724.8,120.7563 1724.8,121.4438 L1724.8,122.1813 Q1724.8,123.0063 1725.475,123.5563 Q1726.15,124.1063 1727.35,124.1063 Q1728.0625,124.1063 1728.5625,123.9438 Q1728.85,123.8563 1729.175,123.5688 Q1729.3875,123.4063 1729.5,123.3563 Q1729.6125,123.3063 1729.75,123.3063 Q1730.0125,123.3063 1730.2,123.5188 Q1730.4,123.7188 1730.4,124.0063 Q1730.4,124.2813 1730.125,124.6063 Q1729.725,125.0813 1729.0875,125.3438 Q1728.25,125.7063 1727.225,125.7063 Q1726.025,125.7063 1725.0625,125.2313 Q1724.2875,124.8563 1723.7375,124.0438 Q1723.2,123.2313 1723.2,122.2688 L1723.2,121.3938 Q1723.2,120.3938 1723.675,119.5188 Q1724.1625,118.6438 1725,118.1813 Q1725.85,117.7063 1726.8,117.7063 Q1727.375,117.7063 1727.875,117.9063 Q1728.375,118.1063 1728.8,118.5063 Z " fill="#000000"/><text fill="#000000" font-family="sans-serif" font-size="9.6" lengthAdjust="spacing" textLength="62.4" x="1738.4" y="125.2344">ImportTestsUI</text><line style="stroke:#FFFFFF;stroke-width:1.2000000000000002;" x1="1716" x2="1802.4" y1="134.1063" y2="134.1063"/><line style="stroke:#FFFFFF;stroke-width:1.2000000000000002;" x1="1716" x2="1802.4" y1="140.5063" y2="140.5063"/><!--MD5=[51912c652aa2a3a1d0b745172ce59331]
class ImportTestController--><rect codeLine="63" fill="#BADFDB" filter="url(#f19b560hjtvd58)" height="71.6063" id="ImportTestController" rx="8" ry="8" style="stroke:#FFFFFF;stroke-width:1.2000000000000002;" width="120" x="1699.2" y="245.3063"/><ellipse cx="1713" cy="258.1063" fill="#FFC5A1" rx="8.8" ry="8.8" style="stroke:#FFFFFF;stroke-width:0.8000000000000002;"/><path d="M1714.6,255.3063 Q1714.7625,254.9063 1714.95,254.7063 Q1715.1375,254.5063 1715.35,254.5063 Q1715.725,254.5063 1715.9625,254.7313 Q1716.2,254.9563 1716.2,255.4813 L1716.2,256.7313 Q1716.2,257.2563 1715.975,257.4813 Q1715.75,257.7063 1715.4,257.7063 Q1715.0875,257.7063 1714.8875,257.5688 Q1714.6875,257.4313 1714.6,257.0688 Q1714.5625,256.8188 1714.425,256.6813 Q1714.175,256.4188 1713.725,256.2688 Q1713.275,256.1063 1712.825,256.1063 Q1712.2625,256.1063 1711.7875,256.3313 Q1711.325,256.5563 1710.9625,257.0563 Q1710.6,257.5563 1710.6,258.2438 L1710.6,258.9813 Q1710.6,259.8063 1711.275,260.3563 Q1711.95,260.9063 1713.15,260.9063 Q1713.8625,260.9063 1714.3625,260.7438 Q1714.65,260.6563 1714.975,260.3688 Q1715.1875,260.2063 1715.3,260.1563 Q1715.4125,260.1063 1715.55,260.1063 Q1715.8125,260.1063 1716,260.3188 Q1716.2,260.5188 1716.2,260.8063 Q1716.2,261.0813 1715.925,261.4063 Q1715.525,261.8813 1714.8875,262.1438 Q1714.05,262.5063 1713.025,262.5063 Q1711.825,262.5063 1710.8625,262.0313 Q1710.0875,261.6563 1709.5375,260.8438 Q1709,260.0313 1709,259.0688 L1709,258.1938 Q1709,257.1938 1709.475,256.3188 Q1709.9625,255.4438 1710.8,254.9813 Q1711.65,254.5063 1712.6,254.5063 Q1713.175,254.5063 1713.675,254.7063 Q1714.175,254.9063 1714.6,255.3063 Z " fill="#000000"/><text fill="#000000" font-family="sans-serif" font-size="9.6" lengthAdjust="spacing" textLength="90.4" x="1724.6" y="262.0344">ImportTestController</text><line style="stroke:#FFFFFF;stroke-width:1.2000000000000002;" x1="1700" x2="1818.4" y1="270.9063" y2="270.9063"/><line style="stroke:#FFFFFF;stroke-width:1.2000000000000002;" x1="1700" x2="1818.4" y1="277.3063" y2="277.3063"/><text fill="#000000" font-family="sans-serif" font-size="8.8" lengthAdjust="spacing" textLength="40.8" x="1704" y="289.6414">+getFiles()</text><text fill="#000000" font-family="sans-serif" font-size="8.8" lengthAdjust="spacing" textLength="70.4" x="1704" y="300.7102">+getTestDTOList()</text><text fill="#000000" font-family="sans-serif" font-size="8.8" lengthAdjust="spacing" textLength="110.4" x="1704" y="311.7789">+getTestList(String filename)</text><!--MD5=[be7802b157a16874d39c59ca0e2b25be]
class ParameterStore--><rect codeLine="68" fill="#BADFDB" filter="url(#f19b560hjtvd58)" height="82.675" id="ParameterStore" rx="8" ry="8" style="stroke:#FFFFFF;stroke-width:1.2000000000000002;" width="226.4" x="110.8" y="512.5063"/><ellipse cx="185.8" cy="525.3063" fill="#FFC5A1" rx="8.8" ry="8.8" style="stroke:#FFFFFF;stroke-width:0.8000000000000002;"/><path d="M187.4,522.5063 Q187.5625,522.1063 187.75,521.9063 Q187.9375,521.7063 188.15,521.7063 Q188.525,521.7063 188.7625,521.9313 Q189,522.1563 189,522.6813 L189,523.9313 Q189,524.4563 188.775,524.6813 Q188.55,524.9063 188.2,524.9063 Q187.8875,524.9063 187.6875,524.7688 Q187.4875,524.6313 187.4,524.2688 Q187.3625,524.0188 187.225,523.8813 Q186.975,523.6188 186.525,523.4688 Q186.075,523.3063 185.625,523.3063 Q185.0625,523.3063 184.5875,523.5313 Q184.125,523.7563 183.7625,524.2563 Q183.4,524.7563 183.4,525.4438 L183.4,526.1813 Q183.4,527.0063 184.075,527.5563 Q184.75,528.1063 185.95,528.1063 Q186.6625,528.1063 187.1625,527.9438 Q187.45,527.8563 187.775,527.5688 Q187.9875,527.4063 188.1,527.3563 Q188.2125,527.3063 188.35,527.3063 Q188.6125,527.3063 188.8,527.5188 Q189,527.7188 189,528.0063 Q189,528.2813 188.725,528.6063 Q188.325,529.0813 187.6875,529.3438 Q186.85,529.7063 185.825,529.7063 Q184.625,529.7063 183.6625,529.2313 Q182.8875,528.8563 182.3375,528.0438 Q181.8,527.2313 181.8,526.2688 L181.8,525.3938 Q181.8,524.3938 182.275,523.5188 Q182.7625,522.6438 183.6,522.1813 Q184.45,521.7063 185.4,521.7063 Q185.975,521.7063 186.475,521.9063 Q186.975,522.1063 187.4,522.5063 Z " fill="#000000"/><text fill="#000000" font-family="sans-serif" font-size="9.6" lengthAdjust="spacing" textLength="69.6" x="202.2" y="529.2344">ParameterStore</text><line style="stroke:#FFFFFF;stroke-width:1.2000000000000002;" x1="111.6" x2="336.4" y1="538.1063" y2="538.1063"/><line style="stroke:#FFFFFF;stroke-width:1.2000000000000002;" x1="111.6" x2="336.4" y1="544.5063" y2="544.5063"/><text fill="#000000" font-family="sans-serif" font-size="8.8" lengthAdjust="spacing" textLength="216.8" x="115.6" y="556.8414">+createParameter(id, designation, category, description)</text><text fill="#000000" font-family="sans-serif" font-size="8.8" lengthAdjust="spacing" textLength="92.8" x="115.6" y="567.9102">+validateParameter(par)</text><text fill="#000000" font-family="sans-serif" font-size="8.8" lengthAdjust="spacing" textLength="82.4" x="115.6" y="578.9789">+saveParameter(par)</text><text fill="#000000" font-family="sans-serif" font-size="8.8" lengthAdjust="spacing" textLength="77.6" x="115.6" y="590.0477">+addParameter(par)</text><!--MD5=[55cb992be19579b505cea3c5691093cb]
class ClientStore--><rect codeLine="74" fill="#BADFDB" filter="url(#f19b560hjtvd58)" height="93.7438" id="ClientStore" rx="8" ry="8" style="stroke:#FFFFFF;stroke-width:1.2000000000000002;" width="210.4" x="365.2" y="506.9063"/><ellipse cx="442.6" cy="519.7063" fill="#FFC5A1" rx="8.8" ry="8.8" style="stroke:#FFFFFF;stroke-width:0.8000000000000002;"/><path d="M444.2,516.9063 Q444.3625,516.5063 444.55,516.3063 Q444.7375,516.1063 444.95,516.1063 Q445.325,516.1063 445.5625,516.3313 Q445.8,516.5563 445.8,517.0813 L445.8,518.3313 Q445.8,518.8563 445.575,519.0813 Q445.35,519.3063 445,519.3063 Q444.6875,519.3063 444.4875,519.1688 Q444.2875,519.0313 444.2,518.6688 Q444.1625,518.4188 444.025,518.2813 Q443.775,518.0188 443.325,517.8688 Q442.875,517.7063 442.425,517.7063 Q441.8625,517.7063 441.3875,517.9313 Q440.925,518.1563 440.5625,518.6563 Q440.2,519.1563 440.2,519.8438 L440.2,520.5813 Q440.2,521.4063 440.875,521.9563 Q441.55,522.5063 442.75,522.5063 Q443.4625,522.5063 443.9625,522.3438 Q444.25,522.2563 444.575,521.9688 Q444.7875,521.8063 444.9,521.7563 Q445.0125,521.7063 445.15,521.7063 Q445.4125,521.7063 445.6,521.9188 Q445.8,522.1188 445.8,522.4063 Q445.8,522.6813 445.525,523.0063 Q445.125,523.4813 444.4875,523.7438 Q443.65,524.1063 442.625,524.1063 Q441.425,524.1063 440.4625,523.6313 Q439.6875,523.2563 439.1375,522.4438 Q438.6,521.6313 438.6,520.6688 L438.6,519.7938 Q438.6,518.7938 439.075,517.9188 Q439.5625,517.0438 440.4,516.5813 Q441.25,516.1063 442.2,516.1063 Q442.775,516.1063 443.275,516.3063 Q443.775,516.5063 444.2,516.9063 Z " fill="#000000"/><text fill="#000000" font-family="sans-serif" font-size="9.6" lengthAdjust="spacing" textLength="48.8" x="459" y="523.6344">ClientStore</text><line style="stroke:#FFFFFF;stroke-width:1.2000000000000002;" x1="366" x2="574.8" y1="532.5063" y2="532.5063"/><line style="stroke:#FFFFFF;stroke-width:1.2000000000000002;" x1="366" x2="574.8" y1="538.9063" y2="538.9063"/><text fill="#000000" font-family="sans-serif" font-size="8.8" lengthAdjust="spacing" textLength="196" x="370" y="551.2414">+createNewClient(citizenCardNumber, nhsNumber,</text><text fill="#000000" font-family="sans-serif" font-size="8.8" lengthAdjust="spacing" textLength="198.4" x="372.4" y="562.3102">birthDate, sex, tin, phoneNumber, e-mail and name.)</text><text fill="#000000" font-family="sans-serif" font-size="8.8" lengthAdjust="spacing" textLength="66.4" x="370" y="573.3789">+validateClient(c)</text><text fill="#000000" font-family="sans-serif" font-size="8.8" lengthAdjust="spacing" textLength="56" x="370" y="584.4477">+saveClient(c)</text><text fill="#000000" font-family="sans-serif" font-size="8.8" lengthAdjust="spacing" textLength="49.6" x="370" y="595.5164">-addClient(c)</text><!--MD5=[df38be88ccee13e832d6fafd6288a4ca]
class Test--><rect codeLine="80" fill="#BADFDB" filter="url(#f19b560hjtvd58)" height="71.6063" id="Test" rx="8" ry="8" style="stroke:#FFFFFF;stroke-width:1.2000000000000002;" width="46.4" x="1639.2" y="926.9063"/><ellipse cx="1651.92" cy="939.7063" fill="#FFC5A1" rx="8.8" ry="8.8" style="stroke:#FFFFFF;stroke-width:0.8000000000000002;"/><path d="M1653.52,936.9063 Q1653.6825,936.5063 1653.87,936.3063 Q1654.0575,936.1063 1654.27,936.1063 Q1654.645,936.1063 1654.8825,936.3313 Q1655.12,936.5563 1655.12,937.0813 L1655.12,938.3313 Q1655.12,938.8563 1654.895,939.0813 Q1654.67,939.3063 1654.32,939.3063 Q1654.0075,939.3063 1653.8075,939.1688 Q1653.6075,939.0313 1653.52,938.6688 Q1653.4825,938.4188 1653.345,938.2813 Q1653.095,938.0188 1652.645,937.8688 Q1652.195,937.7063 1651.745,937.7063 Q1651.1825,937.7063 1650.7075,937.9313 Q1650.245,938.1563 1649.8825,938.6563 Q1649.52,939.1563 1649.52,939.8438 L1649.52,940.5813 Q1649.52,941.4063 1650.195,941.9563 Q1650.87,942.5063 1652.07,942.5063 Q1652.7825,942.5063 1653.2825,942.3438 Q1653.57,942.2563 1653.895,941.9688 Q1654.1075,941.8063 1654.22,941.7563 Q1654.3325,941.7063 1654.47,941.7063 Q1654.7325,941.7063 1654.92,941.9188 Q1655.12,942.1188 1655.12,942.4063 Q1655.12,942.6813 1654.845,943.0063 Q1654.445,943.4813 1653.8075,943.7438 Q1652.97,944.1063 1651.945,944.1063 Q1650.745,944.1063 1649.7825,943.6313 Q1649.0075,943.2563 1648.4575,942.4438 Q1647.92,941.6313 1647.92,940.6688 L1647.92,939.7938 Q1647.92,938.7938 1648.395,937.9188 Q1648.8825,937.0438 1649.72,936.5813 Q1650.57,936.1063 1651.52,936.1063 Q1652.095,936.1063 1652.595,936.3063 Q1653.095,936.5063 1653.52,936.9063 Z " fill="#000000"/><text fill="#000000" font-family="sans-serif" font-size="9.6" lengthAdjust="spacing" textLength="19.2" x="1663.28" y="943.6344">Test</text><line style="stroke:#FFFFFF;stroke-width:1.2000000000000002;" x1="1640" x2="1684.8" y1="952.5063" y2="952.5063"/><text fill="#000000" font-family="sans-serif" font-size="8.8" lengthAdjust="spacing" textLength="22.4" x="1644" y="964.8414">-code</text><text fill="#000000" font-family="sans-serif" font-size="8.8" lengthAdjust="spacing" textLength="36.8" x="1644" y="975.9102">-nhscode</text><text fill="#000000" font-family="sans-serif" font-size="8.8" lengthAdjust="spacing" textLength="20" x="1644" y="986.9789">-date</text><line style="stroke:#FFFFFF;stroke-width:1.2000000000000002;" x1="1640" x2="1684.8" y1="992.1125" y2="992.1125"/><!--MD5=[6ba72ddf03822b91e8d41ca71de58ed3]
class TestTypeStore--><rect codeLine="85" fill="#BADFDB" filter="url(#f19b560hjtvd58)" height="126.95" id="TestTypeStore" rx="8" ry="8" style="stroke:#FFFFFF;stroke-width:1.2000000000000002;" width="484" x="661.2" y="490.1063"/><ellipse cx="868.2" cy="502.9063" fill="#FFC5A1" rx="8.8" ry="8.8" style="stroke:#FFFFFF;stroke-width:0.8000000000000002;"/><path d="M869.8,500.1063 Q869.9625,499.7063 870.15,499.5063 Q870.3375,499.3063 870.55,499.3063 Q870.925,499.3063 871.1625,499.5313 Q871.4,499.7563 871.4,500.2813 L871.4,501.5313 Q871.4,502.0563 871.175,502.2813 Q870.95,502.5063 870.6,502.5063 Q870.2875,502.5063 870.0875,502.3688 Q869.8875,502.2313 869.8,501.8688 Q869.7625,501.6188 869.625,501.4813 Q869.375,501.2188 868.925,501.0688 Q868.475,500.9063 868.025,500.9063 Q867.4625,500.9063 866.9875,501.1313 Q866.525,501.3563 866.1625,501.8563 Q865.8,502.3563 865.8,503.0438 L865.8,503.7813 Q865.8,504.6063 866.475,505.1563 Q867.15,505.7063 868.35,505.7063 Q869.0625,505.7063 869.5625,505.5438 Q869.85,505.4563 870.175,505.1688 Q870.3875,505.0063 870.5,504.9563 Q870.6125,504.9063 870.75,504.9063 Q871.0125,504.9063 871.2,505.1188 Q871.4,505.3188 871.4,505.6063 Q871.4,505.8813 871.125,506.2063 Q870.725,506.6813 870.0875,506.9438 Q869.25,507.3063 868.225,507.3063 Q867.025,507.3063 866.0625,506.8313 Q865.2875,506.4563 864.7375,505.6438 Q864.2,504.8313 864.2,503.8688 L864.2,502.9938 Q864.2,501.9938 864.675,501.1188 Q865.1625,500.2438 866,499.7813 Q866.85,499.3063 867.8,499.3063 Q868.375,499.3063 868.875,499.5063 Q869.375,499.7063 869.8,500.1063 Z " fill="#000000"/><text fill="#000000" font-family="sans-serif" font-size="9.6" lengthAdjust="spacing" textLength="63.2" x="884.6" y="506.8344">TestTypeStore</text><line style="stroke:#FFFFFF;stroke-width:1.2000000000000002;" x1="662" x2="1144.4" y1="515.7063" y2="515.7063"/><line style="stroke:#FFFFFF;stroke-width:1.2000000000000002;" x1="662" x2="1144.4" y1="522.1063" y2="522.1063"/><text fill="#000000" font-family="sans-serif" font-size="8.8" lengthAdjust="spacing" textLength="474.4" x="666" y="534.4414">+createTestType(String code, String description, String collectingMethod, List&lt;ParameterCategory&gt; parameterCategoryList)</text><text fill="#000000" font-family="sans-serif" font-size="8.8" lengthAdjust="spacing" textLength="129.6" x="666" y="545.5102">+validateTest(TestType testType)</text><text fill="#000000" font-family="sans-serif" font-size="8.8" lengthAdjust="spacing" textLength="119.2" x="666" y="556.5789">+saveTest(TestType testType)</text><text fill="#000000" font-family="sans-serif" font-size="8.8" lengthAdjust="spacing" textLength="133.6" x="666" y="567.6477">+addTestType(TestType testType)</text><text fill="#000000" font-family="sans-serif" font-size="8.8" lengthAdjust="spacing" textLength="64" x="666" y="578.7164">+getTestTypes()</text><text fill="#000000" font-family="sans-serif" font-size="8.8" lengthAdjust="spacing" textLength="200.8" x="666" y="589.7852">+getTestTypeByCodes(List&lt;String&gt; testTypeCodes)</text><text fill="#000000" font-family="sans-serif" font-size="8.8" lengthAdjust="spacing" textLength="136.8" x="666" y="600.8539">+getTestTypeByName(String name)</text><text fill="#000000" font-family="sans-serif" font-size="8.8" lengthAdjust="spacing" textLength="82.4" x="666" y="611.9227">+getListOfTestType()</text><!--MD5=[ed6624c6556d5e7b1bd23032162d20b7]
class Client--><rect codeLine="95" fill="#BADFDB" filter="url(#f19b560hjtvd58)" height="115.8813" id="Client" rx="8" ry="8" style="stroke:#FFFFFF;stroke-width:1.2000000000000002;" width="66.4" x="1629.2" y="1097.3063"/><ellipse cx="1648.04" cy="1110.1063" fill="#FFC5A1" rx="8.8" ry="8.8" style="stroke:#FFFFFF;stroke-width:0.8000000000000002;"/><path d="M1649.64,1107.3063 Q1649.8025,1106.9063 1649.99,1106.7063 Q1650.1775,1106.5063 1650.39,1106.5063 Q1650.765,1106.5063 1651.0025,1106.7313 Q1651.24,1106.9563 1651.24,1107.4813 L1651.24,1108.7313 Q1651.24,1109.2563 1651.015,1109.4813 Q1650.79,1109.7063 1650.44,1109.7063 Q1650.1275,1109.7063 1649.9275,1109.5688 Q1649.7275,1109.4313 1649.64,1109.0688 Q1649.6025,1108.8188 1649.465,1108.6813 Q1649.215,1108.4188 1648.765,1108.2688 Q1648.315,1108.1063 1647.865,1108.1063 Q1647.3025,1108.1063 1646.8275,1108.3313 Q1646.365,1108.5563 1646.0025,1109.0563 Q1645.64,1109.5563 1645.64,1110.2438 L1645.64,1110.9813 Q1645.64,1111.8063 1646.315,1112.3563 Q1646.99,1112.9063 1648.19,1112.9063 Q1648.9025,1112.9063 1649.4025,1112.7438 Q1649.69,1112.6563 1650.015,1112.3688 Q1650.2275,1112.2063 1650.34,1112.1563 Q1650.4525,1112.1063 1650.59,1112.1063 Q1650.8525,1112.1063 1651.04,1112.3188 Q1651.24,1112.5188 1651.24,1112.8063 Q1651.24,1113.0813 1650.965,1113.4063 Q1650.565,1113.8813 1649.9275,1114.1438 Q1649.09,1114.5063 1648.065,1114.5063 Q1646.865,1114.5063 1645.9025,1114.0313 Q1645.1275,1113.6563 1644.5775,1112.8438 Q1644.04,1112.0313 1644.04,1111.0688 L1644.04,1110.1938 Q1644.04,1109.1938 1644.515,1108.3188 Q1645.0025,1107.4438 1645.84,1106.9813 Q1646.69,1106.5063 1647.64,1106.5063 Q1648.215,1106.5063 1648.715,1106.7063 Q1649.215,1106.9063 1649.64,1107.3063 Z " fill="#000000"/><text fill="#000000" font-family="sans-serif" font-size="9.6" lengthAdjust="spacing" textLength="25.6" x="1660.76" y="1114.0344">Client</text><line style="stroke:#FFFFFF;stroke-width:1.2000000000000002;" x1="1630" x2="1694.8" y1="1122.9063" y2="1122.9063"/><text fill="#000000" font-family="sans-serif" font-size="8.8" lengthAdjust="spacing" textLength="47.2" x="1634" y="1135.2414">-nhsNumber</text><text fill="#000000" font-family="sans-serif" font-size="8.8" lengthAdjust="spacing" textLength="37.6" x="1634" y="1146.3102">-birthDate</text><text fill="#000000" font-family="sans-serif" font-size="8.8" lengthAdjust="spacing" textLength="17.6" x="1634" y="1157.3789">-sex</text><text fill="#000000" font-family="sans-serif" font-size="8.8" lengthAdjust="spacing" textLength="12" x="1634" y="1168.4477">-tin</text><text fill="#000000" font-family="sans-serif" font-size="8.8" lengthAdjust="spacing" textLength="56.8" x="1634" y="1179.5164">-phoneNumber</text><text fill="#000000" font-family="sans-serif" font-size="8.8" lengthAdjust="spacing" textLength="25.6" x="1634" y="1190.5852">-e-mail</text><text fill="#000000" font-family="sans-serif" font-size="8.8" lengthAdjust="spacing" textLength="24" x="1634" y="1201.6539">-name</text><line style="stroke:#FFFFFF;stroke-width:1.2000000000000002;" x1="1630" x2="1694.8" y1="1206.7875" y2="1206.7875"/><!--MD5=[d802db621b5b215a6f0466f93cefcb42]
class ParameterCategoryStore--><rect codeLine="104" fill="#BADFDB" filter="url(#f19b560hjtvd58)" height="115.8813" id="ParameterCategoryStore" rx="8" ry="8" style="stroke:#FFFFFF;stroke-width:1.2000000000000002;" width="235.2" x="1173.6" y="495.7063"/><ellipse cx="1233.4" cy="508.5063" fill="#FFC5A1" rx="8.8" ry="8.8" style="stroke:#FFFFFF;stroke-width:0.8000000000000002;"/><path d="M1235,505.7063 Q1235.1625,505.3063 1235.35,505.1063 Q1235.5375,504.9063 1235.75,504.9063 Q1236.125,504.9063 1236.3625,505.1313 Q1236.6,505.3563 1236.6,505.8813 L1236.6,507.1313 Q1236.6,507.6563 1236.375,507.8813 Q1236.15,508.1063 1235.8,508.1063 Q1235.4875,508.1063 1235.2875,507.9688 Q1235.0875,507.8313 1235,507.4688 Q1234.9625,507.2188 1234.825,507.0813 Q1234.575,506.8188 1234.125,506.6688 Q1233.675,506.5063 1233.225,506.5063 Q1232.6625,506.5063 1232.1875,506.7313 Q1231.725,506.9563 1231.3625,507.4563 Q1231,507.9563 1231,508.6438 L1231,509.3813 Q1231,510.2063 1231.675,510.7563 Q1232.35,511.3063 1233.55,511.3063 Q1234.2625,511.3063 1234.7625,511.1438 Q1235.05,511.0563 1235.375,510.7688 Q1235.5875,510.6063 1235.7,510.5563 Q1235.8125,510.5063 1235.95,510.5063 Q1236.2125,510.5063 1236.4,510.7188 Q1236.6,510.9188 1236.6,511.2063 Q1236.6,511.4813 1236.325,511.8063 Q1235.925,512.2813 1235.2875,512.5438 Q1234.45,512.9063 1233.425,512.9063 Q1232.225,512.9063 1231.2625,512.4313 Q1230.4875,512.0563 1229.9375,511.2438 Q1229.4,510.4313 1229.4,509.4688 L1229.4,508.5938 Q1229.4,507.5938 1229.875,506.7188 Q1230.3625,505.8438 1231.2,505.3813 Q1232.05,504.9063 1233,504.9063 Q1233.575,504.9063 1234.075,505.1063 Q1234.575,505.3063 1235,505.7063 Z " fill="#000000"/><text fill="#000000" font-family="sans-serif" font-size="9.6" lengthAdjust="spacing" textLength="108.8" x="1249.8" y="512.4344">ParameterCategoryStore</text><line style="stroke:#FFFFFF;stroke-width:1.2000000000000002;" x1="1174.4" x2="1408" y1="521.3063" y2="521.3063"/><line style="stroke:#FFFFFF;stroke-width:1.2000000000000002;" x1="1174.4" x2="1408" y1="527.7063" y2="527.7063"/><text fill="#000000" font-family="sans-serif" font-size="8.8" lengthAdjust="spacing" textLength="197.6" x="1178.4" y="540.0414">+createParameterCategoryCode(String description)</text><text fill="#000000" font-family="sans-serif" font-size="8.8" lengthAdjust="spacing" textLength="111.2" x="1178.4" y="551.1102">+getParameterCategoryList()</text><text fill="#000000" font-family="sans-serif" font-size="8.8" lengthAdjust="spacing" textLength="136.8" x="1178.4" y="562.1789">+add(ParameterCategory category)</text><text fill="#000000" font-family="sans-serif" font-size="8.8" lengthAdjust="spacing" textLength="218.4" x="1178.4" y="573.2477">+getParameterCategoryByDescription(String description)</text><text fill="#000000" font-family="sans-serif" font-size="8.8" lengthAdjust="spacing" textLength="191.2" x="1178.4" y="584.3164">+saveParameterCategory(ParameterCategory pc)</text><text fill="#000000" font-family="sans-serif" font-size="8.8" lengthAdjust="spacing" textLength="201.6" x="1178.4" y="595.3852">+validateParameterCategory(ParameterCategory pc)</text><text fill="#000000" font-family="sans-serif" font-size="8.8" lengthAdjust="spacing" textLength="225.6" x="1178.4" y="606.4539">+createParametercategory(String code, String description)</text><!--MD5=[518e5fdf9468b9088411d87a566311ae]
class LaboratoryStore--><rect fill="#BADFDB" filter="url(#f19b560hjtvd58)" height="38.4" id="LaboratoryStore" rx="8" ry="8" style="stroke:#FFFFFF;stroke-width:1.2000000000000002;" width="95.2" x="1437.2" y="534.5063"/><ellipse cx="1449.2" cy="547.3063" fill="#FFC5A1" rx="8.8" ry="8.8" style="stroke:#FFFFFF;stroke-width:0.8000000000000002;"/><path d="M1450.8,544.5063 Q1450.9625,544.1063 1451.15,543.9063 Q1451.3375,543.7063 1451.55,543.7063 Q1451.925,543.7063 1452.1625,543.9313 Q1452.4,544.1563 1452.4,544.6813 L1452.4,545.9313 Q1452.4,546.4563 1452.175,546.6813 Q1451.95,546.9063 1451.6,546.9063 Q1451.2875,546.9063 1451.0875,546.7688 Q1450.8875,546.6313 1450.8,546.2688 Q1450.7625,546.0188 1450.625,545.8813 Q1450.375,545.6188 1449.925,545.4688 Q1449.475,545.3063 1449.025,545.3063 Q1448.4625,545.3063 1447.9875,545.5313 Q1447.525,545.7563 1447.1625,546.2563 Q1446.8,546.7563 1446.8,547.4438 L1446.8,548.1813 Q1446.8,549.0063 1447.475,549.5563 Q1448.15,550.1063 1449.35,550.1063 Q1450.0625,550.1063 1450.5625,549.9438 Q1450.85,549.8563 1451.175,549.5688 Q1451.3875,549.4063 1451.5,549.3563 Q1451.6125,549.3063 1451.75,549.3063 Q1452.0125,549.3063 1452.2,549.5188 Q1452.4,549.7188 1452.4,550.0063 Q1452.4,550.2813 1452.125,550.6063 Q1451.725,551.0813 1451.0875,551.3438 Q1450.25,551.7063 1449.225,551.7063 Q1448.025,551.7063 1447.0625,551.2313 Q1446.2875,550.8563 1445.7375,550.0438 Q1445.2,549.2313 1445.2,548.2688 L1445.2,547.3938 Q1445.2,546.3938 1445.675,545.5188 Q1446.1625,544.6438 1447,544.1813 Q1447.85,543.7063 1448.8,543.7063 Q1449.375,543.7063 1449.875,543.9063 Q1450.375,544.1063 1450.8,544.5063 Z " fill="#000000"/><text fill="#000000" font-family="sans-serif" font-size="9.6" lengthAdjust="spacing" textLength="69.6" x="1460.4" y="551.2344">LaboratoryStore</text><line style="stroke:#FFFFFF;stroke-width:1.2000000000000002;" x1="1438" x2="1531.6" y1="560.1063" y2="560.1063"/><line style="stroke:#FFFFFF;stroke-width:1.2000000000000002;" x1="1438" x2="1531.6" y1="566.5063" y2="566.5063"/><!--MD5=[1f6362a5c8f21d8d6a0fce68f3a92a4e]
class Parameter--><rect fill="#BADFDB" filter="url(#f19b560hjtvd58)" height="38.4" id="Parameter" rx="8" ry="8" style="stroke:#FFFFFF;stroke-width:1.2000000000000002;" width="72" x="1448" y="790.1063"/><ellipse cx="1460" cy="802.9063" fill="#FFC5A1" rx="8.8" ry="8.8" style="stroke:#FFFFFF;stroke-width:0.8000000000000002;"/><path d="M1461.6,800.1063 Q1461.7625,799.7063 1461.95,799.5063 Q1462.1375,799.3063 1462.35,799.3063 Q1462.725,799.3063 1462.9625,799.5313 Q1463.2,799.7563 1463.2,800.2813 L1463.2,801.5313 Q1463.2,802.0563 1462.975,802.2813 Q1462.75,802.5063 1462.4,802.5063 Q1462.0875,802.5063 1461.8875,802.3688 Q1461.6875,802.2313 1461.6,801.8688 Q1461.5625,801.6188 1461.425,801.4813 Q1461.175,801.2188 1460.725,801.0688 Q1460.275,800.9063 1459.825,800.9063 Q1459.2625,800.9063 1458.7875,801.1313 Q1458.325,801.3563 1457.9625,801.8563 Q1457.6,802.3563 1457.6,803.0438 L1457.6,803.7813 Q1457.6,804.6063 1458.275,805.1563 Q1458.95,805.7063 1460.15,805.7063 Q1460.8625,805.7063 1461.3625,805.5438 Q1461.65,805.4563 1461.975,805.1688 Q1462.1875,805.0063 1462.3,804.9563 Q1462.4125,804.9063 1462.55,804.9063 Q1462.8125,804.9063 1463,805.1188 Q1463.2,805.3188 1463.2,805.6063 Q1463.2,805.8813 1462.925,806.2063 Q1462.525,806.6813 1461.8875,806.9438 Q1461.05,807.3063 1460.025,807.3063 Q1458.825,807.3063 1457.8625,806.8313 Q1457.0875,806.4563 1456.5375,805.6438 Q1456,804.8313 1456,803.8688 L1456,802.9938 Q1456,801.9938 1456.475,801.1188 Q1456.9625,800.2438 1457.8,799.7813 Q1458.65,799.3063 1459.6,799.3063 Q1460.175,799.3063 1460.675,799.5063 Q1461.175,799.7063 1461.6,800.1063 Z " fill="#000000"/><text fill="#000000" font-family="sans-serif" font-size="9.6" lengthAdjust="spacing" textLength="46.4" x="1471.2" y="806.8344">Parameter</text><line style="stroke:#FFFFFF;stroke-width:1.2000000000000002;" x1="1448.8" x2="1519.2" y1="815.7063" y2="815.7063"/><line style="stroke:#FFFFFF;stroke-width:1.2000000000000002;" x1="1448.8" x2="1519.2" y1="822.1063" y2="822.1063"/><!--MD5=[36afb6bbd95a8ac778c4537c55a683d5]
class ParameterCategory--><rect fill="#BADFDB" filter="url(#f19b560hjtvd58)" height="38.4" id="ParameterCategory" rx="8" ry="8" style="stroke:#FFFFFF;stroke-width:1.2000000000000002;" width="111.2" x="1548.4" y="790.1063"/><ellipse cx="1560.4" cy="802.9063" fill="#FFC5A1" rx="8.8" ry="8.8" style="stroke:#FFFFFF;stroke-width:0.8000000000000002;"/><path d="M1562,800.1063 Q1562.1625,799.7063 1562.35,799.5063 Q1562.5375,799.3063 1562.75,799.3063 Q1563.125,799.3063 1563.3625,799.5313 Q1563.6,799.7563 1563.6,800.2813 L1563.6,801.5313 Q1563.6,802.0563 1563.375,802.2813 Q1563.15,802.5063 1562.8,802.5063 Q1562.4875,802.5063 1562.2875,802.3688 Q1562.0875,802.2313 1562,801.8688 Q1561.9625,801.6188 1561.825,801.4813 Q1561.575,801.2188 1561.125,801.0688 Q1560.675,800.9063 1560.225,800.9063 Q1559.6625,800.9063 1559.1875,801.1313 Q1558.725,801.3563 1558.3625,801.8563 Q1558,802.3563 1558,803.0438 L1558,803.7813 Q1558,804.6063 1558.675,805.1563 Q1559.35,805.7063 1560.55,805.7063 Q1561.2625,805.7063 1561.7625,805.5438 Q1562.05,805.4563 1562.375,805.1688 Q1562.5875,805.0063 1562.7,804.9563 Q1562.8125,804.9063 1562.95,804.9063 Q1563.2125,804.9063 1563.4,805.1188 Q1563.6,805.3188 1563.6,805.6063 Q1563.6,805.8813 1563.325,806.2063 Q1562.925,806.6813 1562.2875,806.9438 Q1561.45,807.3063 1560.425,807.3063 Q1559.225,807.3063 1558.2625,806.8313 Q1557.4875,806.4563 1556.9375,805.6438 Q1556.4,804.8313 1556.4,803.8688 L1556.4,802.9938 Q1556.4,801.9938 1556.875,801.1188 Q1557.3625,800.2438 1558.2,799.7813 Q1559.05,799.3063 1560,799.3063 Q1560.575,799.3063 1561.075,799.5063 Q1561.575,799.7063 1562,800.1063 Z " fill="#000000"/><text fill="#000000" font-family="sans-serif" font-size="9.6" lengthAdjust="spacing" textLength="85.6" x="1571.6" y="806.8344">ParameterCategory</text><line style="stroke:#FFFFFF;stroke-width:1.2000000000000002;" x1="1549.2" x2="1658.8" y1="815.7063" y2="815.7063"/><line style="stroke:#FFFFFF;stroke-width:1.2000000000000002;" x1="1549.2" x2="1658.8" y1="822.1063" y2="822.1063"/><!--MD5=[aeb3272166074d8737a70b61b1e71682]
class TestType--><rect fill="#BADFDB" filter="url(#f19b560hjtvd58)" height="38.4" id="TestType" rx="8" ry="8" style="stroke:#FFFFFF;stroke-width:1.2000000000000002;" width="65.6" x="1688" y="790.1063"/><ellipse cx="1700" cy="802.9063" fill="#FFC5A1" rx="8.8" ry="8.8" style="stroke:#FFFFFF;stroke-width:0.8000000000000002;"/><path d="M1701.6,800.1063 Q1701.7625,799.7063 1701.95,799.5063 Q1702.1375,799.3063 1702.35,799.3063 Q1702.725,799.3063 1702.9625,799.5313 Q1703.2,799.7563 1703.2,800.2813 L1703.2,801.5313 Q1703.2,802.0563 1702.975,802.2813 Q1702.75,802.5063 1702.4,802.5063 Q1702.0875,802.5063 1701.8875,802.3688 Q1701.6875,802.2313 1701.6,801.8688 Q1701.5625,801.6188 1701.425,801.4813 Q1701.175,801.2188 1700.725,801.0688 Q1700.275,800.9063 1699.825,800.9063 Q1699.2625,800.9063 1698.7875,801.1313 Q1698.325,801.3563 1697.9625,801.8563 Q1697.6,802.3563 1697.6,803.0438 L1697.6,803.7813 Q1697.6,804.6063 1698.275,805.1563 Q1698.95,805.7063 1700.15,805.7063 Q1700.8625,805.7063 1701.3625,805.5438 Q1701.65,805.4563 1701.975,805.1688 Q1702.1875,805.0063 1702.3,804.9563 Q1702.4125,804.9063 1702.55,804.9063 Q1702.8125,804.9063 1703,805.1188 Q1703.2,805.3188 1703.2,805.6063 Q1703.2,805.8813 1702.925,806.2063 Q1702.525,806.6813 1701.8875,806.9438 Q1701.05,807.3063 1700.025,807.3063 Q1698.825,807.3063 1697.8625,806.8313 Q1697.0875,806.4563 1696.5375,805.6438 Q1696,804.8313 1696,803.8688 L1696,802.9938 Q1696,801.9938 1696.475,801.1188 Q1696.9625,800.2438 1697.8,799.7813 Q1698.65,799.3063 1699.6,799.3063 Q1700.175,799.3063 1700.675,799.5063 Q1701.175,799.7063 1701.6,800.1063 Z " fill="#000000"/><text fill="#000000" font-family="sans-serif" font-size="9.6" lengthAdjust="spacing" textLength="40" x="1711.2" y="806.8344">TestType</text><line style="stroke:#FFFFFF;stroke-width:1.2000000000000002;" x1="1688.8" x2="1752.8" y1="815.7063" y2="815.7063"/><line style="stroke:#FFFFFF;stroke-width:1.2000000000000002;" x1="1688.8" x2="1752.8" y1="822.1063" y2="822.1063"/><!--MD5=[0caf3a413731a0de34fc6162fe213ed9]
class Laboratory--><rect fill="#BADFDB" filter="url(#f19b560hjtvd58)" height="38.4" id="Laboratory" rx="8" ry="8" style="stroke:#FFFFFF;stroke-width:1.2000000000000002;" width="72" x="1781.6" y="790.1063"/><ellipse cx="1793.6" cy="802.9063" fill="#FFC5A1" rx="8.8" ry="8.8" style="stroke:#FFFFFF;stroke-width:0.8000000000000002;"/><path d="M1795.2,800.1063 Q1795.3625,799.7063 1795.55,799.5063 Q1795.7375,799.3063 1795.95,799.3063 Q1796.325,799.3063 1796.5625,799.5313 Q1796.8,799.7563 1796.8,800.2813 L1796.8,801.5313 Q1796.8,802.0563 1796.575,802.2813 Q1796.35,802.5063 1796,802.5063 Q1795.6875,802.5063 1795.4875,802.3688 Q1795.2875,802.2313 1795.2,801.8688 Q1795.1625,801.6188 1795.025,801.4813 Q1794.775,801.2188 1794.325,801.0688 Q1793.875,800.9063 1793.425,800.9063 Q1792.8625,800.9063 1792.3875,801.1313 Q1791.925,801.3563 1791.5625,801.8563 Q1791.2,802.3563 1791.2,803.0438 L1791.2,803.7813 Q1791.2,804.6063 1791.875,805.1563 Q1792.55,805.7063 1793.75,805.7063 Q1794.4625,805.7063 1794.9625,805.5438 Q1795.25,805.4563 1795.575,805.1688 Q1795.7875,805.0063 1795.9,804.9563 Q1796.0125,804.9063 1796.15,804.9063 Q1796.4125,804.9063 1796.6,805.1188 Q1796.8,805.3188 1796.8,805.6063 Q1796.8,805.8813 1796.525,806.2063 Q1796.125,806.6813 1795.4875,806.9438 Q1794.65,807.3063 1793.625,807.3063 Q1792.425,807.3063 1791.4625,806.8313 Q1790.6875,806.4563 1790.1375,805.6438 Q1789.6,804.8313 1789.6,803.8688 L1789.6,802.9938 Q1789.6,801.9938 1790.075,801.1188 Q1790.5625,800.2438 1791.4,799.7813 Q1792.25,799.3063 1793.2,799.3063 Q1793.775,799.3063 1794.275,799.5063 Q1794.775,799.7063 1795.2,800.1063 Z " fill="#000000"/><text fill="#000000" font-family="sans-serif" font-size="9.6" lengthAdjust="spacing" textLength="46.4" x="1804.8" y="806.8344">Laboratory</text><line style="stroke:#FFFFFF;stroke-width:1.2000000000000002;" x1="1782.4" x2="1852.8" y1="815.7063" y2="815.7063"/><line style="stroke:#FFFFFF;stroke-width:1.2000000000000002;" x1="1782.4" x2="1852.8" y1="822.1063" y2="822.1063"/><!--MD5=[09366576ee87d48d594df10cacc83f45]
link Company to Employee--><path codeLine="114" d="M726.744,285.5383 C605.296,298.3783 195.384,347.1383 96.8,429.3063 C79.336,443.8663 67.52,465.2423 59.576,486.1463 " fill="none" id="Company-to-Employee" style="stroke:#FFC5A1;stroke-width:0.8000000000000002;stroke-dasharray:7.0,7.0;"/><polygon fill="#FFC5A1" points="58.136,490.0423,63.6302,484.3948,59.5204,486.2895,57.6257,482.1797,58.136,490.0423" style="stroke:#FFC5A1;stroke-width:0.8000000000000002;"/><polygon fill="#000000" points="245.7694,374.5987,253.376,374.7666,252.022,370.2635,245.7694,374.5987" style="stroke:#000000;stroke-width:0.8000000000000002;"/><text fill="#000000" font-family="sans-serif" font-size="10.4" lengthAdjust="spacing" textLength="50.4" x="256.8" y="377.7023">employees</text><text fill="#000000" font-family="sans-serif" font-size="10.4" lengthAdjust="spacing" textLength="5.6" x="714.8094" y="283.1972">1</text><text fill="#000000" font-family="sans-serif" font-size="10.4" lengthAdjust="spacing" textLength="4" x="55.2927" y="481.3857">*</text><!--MD5=[7e4bc624457760b649895ff2ead938fa]
link Company to Test--><path codeLine="115" d="M726.688,288.2183 C684.56,297.9703 618.4,321.4103 618.4,372.5063 C618.4,372.5063 618.4,372.5063 618.4,878.1063 C618.4,930.6583 1469.92,956.8023 1634.904,961.3703 " fill="none" id="Company-to-Test" style="stroke:#FFC5A1;stroke-width:0.8000000000000002;stroke-dasharray:7.0,7.0;"/><polygon fill="#FFC5A1" points="1639.128,961.4903,1632.0126,958.1062,1635.1293,961.3874,1631.8481,964.5041,1639.128,961.4903" style="stroke:#FFC5A1;stroke-width:0.8000000000000002;"/><polygon fill="#000000" points="625.6136,736.6287,621.2002,730.4311,618.4002,734.2088,625.6136,736.6287" style="stroke:#000000;stroke-width:0.8000000000000002;"/><text fill="#000000" font-family="sans-serif" font-size="10.4" lengthAdjust="spacing" textLength="40" x="629.6" y="738.5023">performs</text><text fill="#000000" font-family="sans-serif" font-size="10.4" lengthAdjust="spacing" textLength="5.6" x="714.7438" y="301.3378">1</text><text fill="#000000" font-family="sans-serif" font-size="10.4" lengthAdjust="spacing" textLength="4" x="1628.6521" y="957.57">*</text><!--MD5=[3994f36c72829dbcddd1cf7021dddf61]
link Test to Client--><path codeLine="116" d="M1662.4,998.9223 C1662.4,1025.2023 1662.4,1061.7783 1662.4,1092.8583 " fill="none" id="Test-to-Client" style="stroke:#FFC5A1;stroke-width:0.8000000000000002;stroke-dasharray:7.0,7.0;"/><polygon fill="#FFC5A1" points="1662.4,1097.0103,1665.6,1089.8103,1662.4,1093.0103,1659.2,1089.8103,1662.4,1097.0103" style="stroke:#FFC5A1;stroke-width:0.8000000000000002;"/><text fill="#000000" font-family="sans-serif" font-size="10.4" lengthAdjust="spacing" textLength="5.6" x="1656.4063" y="1015.7306">1</text><text fill="#000000" font-family="sans-serif" font-size="10.4" lengthAdjust="spacing" textLength="4" x="1658.2031" y="1088.6575">*</text><!--MD5=[e643b7f3b63bf26fa8e6d8d6fc6425c2]
link ImportTestsUI to ImportTestController--><path codeLine="118" d="M1759.2,147.1462 C1759.2,170.4343 1759.2,210.9143 1759.2,241.1783 " fill="none" id="ImportTestsUI-to-ImportTestController" style="stroke:#FFC5A1;stroke-width:0.8000000000000002;stroke-dasharray:7.0,7.0;"/><polygon fill="#FFC5A1" points="1759.2,245.1942,1762.4,237.9942,1759.2,241.1942,1756,237.9942,1759.2,245.1942" style="stroke:#FFC5A1;stroke-width:0.8000000000000002;"/><!--MD5=[db288e53b846739a919956dea1790a29]
link ImportTestController to TestStore--><path codeLine="119" d="M1759.2,317.5063 C1759.2,345.2263 1759.2,385.5863 1759.2,425.0823 " fill="none" id="ImportTestController-to-TestStore" style="stroke:#FFC5A1;stroke-width:0.8000000000000002;stroke-dasharray:7.0,7.0;"/><polygon fill="#FFC5A1" points="1759.2,429.1463,1762.4,421.9463,1759.2,425.1463,1756,421.9463,1759.2,429.1463" style="stroke:#FFC5A1;stroke-width:0.8000000000000002;"/><!--MD5=[7f6cf7f175eae0af66201860de5de971]
link Company to TestStore--><path codeLine="121" d="M795.16,283.4823 C907.472,289.0103 1272.24,315.2103 1546.4,429.3063 C1549.8,430.7223 1553.216,432.1863 1556.64,433.6823 " fill="none" id="Company-to-TestStore" style="stroke:#FFC5A1;stroke-width:0.8000000000000002;stroke-dasharray:7.0,7.0;"/><polygon fill="#FFC5A1" points="1560.36,435.3303,1555.0768,429.4849,1556.7038,433.7078,1552.4809,435.3348,1560.36,435.3303" style="stroke:#FFC5A1;stroke-width:0.8000000000000002;"/><!--MD5=[141c3afa12b2b3c0a39ffce56dbd5f19]
link Company to TestTypeStore--><path codeLine="122" d="M773.44,306.1383 C794.488,346.1623 837.44,427.8503 868.16,486.2743 " fill="none" id="Company-to-TestTypeStore" style="stroke:#FFC5A1;stroke-width:0.8000000000000002;stroke-dasharray:7.0,7.0;"/><polygon fill="#FFC5A1" points="870.168,490.0903,869.6495,482.2282,868.3064,486.5498,863.9848,485.2068,870.168,490.0903" style="stroke:#FFC5A1;stroke-width:0.8000000000000002;"/><!--MD5=[daf3d7412afa2c7651483be0b6e971d1]
link Company to ParameterStore--><path codeLine="123" d="M726.76,289.0903 C653.616,305.1703 477.864,349.6743 351.2,429.3063 C316.76,450.9623 283.984,483.1863 260.328,509.3063 " fill="none" id="Company-to-ParameterStore" style="stroke:#FFC5A1;stroke-width:0.8000000000000002;stroke-dasharray:7.0,7.0;"/><polygon fill="#FFC5A1" points="257.496,512.4583,264.6979,509.2625,260.1782,509.4908,259.9499,504.971,257.496,512.4583" style="stroke:#FFC5A1;stroke-width:0.8000000000000002;"/><!--MD5=[d53d7490e5836ca5709858d7326f212b]
link Company to ParameterCategoryStore--><path codeLine="124" d="M794.832,289.7943 C866.304,306.9543 1035.608,352.9783 1159.2,429.3063 C1187.192,446.5943 1214.384,470.4423 1236.744,492.5783 " fill="none" id="Company-to-ParameterCategoryStore" style="stroke:#FFC5A1;stroke-width:0.8000000000000002;stroke-dasharray:7.0,7.0;"/><polygon fill="#FFC5A1" points="1239.728,495.5463,1236.8847,488.1981,1236.8939,492.7235,1232.3684,492.7327,1239.728,495.5463" style="stroke:#FFC5A1;stroke-width:0.8000000000000002;"/><!--MD5=[a11230341c8e65219708844feaa40162]
link Company to ClientStore--><path codeLine="125" d="M726.52,287.5703 C690.976,294.7143 635.416,310.1783 597.6,341.3063 C545.216,384.4343 508.976,455.1303 488.952,502.8183 " fill="none" id="Company-to-ClientStore" style="stroke:#FFC5A1;stroke-width:0.8000000000000002;stroke-dasharray:7.0,7.0;"/><polygon fill="#FFC5A1" points="487.296,506.7783,493.025,501.3692,488.8385,503.0876,487.12,498.9011,487.296,506.7783" style="stroke:#FFC5A1;stroke-width:0.8000000000000002;"/><!--MD5=[d7c4dd6b895bcb84b6f951cc70da4c46]
link Company to LaboratoryStore--><path codeLine="126" d="M794.96,285.8343 C915.856,299.5943 1321.568,350.8743 1422.4,429.3063 C1455.224,454.8343 1472.176,502.3063 1479.728,530.4023 " fill="none" id="Company-to-LaboratoryStore" style="stroke:#FFC5A1;stroke-width:0.8000000000000002;stroke-dasharray:7.0,7.0;"/><polygon fill="#FFC5A1" points="1480.768,534.4023,1482.0507,526.6283,1479.7602,530.5313,1475.8572,528.2408,1480.768,534.4023" style="stroke:#FFC5A1;stroke-width:0.8000000000000002;"/><!--MD5=[b0f4f6db8206580012ef9cd998ed01c5]
link TestStore to Test--><path codeLine="128" d="M1882.76,678.3303 C1890.936,695.5943 1896,714.0583 1896,733.3063 C1896,733.3063 1896,733.3063 1896,878.1063 C1896,921.4583 1751.744,948.5463 1689.952,958.1623 " fill="none" id="TestStore-to-Test" style="stroke:#FFC5A1;stroke-width:0.8000000000000002;stroke-dasharray:7.0,7.0;"/><polygon fill="#FFC5A1" points="1685.656,958.8263,1693.2575,960.8992,1689.6099,958.2206,1692.2885,954.573,1685.656,958.8263" style="stroke:#FFC5A1;stroke-width:0.8000000000000002;"/><!--MD5=[f7c13b4f13779ec968ecf1961f1783ca]
link TestStore to Parameter--><path codeLine="129" d="M1625.224,678.1543 C1579.776,720.1063 1533.8,762.5383 1507.152,787.1383 " fill="none" id="TestStore-to-Parameter" style="stroke:#FFC5A1;stroke-width:0.8000000000000002;stroke-dasharray:7.0,7.0;"/><polygon fill="#FFC5A1" points="1503.992,790.0503,1511.4539,787.5204,1506.9321,787.3381,1507.1144,782.8163,1503.992,790.0503" style="stroke:#FFC5A1;stroke-width:0.8000000000000002;"/><!--MD5=[6d8aa9bdd540c839176ad573f737d8e5]
link TestStore to ParameterCategory--><path codeLine="130" d="M1683.648,678.1543 C1658.224,719.7623 1632.504,761.8503 1617.424,786.5383 " fill="none" id="TestStore-to-ParameterCategory" style="stroke:#FFC5A1;stroke-width:0.8000000000000002;stroke-dasharray:7.0,7.0;"/><polygon fill="#FFC5A1" points="1615.28,790.0503,1621.768,785.5796,1617.3681,786.6385,1616.3092,782.2387,1615.28,790.0503" style="stroke:#FFC5A1;stroke-width:0.8000000000000002;"/><!--MD5=[6aa7a76d72b567a81c20592c0356475d]
link TestStore to TestType--><path codeLine="131" d="M1740.504,678.1543 C1734.264,719.4263 1727.96,761.1623 1724.216,785.9303 " fill="none" id="TestStore-to-TestType" style="stroke:#FFC5A1;stroke-width:0.8000000000000002;stroke-dasharray:7.0,7.0;"/><polygon fill="#FFC5A1" points="1723.592,790.0503,1727.8237,783.404,1724.1848,786.0944,1721.4944,782.4555,1723.592,790.0503" style="stroke:#FFC5A1;stroke-width:0.8000000000000002;"/><!--MD5=[e52152a17d3c9b5f3b1a0a89dff000bf]
link TestStore to Laboratory--><path codeLine="132" d="M1787.632,678.1543 C1797.12,719.4263 1806.712,761.1623 1812.408,785.9303 " fill="none" id="TestStore-to-Laboratory" style="stroke:#FFC5A1;stroke-width:0.8000000000000002;stroke-dasharray:7.0,7.0;"/><polygon fill="#FFC5A1" points="1813.36,790.0503,1814.874,782.318,1812.4681,786.151,1808.6351,783.7451,1813.36,790.0503" style="stroke:#FFC5A1;stroke-width:0.8000000000000002;"/><!--MD5=[ef52b2503fbe33fe654db1d407f826ff]
link ParameterCategory to Test--><path codeLine="134" d="M1611.16,828.7463 C1620.112,852.0343 1635.664,892.5143 1647.288,922.7783 " fill="none" id="ParameterCategory-to-Test" style="stroke:#FFC5A1;stroke-width:0.8000000000000002;stroke-dasharray:7.0,7.0;"/><polygon fill="#FFC5A1" points="1648.832,926.7943,1649.2292,918.9252,1647.3938,923.0618,1643.2572,921.2263,1648.832,926.7943" style="stroke:#FFC5A1;stroke-width:0.8000000000000002;"/><!--MD5=[4265453a012991a726928e22789b8a83]
link Parameter to Test--><path codeLine="135" d="M1505.872,828.7463 C1538.664,856.6743 1600.456,909.3303 1635.8,939.4423 " fill="none" id="Parameter-to-Test" style="stroke:#FFC5A1;stroke-width:0.8000000000000002;stroke-dasharray:7.0,7.0;"/><polygon fill="#FFC5A1" points="1638.928,942.1063,1635.5284,934.9983,1635.8853,939.5097,1631.3739,939.8666,1638.928,942.1063" style="stroke:#FFC5A1;stroke-width:0.8000000000000002;"/><!--MD5=[c2c6b28b052a3fe86d789b83a09b2815]
link TestType to Test--><path codeLine="136" d="M1713.64,828.7463 C1704.688,852.0343 1689.136,892.5143 1677.512,922.7783 " fill="none" id="TestType-to-Test" style="stroke:#FFC5A1;stroke-width:0.8000000000000002;stroke-dasharray:7.0,7.0;"/><polygon fill="#FFC5A1" points="1675.968,926.7943,1681.5428,921.2263,1677.4062,923.0618,1675.5708,918.9252,1675.968,926.7943" style="stroke:#FFC5A1;stroke-width:0.8000000000000002;"/><!--MD5=[3b228814ae8592c57550ec38d843366c]
link Laboratory to Test--><path codeLine="137" d="M1798.568,828.7463 C1770.968,855.7783 1719.728,905.9543 1688.584,936.4583 " fill="none" id="Laboratory-to-Test" style="stroke:#FFC5A1;stroke-width:0.8000000000000002;stroke-dasharray:7.0,7.0;"/><polygon fill="#FFC5A1" points="1685.632,939.3543,1693.0141,936.6002,1688.4889,936.5545,1688.5346,932.0293,1685.632,939.3543" style="stroke:#FFC5A1;stroke-width:0.8000000000000002;"/><!--MD5=[608ef49b674f3a5e20d05e1edc74066c]
@startuml
' ======= layout =========
skinparam backgroundColor #fcf9ea
skinparam titleBorderRoundCorner 15
skinparam titleFontSize 30
skinparam classAttributeIconSize 0
skinparam titleFontName Arial Black
skinparam titleFontColor #f8a978
skinparam roundcorner 20
skinparam stereotypeCBackgroundColor ffc5a1
skinparam class {

ArrowColor ffc5a1
BorderColor White
BackgroundColor badfdb
}


' ======= title =========
center header


<font color=Black size=15><b>Built by WeByte ©</font>
endheader
title <b>US17 - Class Diagram\n

' ======= classes =========
class TestStore{
-testList
-valueMaxForCovidTest
-getHistoryOfPointsSimpleWeek(numberOfHistoricalPoints,  dateToday, regression, nhsReportDTO)
-getHistoryOfPointsSimpleDays( numberOfHistoricalPoints, DateToday,  regressionr,  nhsReportDTO)
-getHistoryOfPointsMultiLinearDays(inumberOfHistoricalPoints, regression,  nhsReportDTO)
-getHistoryOfPointsMultiLinearWeeks(inumberOfHistoricalPoints, DateToday, regression)
+double[] value = getXListNumberTestsByWeek(lowerLimitDate, upperLimitDate, testList)
+double[] value = getXListAgesByWeek(lowerLimitDate, upperLimitDate)
+getNumberPositiveCasesOnDate(date, testsMadeInInterval)
+double[] value = getYListWeek(lowerLimitDate, upperLimitDate)
+double[] value = getYList(lowerLimitDate, upperLimitDate, testsMadeInInterval)
+double[] value = getXlistNumberTestPerDay(lowerLimitDate, upperLimitDate, testsMadeInInterval)
+double[] value = getXListAges(lowerLimitDate, upperLimitDate)
+getMeanAgesPerDay(lowerLimitDate, upperLimitDate)
+getMeanAgesPerWeek(lowerLimitDate, upperLimitDate)
+getNumberTestsMadeOnDate(date, testList)
+getMeanAgesOfTestsMade(date)
+getCovidTestsForRegression(lowerLimitDate, upperLimitDate)
+getTableWithHistoricalDataToSendNHS( regression, nhsReportDTO)
}
class Employee{
- username
- employeeId
- organizationRole
- name
- address
- phoneNumber
- e-Mail
- socCode
}
class Company{
- designation
}
class ImportTestsUI{
}
class ImportTestController{
+getFiles()
+getTestDTOList()
+getTestList(String filename)
}
class ParameterStore {
   +createParameter(id, designation, category, description)
   +validateParameter(par)
   +saveParameter(par)
   +addParameter(par)
}
class ClientStore{
 + createNewClient(citizenCardNumber, nhsNumber,\n birthDate, sex, tin, phoneNumber, e-mail and name.)
 + validateClient(c)
 + saveClient(c)
 - addClient(c)
}
class Test{
-code
-nhscode
-date
}
class TestTypeStore{
+createTestType(String code, String description, String collectingMethod, List<ParameterCategory> parameterCategoryList)
+validateTest(TestType testType)
+saveTest(TestType testType)
+addTestType(TestType testType)
+getTestTypes()
+getTestTypeByCodes(List<String> testTypeCodes)
+getTestTypeByName(String name)
+getListOfTestType()
}
class Client{
- nhsNumber
- birthDate
- sex
- tin
- phoneNumber
- e-mail
- name
}
class ParameterCategoryStore{
+ createParameterCategoryCode(String description)
+ getParameterCategoryList()
+ add(ParameterCategory category)
+ getParameterCategoryByDescription(String description)
+ saveParameterCategory(ParameterCategory pc)
+ validateParameterCategory(ParameterCategory pc)
+ createParametercategory(String code, String description)
}

Company "1" ..-> "*" Employee : employees >
Company "1" ..-> "*" Test : performs >
Test "1" ..-> "*" Client

ImportTestsUI ..-> ImportTestController
ImportTestController ..-> TestStore

Company ..-> TestStore
Company ..-> TestTypeStore
Company ..-> ParameterStore
Company ..-> ParameterCategoryStore
Company ..-> ClientStore
Company ..-> LaboratoryStore

TestStore ..-> Test
TestStore ..-> Parameter
TestStore ..-> ParameterCategory
TestStore ..-> TestType
TestStore ..-> Laboratory

ParameterCategory ..-> Test
Parameter ..-> Test
TestType ..-> Test
Laboratory ..-> Test

@enduml

@startuml
skinparam backgroundColor #fcf9ea
skinparam titleBorderRoundCorner 15
skinparam titleFontSize 30
skinparam classAttributeIconSize 0
skinparam titleFontName Arial Black
skinparam titleFontColor #f8a978
skinparam roundcorner 20
skinparam stereotypeCBackgroundColor ffc5a1
skinparam class {

ArrowColor ffc5a1
BorderColor White
BackgroundColor badfdb
}


center header


<font color=Black size=15><b>Built by WeByte ©</font>
endheader
title <b>US17 - Class Diagram\n

class TestStore{
-testList
-valueMaxForCovidTest
-getHistoryOfPointsSimpleWeek(numberOfHistoricalPoints,  dateToday, regression, nhsReportDTO)
-getHistoryOfPointsSimpleDays( numberOfHistoricalPoints, DateToday,  regressionr,  nhsReportDTO)
-getHistoryOfPointsMultiLinearDays(inumberOfHistoricalPoints, regression,  nhsReportDTO)
-getHistoryOfPointsMultiLinearWeeks(inumberOfHistoricalPoints, DateToday, regression)
+double[] value = getXListNumberTestsByWeek(lowerLimitDate, upperLimitDate, testList)
+double[] value = getXListAgesByWeek(lowerLimitDate, upperLimitDate)
+getNumberPositiveCasesOnDate(date, testsMadeInInterval)
+double[] value = getYListWeek(lowerLimitDate, upperLimitDate)
+double[] value = getYList(lowerLimitDate, upperLimitDate, testsMadeInInterval)
+double[] value = getXlistNumberTestPerDay(lowerLimitDate, upperLimitDate, testsMadeInInterval)
+double[] value = getXListAges(lowerLimitDate, upperLimitDate)
+getMeanAgesPerDay(lowerLimitDate, upperLimitDate)
+getMeanAgesPerWeek(lowerLimitDate, upperLimitDate)
+getNumberTestsMadeOnDate(date, testList)
+getMeanAgesOfTestsMade(date)
+getCovidTestsForRegression(lowerLimitDate, upperLimitDate)
+getTableWithHistoricalDataToSendNHS( regression, nhsReportDTO)
}
class Employee{
- username
- employeeId
- organizationRole
- name
- address
- phoneNumber
- e-Mail
- socCode
}
class Company{
- designation
}
class ImportTestsUI{
}
class ImportTestController{
+getFiles()
+getTestDTOList()
+getTestList(String filename)
}
class ParameterStore {
   +createParameter(id, designation, category, description)
   +validateParameter(par)
   +saveParameter(par)
   +addParameter(par)
}
class ClientStore{
 + createNewClient(citizenCardNumber, nhsNumber,\n birthDate, sex, tin, phoneNumber, e-mail and name.)
 + validateClient(c)
 + saveClient(c)
 - addClient(c)
}
class Test{
-code
-nhscode
-date
}
class TestTypeStore{
+createTestType(String code, String description, String collectingMethod, List<ParameterCategory> parameterCategoryList)
+validateTest(TestType testType)
+saveTest(TestType testType)
+addTestType(TestType testType)
+getTestTypes()
+getTestTypeByCodes(List<String> testTypeCodes)
+getTestTypeByName(String name)
+getListOfTestType()
}
class Client{
- nhsNumber
- birthDate
- sex
- tin
- phoneNumber
- e-mail
- name
}
class ParameterCategoryStore{
+ createParameterCategoryCode(String description)
+ getParameterCategoryList()
+ add(ParameterCategory category)
+ getParameterCategoryByDescription(String description)
+ saveParameterCategory(ParameterCategory pc)
+ validateParameterCategory(ParameterCategory pc)
+ createParametercategory(String code, String description)
}

Company "1" ..-> "*" Employee : employees >
Company "1" ..-> "*" Test : performs >
Test "1" ..-> "*" Client

ImportTestsUI ..-> ImportTestController
ImportTestController ..-> TestStore

Company ..-> TestStore
Company ..-> TestTypeStore
Company ..-> ParameterStore
Company ..-> ParameterCategoryStore
Company ..-> ClientStore
Company ..-> LaboratoryStore

TestStore ..-> Test
TestStore ..-> Parameter
TestStore ..-> ParameterCategory
TestStore ..-> TestType
TestStore ..-> Laboratory

ParameterCategory ..-> Test
Parameter ..-> Test
TestType ..-> Test
Laboratory ..-> Test

@enduml

PlantUML version 1.2021.7(Sun May 23 13:40:07 BST 2021)
(GPL source distribution)
Java Runtime: OpenJDK Runtime Environment
JVM: Dynamic Code Evolution 64-Bit Server VM
Default Encoding: Cp1252
Language: pt
Country: PT
--></g></svg>