<?xml version="1.0" encoding="UTF-8" standalone="no"?><svg xmlns="http://www.w3.org/2000/svg" xmlns:xlink="http://www.w3.org/1999/xlink" contentScriptType="application/ecmascript" contentStyleType="text/css" height="690px" preserveAspectRatio="none" style="width:814px;height:690px;background:#FCF9EA;" version="1.1" viewBox="0 0 814 690" width="814px" zoomAndPan="magnify"><defs><filter height="300%" id="f11qt381nwkpfk" width="300%" x="-1" y="-1"><feGaussianBlur result="blurOut" stdDeviation="2.0"/><feColorMatrix in="blurOut" result="blurOut2" type="matrix" values="0 0 0 0 0 0 0 0 0 0 0 0 0 0 0 0 0 0 .4 0"/><feOffset dx="4.0" dy="4.0" in="blurOut2" result="blurOut3"/><feBlend in="SourceGraphic" in2="blurOut3" mode="normal"/></filter></defs><g><text fill="#F8A978" font-family="Arial Black" font-size="30" font-weight="bold" lengthAdjust="spacing" textLength="369" x="221.5" y="92.041">SEQUENCE DIAGRAM</text><text fill="#F8A978" font-family="Arial Black" font-size="30" lengthAdjust="spacing" textLength="0" x="411" y="134.3457"/><rect fill="#FFFFFF" filter="url(#f11qt381nwkpfk)" height="412.1641" style="stroke:#A80036;stroke-width:1.0;" width="10" x="180" y="224.5938"/><rect fill="#FFFFFF" filter="url(#f11qt381nwkpfk)" height="28" style="stroke:#A80036;stroke-width:1.0;" width="10" x="185" y="423.3516"/><rect fill="#FCF9EA" filter="url(#f11qt381nwkpfk)" height="384.1641" rx="10" ry="10" style="stroke:#000000;stroke-width:2.0;" width="295" x="119" y="244.5938"/><rect fill="#FCF9EA" filter="url(#f11qt381nwkpfk)" height="148.4063" rx="10" ry="10" style="stroke:#000000;stroke-width:2.0;" width="275" x="129" y="473.3516"/><line style="stroke:#A80036;stroke-width:1.0;stroke-dasharray:5.0,5.0;" x1="185" x2="185" y1="187.2422" y2="645.7578"/><rect fill="#FEFECE" filter="url(#f11qt381nwkpfk)" height="31.6094" rx="10" ry="10" style="stroke:#A80036;stroke-width:1.5;" width="88" x="139" y="150.6328"/><text fill="#000000" font-family="sans-serif" font-size="14" lengthAdjust="spacing" textLength="70" x="150" y="172.166">:MergeSort</text><rect fill="#FEFECE" filter="url(#f11qt381nwkpfk)" height="31.6094" rx="10" ry="10" style="stroke:#A80036;stroke-width:1.5;" width="88" x="139" y="644.7578"/><text fill="#000000" font-family="sans-serif" font-size="14" lengthAdjust="spacing" textLength="70" x="150" y="666.291">:MergeSort</text><rect fill="#FFFFFF" filter="url(#f11qt381nwkpfk)" height="412.1641" style="stroke:#A80036;stroke-width:1.0;" width="10" x="180" y="224.5938"/><rect fill="#FFFFFF" filter="url(#f11qt381nwkpfk)" height="28" style="stroke:#A80036;stroke-width:1.0;" width="10" x="185" y="423.3516"/><ellipse cx="7.5" cy="223.8438" rx="4" ry="4" style="stroke:#FFC5A1;stroke-width:1.5;fill:none;"/><polygon fill="#FFC5A1" points="168,220.5938,178,224.5938,168,228.5938,172,224.5938" style="stroke:#FFC5A1;stroke-width:1.0;"/><line style="stroke:#FFC5A1;stroke-width:1.0;" x1="12" x2="174" y1="224.5938" y2="224.5938"/><text fill="#000000" font-family="sans-serif" font-size="13" font-weight="bold" lengthAdjust="spacing" textLength="7" x="15" y="219.7373">1</text><text fill="#000000" font-family="sans-serif" font-size="13" lengthAdjust="spacing" textLength="142" x="26" y="219.7373">array= sort(String[]array)</text><path d="M195,212.2422 L195,218.2422 A10,10 0 0 0 205,228.2422 L785,228.2422 A10,10 0 0 0 795,218.2422 L795,212.2422 L785,202.2422 L205,202.2422 A10,10 0 0 0 195,212.2422 " fill="#FBFB77" filter="url(#f11qt381nwkpfk)" style="stroke:#A80036;stroke-width:1.0;"/><path d="M785,202.2422 L785,207.2422 A5,5 0 0 0 790,212.2422 L795,212.2422 L785,202.2422 " fill="#FBFB77" style="stroke:#A80036;stroke-width:1.0;"/><text fill="#000000" font-family="sans-serif" font-size="13" lengthAdjust="spacing" textLength="579" x="201" y="220.7373">String[]array contains name and tin of client or it contais the other way around, ordering from the first</text><path d="M129,244.5938 L184,244.5938 L184,252.5938 L174,262.5938 L119,262.5938 L119,254.5938 " fill="#EEEEEE" style="stroke:#000000;stroke-width:1.0;"/><rect fill="none" height="384.1641" rx="10" ry="10" style="stroke:#000000;stroke-width:2.0;" width="295" x="119" y="244.5938"/><text fill="#000000" font-family="sans-serif" font-size="13" font-weight="bold" lengthAdjust="spacing" textLength="20" x="134" y="259.0889">opt</text><text fill="#000000" font-family="sans-serif" font-size="11" font-weight="bold" lengthAdjust="spacing" textLength="121" x="199" y="258.0127">[order by tin or name]</text><line style="stroke:#FFC5A1;stroke-width:1.0;" x1="190" x2="232" y1="285.2969" y2="285.2969"/><line style="stroke:#FFC5A1;stroke-width:1.0;" x1="232" x2="232" y1="285.2969" y2="298.2969"/><line style="stroke:#FFC5A1;stroke-width:1.0;" x1="191" x2="232" y1="298.2969" y2="298.2969"/><polygon fill="#FFC5A1" points="201,294.2969,191,298.2969,201,302.2969,197,298.2969" style="stroke:#FFC5A1;stroke-width:1.0;"/><text fill="#000000" font-family="sans-serif" font-size="13" font-weight="bold" lengthAdjust="spacing" textLength="7" x="197" y="280.4404">2</text><text fill="#000000" font-family="sans-serif" font-size="13" lengthAdjust="spacing" textLength="48" x="208" y="280.4404">from = 0</text><line style="stroke:#FFC5A1;stroke-width:1.0;" x1="190" x2="232" y1="328.6484" y2="328.6484"/><line style="stroke:#FFC5A1;stroke-width:1.0;" x1="232" x2="232" y1="328.6484" y2="341.6484"/><line style="stroke:#FFC5A1;stroke-width:1.0;" x1="191" x2="232" y1="341.6484" y2="341.6484"/><polygon fill="#FFC5A1" points="201,337.6484,191,341.6484,201,345.6484,197,341.6484" style="stroke:#FFC5A1;stroke-width:1.0;"/><text fill="#000000" font-family="sans-serif" font-size="13" font-weight="bold" lengthAdjust="spacing" textLength="7" x="197" y="323.792">3</text><text fill="#000000" font-family="sans-serif" font-size="13" lengthAdjust="spacing" textLength="114" x="208" y="323.792">to = array[].length-1</text><line style="stroke:#FFC5A1;stroke-width:1.0;" x1="190" x2="232" y1="372" y2="372"/><line style="stroke:#FFC5A1;stroke-width:1.0;" x1="232" x2="232" y1="372" y2="385"/><line style="stroke:#FFC5A1;stroke-width:1.0;" x1="191" x2="232" y1="385" y2="385"/><polygon fill="#FFC5A1" points="201,381,191,385,201,389,197,385" style="stroke:#FFC5A1;stroke-width:1.0;"/><text fill="#000000" font-family="sans-serif" font-size="13" font-weight="bold" lengthAdjust="spacing" textLength="7" x="197" y="367.1436">4</text><text fill="#000000" font-family="sans-serif" font-size="13" lengthAdjust="spacing" textLength="100" x="208" y="367.1436">mid = (from+to)/2</text><line style="stroke:#FFC5A1;stroke-width:1.0;" x1="195" x2="237" y1="415.3516" y2="415.3516"/><line style="stroke:#FFC5A1;stroke-width:1.0;" x1="237" x2="237" y1="415.3516" y2="428.3516"/><line style="stroke:#FFC5A1;stroke-width:1.0;" x1="196" x2="237" y1="428.3516" y2="428.3516"/><polygon fill="#FFC5A1" points="206,424.3516,196,428.3516,206,432.3516,202,428.3516" style="stroke:#FFC5A1;stroke-width:1.0;"/><text fill="#000000" font-family="sans-serif" font-size="13" font-weight="bold" lengthAdjust="spacing" textLength="7" x="202" y="410.4951">5</text><text fill="#000000" font-family="sans-serif" font-size="13" lengthAdjust="spacing" textLength="158" x="213" y="410.4951">merge(array[], from, mid,to)</text><path d="M139,473.3516 L194,473.3516 L194,481.3516 L184,491.3516 L129,491.3516 L129,483.3516 " fill="#EEEEEE" style="stroke:#000000;stroke-width:1.0;"/><rect fill="none" height="148.4063" rx="10" ry="10" style="stroke:#000000;stroke-width:2.0;" width="275" x="129" y="473.3516"/><text fill="#000000" font-family="sans-serif" font-size="13" font-weight="bold" lengthAdjust="spacing" textLength="20" x="144" y="487.8467">opt</text><text fill="#000000" font-family="sans-serif" font-size="11" font-weight="bold" lengthAdjust="spacing" textLength="55" x="209" y="486.7705">[from!=to]</text><line style="stroke:#FFC5A1;stroke-width:1.0;" x1="190" x2="232" y1="514.0547" y2="514.0547"/><line style="stroke:#FFC5A1;stroke-width:1.0;" x1="232" x2="232" y1="514.0547" y2="527.0547"/><line style="stroke:#FFC5A1;stroke-width:1.0;" x1="191" x2="232" y1="527.0547" y2="527.0547"/><polygon fill="#FFC5A1" points="201,523.0547,191,527.0547,201,531.0547,197,527.0547" style="stroke:#FFC5A1;stroke-width:1.0;"/><text fill="#000000" font-family="sans-serif" font-size="13" font-weight="bold" lengthAdjust="spacing" textLength="7" x="197" y="509.1982">6</text><text fill="#000000" font-family="sans-serif" font-size="13" lengthAdjust="spacing" textLength="175" x="208" y="509.1982">mergeSort( array[], from, mid);</text><line style="stroke:#FFC5A1;stroke-width:1.0;" x1="190" x2="232" y1="557.4063" y2="557.4063"/><line style="stroke:#FFC5A1;stroke-width:1.0;" x1="232" x2="232" y1="557.4063" y2="570.4063"/><line style="stroke:#FFC5A1;stroke-width:1.0;" x1="191" x2="232" y1="570.4063" y2="570.4063"/><polygon fill="#FFC5A1" points="201,566.4063,191,570.4063,201,574.4063,197,570.4063" style="stroke:#FFC5A1;stroke-width:1.0;"/><text fill="#000000" font-family="sans-serif" font-size="13" font-weight="bold" lengthAdjust="spacing" textLength="7" x="197" y="552.5498">7</text><text fill="#000000" font-family="sans-serif" font-size="13" lengthAdjust="spacing" textLength="184" x="208" y="552.5498">mergeSort( array[], mid + 1, to);</text><line style="stroke:#FFC5A1;stroke-width:1.0;" x1="190" x2="232" y1="600.7578" y2="600.7578"/><line style="stroke:#FFC5A1;stroke-width:1.0;" x1="232" x2="232" y1="600.7578" y2="613.7578"/><line style="stroke:#FFC5A1;stroke-width:1.0;" x1="191" x2="232" y1="613.7578" y2="613.7578"/><polygon fill="#FFC5A1" points="201,609.7578,191,613.7578,201,617.7578,197,613.7578" style="stroke:#FFC5A1;stroke-width:1.0;"/><text fill="#000000" font-family="sans-serif" font-size="13" font-weight="bold" lengthAdjust="spacing" textLength="7" x="197" y="595.9014">8</text><text fill="#000000" font-family="sans-serif" font-size="13" lengthAdjust="spacing" textLength="170" x="208" y="595.9014">merge( array[], from, mid, to);</text><text fill="#888888" font-family="sans-serif" font-size="10" lengthAdjust="spacing" textLength="0" x="407.5" y="15.3809"/><text fill="#888888" font-family="sans-serif" font-size="10" lengthAdjust="spacing" textLength="0" x="407.5" y="27.959"/><text fill="#000000" font-family="sans-serif" font-size="15" font-weight="bold" lengthAdjust="spacing" textLength="126" x="343" y="45.7275">Built by WeByte ©</text><!--MD5=[e30ad48de4fd4ed947d00d3128720b86]
@startuml
 ' ======= layout =========
 skinparam backgroundColor #fcf9ea
 skinparam titleBorderRoundCorner 15
 skinparam titleFontSize 30
 skinparam classAttributeIconSize 0
 skinparam titleFontName Arial Black
 skinparam titleFontColor #f8a978
 skinparam roundcorner 20
 skinparam stCBackgroundColor ffc5a1



 skinparam class {

 ArrowColor ffc5a1
 BorderColor White
 BackgroundColor badfdb
 }

 ' ======= title =========
 center header


 <font color=Black size=15><b>Built by WeByte ©</font>
 endheader
 title <b>SEQUENCE DIAGRAM\n
 autonumber
 'hide footbox
 participant  " :MergeSort" as MergeSort

[o->MergeSort: array= sort(String[]array)
note left:  String[]array contains name and tin of client or it contais the other way around, ordering from the first
activate MergeSort
opt order by tin or name
MergeSort->MergeSort: from = 0
MergeSort->MergeSort: to = array[].length-1
MergeSort->MergeSort: mid = (from+to)/2
MergeSort->MergeSort: merge(array[], from, mid,to)
activate MergeSort
deactivate MergeSort
opt from!=to
MergeSort->MergeSort: mergeSort( array[], from, mid);
MergeSort->MergeSort: mergeSort( array[], mid + 1, to);
MergeSort->MergeSort: merge( array[], from, mid, to);
end
end



@enduml

@startuml
 skinparam backgroundColor #fcf9ea
 skinparam titleBorderRoundCorner 15
 skinparam titleFontSize 30
 skinparam classAttributeIconSize 0
 skinparam titleFontName Arial Black
 skinparam titleFontColor #f8a978
 skinparam roundcorner 20
 skinparam stCBackgroundColor ffc5a1



 skinparam class {

 ArrowColor ffc5a1
 BorderColor White
 BackgroundColor badfdb
 }

 center header


 <font color=Black size=15><b>Built by WeByte ©</font>
 endheader
 title <b>SEQUENCE DIAGRAM\n
 autonumber
 participant  " :MergeSort" as MergeSort

[o->MergeSort: array= sort(String[]array)
note left:  String[]array contains name and tin of client or it contais the other way around, ordering from the first
activate MergeSort
opt order by tin or name
MergeSort->MergeSort: from = 0
MergeSort->MergeSort: to = array[].length-1
MergeSort->MergeSort: mid = (from+to)/2
MergeSort->MergeSort: merge(array[], from, mid,to)
activate MergeSort
deactivate MergeSort
opt from!=to
MergeSort->MergeSort: mergeSort( array[], from, mid);
MergeSort->MergeSort: mergeSort( array[], mid + 1, to);
MergeSort->MergeSort: merge( array[], from, mid, to);
end
end



@enduml

PlantUML version 1.2021.4(Sun Apr 04 09:49:39 BST 2021)
(GPL source distribution)
Java Runtime: OpenJDK Runtime Environment
JVM: OpenJDK 64-Bit Server VM
Default Encoding: Cp1252
Language: pt
Country: PT
--></g></svg>