<?xml version="1.0" encoding="UTF-8" standalone="no"?><svg xmlns="http://www.w3.org/2000/svg" xmlns:xlink="http://www.w3.org/1999/xlink" contentScriptType="application/ecmascript" contentStyleType="text/css" height="1178px" preserveAspectRatio="none" style="width:496px;height:1178px;background:#FCF9EA;" version="1.1" viewBox="0 0 496 1178" width="496px" zoomAndPan="magnify"><defs><filter height="300%" id="f191y69mg64uet" width="300%" x="-1" y="-1"><feGaussianBlur result="blurOut" stdDeviation="2.0"/><feColorMatrix in="blurOut" result="blurOut2" type="matrix" values="0 0 0 0 0 0 0 0 0 0 0 0 0 0 0 0 0 0 .4 0"/><feOffset dx="4.0" dy="4.0" in="blurOut2" result="blurOut3"/><feBlend in="SourceGraphic" in2="blurOut3" mode="normal"/></filter></defs><g><text fill="#888888" font-family="sans-serif" font-size="10" lengthAdjust="spacing" textLength="0" x="243" y="10.3809"/><text fill="#888888" font-family="sans-serif" font-size="10" lengthAdjust="spacing" textLength="0" x="243" y="22.959"/><text fill="#000000" font-family="sans-serif" font-size="15" font-weight="bold" lengthAdjust="spacing" textLength="126" x="178.5" y="40.7275">Built by WeByte ©</text><text fill="#F8A978" font-family="Arial Black" font-size="30" font-weight="bold" lengthAdjust="spacing" textLength="351" x="66" y="77.041">US7 - Class Diagram</text><text fill="#F8A978" font-family="Arial Black" font-size="30" lengthAdjust="spacing" textLength="0" x="246.5" y="119.3457"/><!--MD5=[6a4e699b59c2ecf8286aba2faa72e4bd]
class RegisterEmployeeController--><rect codeLine="27" fill="#BADFDB" filter="url(#f191y69mg64uet)" height="89.5078" id="RegisterEmployeeController" rx="10" ry="10" style="stroke:#FFFFFF;stroke-width:1.5;" width="344" x="83" y="244.6328"/><ellipse cx="172.75" cy="260.6328" fill="#FFC5A1" rx="11" ry="11" style="stroke:#FFFFFF;stroke-width:1.0;"/><path d="M174.75,257.1328 Q174.9531,256.6328 175.1875,256.3828 Q175.4219,256.1328 175.6875,256.1328 Q176.1563,256.1328 176.4531,256.4141 Q176.75,256.6953 176.75,257.3516 L176.75,258.9141 Q176.75,259.5703 176.4688,259.8516 Q176.1875,260.1328 175.75,260.1328 Q175.3594,260.1328 175.1094,259.9609 Q174.8594,259.7891 174.75,259.3359 Q174.7031,259.0234 174.5313,258.8516 Q174.2188,258.5234 173.6563,258.3359 Q173.0938,258.1328 172.5313,258.1328 Q171.8281,258.1328 171.2344,258.4141 Q170.6563,258.6953 170.2031,259.3203 Q169.75,259.9453 169.75,260.8047 L169.75,261.7266 Q169.75,262.7578 170.5938,263.4453 Q171.4375,264.1328 172.9375,264.1328 Q173.8281,264.1328 174.4531,263.9297 Q174.8125,263.8203 175.2188,263.4609 Q175.4844,263.2578 175.625,263.1953 Q175.7656,263.1328 175.9375,263.1328 Q176.2656,263.1328 176.5,263.3984 Q176.75,263.6484 176.75,264.0078 Q176.75,264.3516 176.4063,264.7578 Q175.9063,265.3516 175.1094,265.6797 Q174.0625,266.1328 172.7813,266.1328 Q171.2813,266.1328 170.0781,265.5391 Q169.1094,265.0703 168.4219,264.0547 Q167.75,263.0391 167.75,261.8359 L167.75,260.7422 Q167.75,259.4922 168.3438,258.3984 Q168.9531,257.3047 170,256.7266 Q171.0625,256.1328 172.25,256.1328 Q172.9688,256.1328 173.5938,256.3828 Q174.2188,256.6328 174.75,257.1328 Z " fill="#000000"/><text fill="#000000" font-family="sans-serif" font-size="12" lengthAdjust="spacing" textLength="156" x="193.25" y="265.543">RegisterEmployeeController</text><line style="stroke:#FFFFFF;stroke-width:1.5;" x1="84" x2="426" y1="276.6328" y2="276.6328"/><line style="stroke:#FFFFFF;stroke-width:1.5;" x1="84" x2="426" y1="284.6328" y2="284.6328"/><text fill="#000000" font-family="sans-serif" font-size="11" lengthAdjust="spacing" textLength="332" x="89" y="300.0518">+createNewEmployee(employeeID, organizationRole, name, address,</text><text fill="#000000" font-family="sans-serif" font-size="11" lengthAdjust="spacing" textLength="248" x="92" y="313.8877">phoneNumber, e-Mail,socCode,doctorIndexNumber)</text><text fill="#000000" font-family="sans-serif" font-size="11" lengthAdjust="spacing" textLength="84" x="89" y="327.7236">+saveEmployee()</text><!--MD5=[a126dd63c8621c017159ae62771fbe54]
class RegisterEmployeeUI--><rect codeLine="31" fill="#BADFDB" filter="url(#f191y69mg64uet)" height="48" id="RegisterEmployeeUI" rx="10" ry="10" style="stroke:#FFFFFF;stroke-width:1.5;" width="146" x="182" y="135.6328"/><ellipse cx="197" cy="151.6328" fill="#FFC5A1" rx="11" ry="11" style="stroke:#FFFFFF;stroke-width:1.0;"/><path d="M199,148.1328 Q199.2031,147.6328 199.4375,147.3828 Q199.6719,147.1328 199.9375,147.1328 Q200.4063,147.1328 200.7031,147.4141 Q201,147.6953 201,148.3516 L201,149.9141 Q201,150.5703 200.7188,150.8516 Q200.4375,151.1328 200,151.1328 Q199.6094,151.1328 199.3594,150.9609 Q199.1094,150.7891 199,150.3359 Q198.9531,150.0234 198.7813,149.8516 Q198.4688,149.5234 197.9063,149.3359 Q197.3438,149.1328 196.7813,149.1328 Q196.0781,149.1328 195.4844,149.4141 Q194.9063,149.6953 194.4531,150.3203 Q194,150.9453 194,151.8047 L194,152.7266 Q194,153.7578 194.8438,154.4453 Q195.6875,155.1328 197.1875,155.1328 Q198.0781,155.1328 198.7031,154.9297 Q199.0625,154.8203 199.4688,154.4609 Q199.7344,154.2578 199.875,154.1953 Q200.0156,154.1328 200.1875,154.1328 Q200.5156,154.1328 200.75,154.3984 Q201,154.6484 201,155.0078 Q201,155.3516 200.6563,155.7578 Q200.1563,156.3516 199.3594,156.6797 Q198.3125,157.1328 197.0313,157.1328 Q195.5313,157.1328 194.3281,156.5391 Q193.3594,156.0703 192.6719,155.0547 Q192,154.0391 192,152.8359 L192,151.7422 Q192,150.4922 192.5938,149.3984 Q193.2031,148.3047 194.25,147.7266 Q195.3125,147.1328 196.5,147.1328 Q197.2188,147.1328 197.8438,147.3828 Q198.4688,147.6328 199,148.1328 Z " fill="#000000"/><text fill="#000000" font-family="sans-serif" font-size="12" lengthAdjust="spacing" textLength="114" x="211" y="156.543">RegisterEmployeeUI</text><line style="stroke:#FFFFFF;stroke-width:1.5;" x1="183" x2="327" y1="167.6328" y2="167.6328"/><line style="stroke:#FFFFFF;stroke-width:1.5;" x1="183" x2="327" y1="175.6328" y2="175.6328"/><!--MD5=[aca3c536c007fb05376992ab6634e449]
class OrganizationRoleStore--><rect codeLine="33" fill="#BADFDB" filter="url(#f191y69mg64uet)" height="61.8359" id="OrganizationRoleStore" rx="10" ry="10" style="stroke:#FFFFFF;stroke-width:1.5;" width="156" x="7" y="402.6328"/><ellipse cx="22" cy="418.6328" fill="#FFC5A1" rx="11" ry="11" style="stroke:#FFFFFF;stroke-width:1.0;"/><path d="M24,415.1328 Q24.2031,414.6328 24.4375,414.3828 Q24.6719,414.1328 24.9375,414.1328 Q25.4063,414.1328 25.7031,414.4141 Q26,414.6953 26,415.3516 L26,416.9141 Q26,417.5703 25.7188,417.8516 Q25.4375,418.1328 25,418.1328 Q24.6094,418.1328 24.3594,417.9609 Q24.1094,417.7891 24,417.3359 Q23.9531,417.0234 23.7813,416.8516 Q23.4688,416.5234 22.9063,416.3359 Q22.3438,416.1328 21.7813,416.1328 Q21.0781,416.1328 20.4844,416.4141 Q19.9063,416.6953 19.4531,417.3203 Q19,417.9453 19,418.8047 L19,419.7266 Q19,420.7578 19.8438,421.4453 Q20.6875,422.1328 22.1875,422.1328 Q23.0781,422.1328 23.7031,421.9297 Q24.0625,421.8203 24.4688,421.4609 Q24.7344,421.2578 24.875,421.1953 Q25.0156,421.1328 25.1875,421.1328 Q25.5156,421.1328 25.75,421.3984 Q26,421.6484 26,422.0078 Q26,422.3516 25.6563,422.7578 Q25.1563,423.3516 24.3594,423.6797 Q23.3125,424.1328 22.0313,424.1328 Q20.5313,424.1328 19.3281,423.5391 Q18.3594,423.0703 17.6719,422.0547 Q17,421.0391 17,419.8359 L17,418.7422 Q17,417.4922 17.5938,416.3984 Q18.2031,415.3047 19.25,414.7266 Q20.3125,414.1328 21.5,414.1328 Q22.2188,414.1328 22.8438,414.3828 Q23.4688,414.6328 24,415.1328 Z " fill="#000000"/><text fill="#000000" font-family="sans-serif" font-size="12" lengthAdjust="spacing" textLength="124" x="36" y="423.543">OrganizationRoleStore</text><line style="stroke:#FFFFFF;stroke-width:1.5;" x1="8" x2="162" y1="434.6328" y2="434.6328"/><line style="stroke:#FFFFFF;stroke-width:1.5;" x1="8" x2="162" y1="442.6328" y2="442.6328"/><text fill="#000000" font-family="sans-serif" font-size="11" lengthAdjust="spacing" textLength="56" x="13" y="458.0518">+getRoles()</text><!--MD5=[02e4b9b7573f1156f41e60aa5b4e25a4]
class Company--><rect codeLine="36" fill="#BADFDB" filter="url(#f191y69mg64uet)" height="75.6719" id="Company" rx="10" ry="10" style="stroke:#FFFFFF;stroke-width:1.5;" width="113" x="198.5" y="395.6328"/><ellipse cx="226.1" cy="411.6328" fill="#FFC5A1" rx="11" ry="11" style="stroke:#FFFFFF;stroke-width:1.0;"/><path d="M228.1,408.1328 Q228.3031,407.6328 228.5375,407.3828 Q228.7719,407.1328 229.0375,407.1328 Q229.5063,407.1328 229.8031,407.4141 Q230.1,407.6953 230.1,408.3516 L230.1,409.9141 Q230.1,410.5703 229.8188,410.8516 Q229.5375,411.1328 229.1,411.1328 Q228.7094,411.1328 228.4594,410.9609 Q228.2094,410.7891 228.1,410.3359 Q228.0531,410.0234 227.8813,409.8516 Q227.5688,409.5234 227.0063,409.3359 Q226.4438,409.1328 225.8813,409.1328 Q225.1781,409.1328 224.5844,409.4141 Q224.0063,409.6953 223.5531,410.3203 Q223.1,410.9453 223.1,411.8047 L223.1,412.7266 Q223.1,413.7578 223.9438,414.4453 Q224.7875,415.1328 226.2875,415.1328 Q227.1781,415.1328 227.8031,414.9297 Q228.1625,414.8203 228.5688,414.4609 Q228.8344,414.2578 228.975,414.1953 Q229.1156,414.1328 229.2875,414.1328 Q229.6156,414.1328 229.85,414.3984 Q230.1,414.6484 230.1,415.0078 Q230.1,415.3516 229.7563,415.7578 Q229.2563,416.3516 228.4594,416.6797 Q227.4125,417.1328 226.1313,417.1328 Q224.6313,417.1328 223.4281,416.5391 Q222.4594,416.0703 221.7719,415.0547 Q221.1,414.0391 221.1,412.8359 L221.1,411.7422 Q221.1,410.4922 221.6938,409.3984 Q222.3031,408.3047 223.35,407.7266 Q224.4125,407.1328 225.6,407.1328 Q226.3188,407.1328 226.9438,407.3828 Q227.5688,407.6328 228.1,408.1328 Z " fill="#000000"/><text fill="#000000" font-family="sans-serif" font-size="12" lengthAdjust="spacing" textLength="53" x="242.9" y="416.543">Company</text><line style="stroke:#FFFFFF;stroke-width:1.5;" x1="199.5" x2="310.5" y1="427.6328" y2="427.6328"/><text fill="#000000" font-family="sans-serif" font-size="11" lengthAdjust="spacing" textLength="59" x="204.5" y="443.0518">-designation</text><line style="stroke:#FFFFFF;stroke-width:1.5;" x1="199.5" x2="310.5" y1="449.4688" y2="449.4688"/><text fill="#000000" font-family="sans-serif" font-size="11" lengthAdjust="spacing" textLength="101" x="204.5" y="464.8877">+getEmployeeStore()</text><!--MD5=[7977c3de09c611e5d3806e1766ad1be5]
class RegisterStore--><rect codeLine="40" fill="#BADFDB" filter="url(#f191y69mg64uet)" height="117.1797" id="RegisterStore" rx="10" ry="10" style="stroke:#FFFFFF;stroke-width:1.5;" width="344" x="138" y="549.6328"/><ellipse cx="267.75" cy="565.6328" fill="#FFC5A1" rx="11" ry="11" style="stroke:#FFFFFF;stroke-width:1.0;"/><path d="M269.75,562.1328 Q269.9531,561.6328 270.1875,561.3828 Q270.4219,561.1328 270.6875,561.1328 Q271.1563,561.1328 271.4531,561.4141 Q271.75,561.6953 271.75,562.3516 L271.75,563.9141 Q271.75,564.5703 271.4688,564.8516 Q271.1875,565.1328 270.75,565.1328 Q270.3594,565.1328 270.1094,564.9609 Q269.8594,564.7891 269.75,564.3359 Q269.7031,564.0234 269.5313,563.8516 Q269.2188,563.5234 268.6563,563.3359 Q268.0938,563.1328 267.5313,563.1328 Q266.8281,563.1328 266.2344,563.4141 Q265.6563,563.6953 265.2031,564.3203 Q264.75,564.9453 264.75,565.8047 L264.75,566.7266 Q264.75,567.7578 265.5938,568.4453 Q266.4375,569.1328 267.9375,569.1328 Q268.8281,569.1328 269.4531,568.9297 Q269.8125,568.8203 270.2188,568.4609 Q270.4844,568.2578 270.625,568.1953 Q270.7656,568.1328 270.9375,568.1328 Q271.2656,568.1328 271.5,568.3984 Q271.75,568.6484 271.75,569.0078 Q271.75,569.3516 271.4063,569.7578 Q270.9063,570.3516 270.1094,570.6797 Q269.0625,571.1328 267.7813,571.1328 Q266.2813,571.1328 265.0781,570.5391 Q264.1094,570.0703 263.4219,569.0547 Q262.75,568.0391 262.75,566.8359 L262.75,565.7422 Q262.75,564.4922 263.3438,563.3984 Q263.9531,562.3047 265,561.7266 Q266.0625,561.1328 267.25,561.1328 Q267.9688,561.1328 268.5938,561.3828 Q269.2188,561.6328 269.75,562.1328 Z " fill="#000000"/><text fill="#000000" font-family="sans-serif" font-size="12" lengthAdjust="spacing" textLength="76" x="288.25" y="570.543">RegisterStore</text><line style="stroke:#FFFFFF;stroke-width:1.5;" x1="139" x2="481" y1="581.6328" y2="581.6328"/><line style="stroke:#FFFFFF;stroke-width:1.5;" x1="139" x2="481" y1="589.6328" y2="589.6328"/><text fill="#000000" font-family="sans-serif" font-size="11" lengthAdjust="spacing" textLength="332" x="144" y="605.0518">+createNewEmployee(employeeID, organizationRole, name, address,</text><text fill="#000000" font-family="sans-serif" font-size="11" lengthAdjust="spacing" textLength="248" x="147" y="618.8877">phoneNumber, e-Mail,socCode,doctorIndexNumber)</text><text fill="#000000" font-family="sans-serif" font-size="11" lengthAdjust="spacing" textLength="117" x="144" y="632.7236">+validateEmployee(Emp)</text><text fill="#000000" font-family="sans-serif" font-size="11" lengthAdjust="spacing" textLength="104" x="144" y="646.5596">+saveEmployee(Emp)</text><text fill="#000000" font-family="sans-serif" font-size="11" lengthAdjust="spacing" textLength="98" x="144" y="660.3955">+addEmployee(Emp)</text><!--MD5=[7421f545a0d8420c5bec41e74b387d9c]
class Employee--><rect codeLine="46" fill="#BADFDB" filter="url(#f191y69mg64uet)" height="172.5234" id="Employee" rx="10" ry="10" style="stroke:#FFFFFF;stroke-width:1.5;" width="290" x="165" y="744.6328"/><ellipse cx="278.25" cy="760.6328" fill="#FFC5A1" rx="11" ry="11" style="stroke:#FFFFFF;stroke-width:1.0;"/><path d="M280.25,757.1328 Q280.4531,756.6328 280.6875,756.3828 Q280.9219,756.1328 281.1875,756.1328 Q281.6563,756.1328 281.9531,756.4141 Q282.25,756.6953 282.25,757.3516 L282.25,758.9141 Q282.25,759.5703 281.9688,759.8516 Q281.6875,760.1328 281.25,760.1328 Q280.8594,760.1328 280.6094,759.9609 Q280.3594,759.7891 280.25,759.3359 Q280.2031,759.0234 280.0313,758.8516 Q279.7188,758.5234 279.1563,758.3359 Q278.5938,758.1328 278.0313,758.1328 Q277.3281,758.1328 276.7344,758.4141 Q276.1563,758.6953 275.7031,759.3203 Q275.25,759.9453 275.25,760.8047 L275.25,761.7266 Q275.25,762.7578 276.0938,763.4453 Q276.9375,764.1328 278.4375,764.1328 Q279.3281,764.1328 279.9531,763.9297 Q280.3125,763.8203 280.7188,763.4609 Q280.9844,763.2578 281.125,763.1953 Q281.2656,763.1328 281.4375,763.1328 Q281.7656,763.1328 282,763.3984 Q282.25,763.6484 282.25,764.0078 Q282.25,764.3516 281.9063,764.7578 Q281.4063,765.3516 280.6094,765.6797 Q279.5625,766.1328 278.2813,766.1328 Q276.7813,766.1328 275.5781,765.5391 Q274.6094,765.0703 273.9219,764.0547 Q273.25,763.0391 273.25,761.8359 L273.25,760.7422 Q273.25,759.4922 273.8438,758.3984 Q274.4531,757.3047 275.5,756.7266 Q276.5625,756.1328 277.75,756.1328 Q278.4688,756.1328 279.0938,756.3828 Q279.7188,756.6328 280.25,757.1328 Z " fill="#000000"/><text fill="#000000" font-family="sans-serif" font-size="12" lengthAdjust="spacing" textLength="55" x="298.75" y="765.543">Employee</text><line style="stroke:#FFFFFF;stroke-width:1.5;" x1="166" x2="454" y1="776.6328" y2="776.6328"/><text fill="#000000" font-family="sans-serif" font-size="11" lengthAdjust="spacing" textLength="59" x="171" y="792.0518">-employeeID</text><text fill="#000000" font-family="sans-serif" font-size="11" lengthAdjust="spacing" textLength="84" x="171" y="805.8877">-organizationRole</text><text fill="#000000" font-family="sans-serif" font-size="11" lengthAdjust="spacing" textLength="30" x="171" y="819.7236">-name</text><text fill="#000000" font-family="sans-serif" font-size="11" lengthAdjust="spacing" textLength="44" x="171" y="833.5596">-address</text><text fill="#000000" font-family="sans-serif" font-size="11" lengthAdjust="spacing" textLength="71" x="171" y="847.3955">-phoneNumber</text><text fill="#000000" font-family="sans-serif" font-size="11" lengthAdjust="spacing" textLength="32" x="171" y="861.2314">-e-Mail</text><text fill="#000000" font-family="sans-serif" font-size="11" lengthAdjust="spacing" textLength="47" x="171" y="875.0674">-socCode</text><line style="stroke:#FFFFFF;stroke-width:1.5;" x1="166" x2="454" y1="881.4844" y2="881.4844"/><text fill="#000000" font-family="sans-serif" font-size="11" lengthAdjust="spacing" textLength="278" x="171" y="896.9033">+Employee(employeeID, organizationRole, name, address,</text><text fill="#000000" font-family="sans-serif" font-size="11" lengthAdjust="spacing" textLength="154" x="174" y="910.7393">phoneNumber, e-Mail,socCode,)</text><!--MD5=[7d96fd15f3014691d2fcaf89c5791e2a]
class SpecialistDoctor--><rect codeLine="56" fill="#BADFDB" filter="url(#f191y69mg64uet)" height="186.3594" id="SpecialistDoctor" rx="10" ry="10" style="stroke:#FFFFFF;stroke-width:1.5;" width="290" x="165" y="978.6328"/><ellipse cx="260.75" cy="994.6328" fill="#FFC5A1" rx="11" ry="11" style="stroke:#FFFFFF;stroke-width:1.0;"/><path d="M262.75,991.1328 Q262.9531,990.6328 263.1875,990.3828 Q263.4219,990.1328 263.6875,990.1328 Q264.1563,990.1328 264.4531,990.4141 Q264.75,990.6953 264.75,991.3516 L264.75,992.9141 Q264.75,993.5703 264.4688,993.8516 Q264.1875,994.1328 263.75,994.1328 Q263.3594,994.1328 263.1094,993.9609 Q262.8594,993.7891 262.75,993.3359 Q262.7031,993.0234 262.5313,992.8516 Q262.2188,992.5234 261.6563,992.3359 Q261.0938,992.1328 260.5313,992.1328 Q259.8281,992.1328 259.2344,992.4141 Q258.6563,992.6953 258.2031,993.3203 Q257.75,993.9453 257.75,994.8047 L257.75,995.7266 Q257.75,996.7578 258.5938,997.4453 Q259.4375,998.1328 260.9375,998.1328 Q261.8281,998.1328 262.4531,997.9297 Q262.8125,997.8203 263.2188,997.4609 Q263.4844,997.2578 263.625,997.1953 Q263.7656,997.1328 263.9375,997.1328 Q264.2656,997.1328 264.5,997.3984 Q264.75,997.6484 264.75,998.0078 Q264.75,998.3516 264.4063,998.7578 Q263.9063,999.3516 263.1094,999.6797 Q262.0625,1000.1328 260.7813,1000.1328 Q259.2813,1000.1328 258.0781,999.5391 Q257.1094,999.0703 256.4219,998.0547 Q255.75,997.0391 255.75,995.8359 L255.75,994.7422 Q255.75,993.4922 256.3438,992.3984 Q256.9531,991.3047 258,990.7266 Q259.0625,990.1328 260.25,990.1328 Q260.9688,990.1328 261.5938,990.3828 Q262.2188,990.6328 262.75,991.1328 Z " fill="#000000"/><text fill="#000000" font-family="sans-serif" font-size="12" lengthAdjust="spacing" textLength="90" x="281.25" y="999.543">SpecialistDoctor</text><line style="stroke:#FFFFFF;stroke-width:1.5;" x1="166" x2="454" y1="1010.6328" y2="1010.6328"/><text fill="#000000" font-family="sans-serif" font-size="11" lengthAdjust="spacing" textLength="59" x="171" y="1026.0518">-employeeID</text><text fill="#000000" font-family="sans-serif" font-size="11" lengthAdjust="spacing" textLength="84" x="171" y="1039.8877">-organizationRole</text><text fill="#000000" font-family="sans-serif" font-size="11" lengthAdjust="spacing" textLength="30" x="171" y="1053.7236">-name</text><text fill="#000000" font-family="sans-serif" font-size="11" lengthAdjust="spacing" textLength="44" x="171" y="1067.5596">-address</text><text fill="#000000" font-family="sans-serif" font-size="11" lengthAdjust="spacing" textLength="71" x="171" y="1081.3955">-phoneNumber</text><text fill="#000000" font-family="sans-serif" font-size="11" lengthAdjust="spacing" textLength="32" x="171" y="1095.2314">-e-Mail</text><text fill="#000000" font-family="sans-serif" font-size="11" lengthAdjust="spacing" textLength="47" x="171" y="1109.0674">-socCode</text><text fill="#000000" font-family="sans-serif" font-size="11" lengthAdjust="spacing" textLength="98" x="171" y="1122.9033">-doctorIndexNumber</text><line style="stroke:#FFFFFF;stroke-width:1.5;" x1="166" x2="454" y1="1129.3203" y2="1129.3203"/><text fill="#000000" font-family="sans-serif" font-size="11" lengthAdjust="spacing" textLength="278" x="171" y="1144.7393">+Employee(employeeID, organizationRole, name, address,</text><text fill="#000000" font-family="sans-serif" font-size="11" lengthAdjust="spacing" textLength="248" x="174" y="1158.5752">phoneNumber, e-Mail,socCode,doctorIndexNumber)</text><!--MD5=[e172606b49344ddc811140d97100c6ee]
link Company to RegisterStore--><path codeLine="67" d="M266.8,471.6428 C273.58,492.8928 282.26,520.1428 290.07,544.6328 " fill="none" id="Company-to-RegisterStore" style="stroke:#FFC5A1;stroke-width:1.0;"/><polygon fill="#FFC5A1" points="291.62,549.4828,292.7101,539.6945,290.1075,544.7171,285.0849,542.1144,291.62,549.4828" style="stroke:#FFC5A1;stroke-width:1.0;"/><text fill="#000000" font-family="sans-serif" font-size="13" lengthAdjust="spacing" textLength="28" x="282" y="516.1279">uses</text><text fill="#000000" font-family="sans-serif" font-size="13" lengthAdjust="spacing" textLength="7" x="261.1747" y="492.8146">1</text><text fill="#000000" font-family="sans-serif" font-size="13" lengthAdjust="spacing" textLength="7" x="281.9534" y="538.8654">1</text><!--MD5=[1ce9bd20c53d5af93bbf11bd231478a5]
link RegisterStore to Employee--><path codeLine="68" d="M310,666.9128 C310,689.0028 310,714.7628 310,739.2028 " fill="none" id="RegisterStore-to-Employee" style="stroke:#FFC5A1;stroke-width:1.0;"/><polygon fill="#FFC5A1" points="310,744.3928,314,735.3928,310,739.3928,306,735.3928,310,744.3928" style="stroke:#FFC5A1;stroke-width:1.0;"/><text fill="#000000" font-family="sans-serif" font-size="13" lengthAdjust="spacing" textLength="36" x="311" y="711.1279">create</text><text fill="#000000" font-family="sans-serif" font-size="13" lengthAdjust="spacing" textLength="7" x="302.5953" y="688.1393">1</text><text fill="#000000" font-family="sans-serif" font-size="13" lengthAdjust="spacing" textLength="5" x="304.7852" y="733.7818">*</text><!--MD5=[3fd241ca11f270f6bde54c00b8a8581a]
link RegisterEmployeeUI to RegisterEmployeeController--><path codeLine="69" d="M255,183.8128 C255,199.2228 255,220.0528 255,239.0828 " fill="none" id="RegisterEmployeeUI-to-RegisterEmployeeController" style="stroke:#FFC5A1;stroke-width:1.0;stroke-dasharray:7.0,7.0;"/><polygon fill="#FFC5A1" points="255,244.3928,259,235.3928,255,239.3928,251,235.3928,255,244.3928" style="stroke:#FFC5A1;stroke-width:1.0;"/><!--MD5=[969ee03aa52aee79b0e607297418cbd4]
link RegisterEmployeeController to Company--><path codeLine="70" d="M255,334.7828 C255,352.3428 255,372.4728 255,389.8928 " fill="none" id="RegisterEmployeeController-to-Company" style="stroke:#FFC5A1;stroke-width:1.0;stroke-dasharray:7.0,7.0;"/><polygon fill="#FFC5A1" points="255,395.2028,259,386.2028,255,390.2028,251,386.2028,255,395.2028" style="stroke:#FFC5A1;stroke-width:1.0;"/><!--MD5=[15cee3433b0a3ff2dea58cbc07b398d3]
link RegisterEmployeeController to OrganizationRoleStore--><path codeLine="71" d="M202.14,334.7828 C177.27,355.5628 148.08,379.9428 125.06,399.1628 " fill="none" id="RegisterEmployeeController-to-OrganizationRoleStore" style="stroke:#FFC5A1;stroke-width:1.0;stroke-dasharray:7.0,7.0;"/><polygon fill="#FFC5A1" points="121.13,402.4528,130.6057,399.7675,124.9723,399.2533,125.4865,393.6199,121.13,402.4528" style="stroke:#FFC5A1;stroke-width:1.0;"/><!--MD5=[caf2618abcb76ebc8682c9e5e95b55fc]
link RegisterEmployeeController to RegisterStore--><path codeLine="72" d="M295.26,334.8528 C308.72,352.4628 322.06,373.7328 329,395.6328 C344.34,444.0228 337.68,501.5428 328.25,544.3728 " fill="none" id="RegisterEmployeeController-to-RegisterStore" style="stroke:#FFC5A1;stroke-width:1.0;stroke-dasharray:7.0,7.0;"/><polygon fill="#FFC5A1" points="327.15,549.2628,333.0291,541.3612,328.2482,544.3849,325.2245,539.604,327.15,549.2628" style="stroke:#FFC5A1;stroke-width:1.0;"/><!--MD5=[dad08633360fb9f059c0c4df7f2e8d04]
link Employee to SpecialistDoctor--><path codeLine="73" d="M310,917.9028 C310,935.8428 310,954.8928 310,973.2228 " fill="none" id="Employee-to-SpecialistDoctor" style="stroke:#FFC5A1;stroke-width:1.0;stroke-dasharray:7.0,7.0;"/><polygon fill="#FFC5A1" points="310,978.3728,314,969.3728,310,973.3728,306,969.3728,310,978.3728" style="stroke:#FFC5A1;stroke-width:1.0;"/><!--MD5=[3dc851f9b4a11c98e0293799f8af8630]
@startuml
' ======= layout =========
skinparam backgroundColor #fcf9ea
skinparam titleBorderRoundCorner 15
skinparam titleFontSize 30
skinparam classAttributeIconSize 0
skinparam titleFontName Arial Black
skinparam titleFontColor #f8a978
skinparam roundcorner 20
skinparam stereotypeCBackgroundColor ffc5a1
skinparam class {

ArrowColor ffc5a1
BorderColor White
BackgroundColor badfdb
}


' ======= title =========
center header


<font color=Black size=15><b>Built by WeByte ©</font>
endheader
title <b>US7 - Class Diagram\n

' ======= classes =========
class RegisterEmployeeController{
+createNewEmployee(employeeID, organizationRole, name, address,\n phoneNumber, e-Mail,socCode,doctorIndexNumber)
+saveEmployee()
}
class RegisterEmployeeUI{
}
class OrganizationRoleStore{
+getRoles()
}
class Company{
 - designation
 + getEmployeeStore()
}
class RegisterStore{
 +createNewEmployee(employeeID, organizationRole, name, address,\n phoneNumber, e-Mail,socCode,doctorIndexNumber)
 +validateEmployee(Emp)
 +saveEmployee(Emp)
 +addEmployee(Emp)
}
class Employee{
-employeeID
-organizationRole
-name
-address
-phoneNumber
-e-Mail
-socCode
 + Employee(employeeID, organizationRole, name, address,\n phoneNumber, e-Mail,socCode,)
}
class SpecialistDoctor{
-employeeID
-organizationRole
-name
-address
-phoneNumber
-e-Mail
-socCode
-doctorIndexNumber
 + Employee(employeeID, organizationRole, name, address,\n phoneNumber, e-Mail,socCode,doctorIndexNumber)
}
Company "1" - -> "1" RegisterStore : uses
RegisterStore "1" - ->"*" Employee: create
RegisterEmployeeUI ..> RegisterEmployeeController
RegisterEmployeeController ..> Company
RegisterEmployeeController ..> OrganizationRoleStore
RegisterEmployeeController ..> RegisterStore
Employee ..> SpecialistDoctor
@enduml

@startuml
skinparam backgroundColor #fcf9ea
skinparam titleBorderRoundCorner 15
skinparam titleFontSize 30
skinparam classAttributeIconSize 0
skinparam titleFontName Arial Black
skinparam titleFontColor #f8a978
skinparam roundcorner 20
skinparam stereotypeCBackgroundColor ffc5a1
skinparam class {

ArrowColor ffc5a1
BorderColor White
BackgroundColor badfdb
}


center header


<font color=Black size=15><b>Built by WeByte ©</font>
endheader
title <b>US7 - Class Diagram\n

class RegisterEmployeeController{
+createNewEmployee(employeeID, organizationRole, name, address,\n phoneNumber, e-Mail,socCode,doctorIndexNumber)
+saveEmployee()
}
class RegisterEmployeeUI{
}
class OrganizationRoleStore{
+getRoles()
}
class Company{
 - designation
 + getEmployeeStore()
}
class RegisterStore{
 +createNewEmployee(employeeID, organizationRole, name, address,\n phoneNumber, e-Mail,socCode,doctorIndexNumber)
 +validateEmployee(Emp)
 +saveEmployee(Emp)
 +addEmployee(Emp)
}
class Employee{
-employeeID
-organizationRole
-name
-address
-phoneNumber
-e-Mail
-socCode
 + Employee(employeeID, organizationRole, name, address,\n phoneNumber, e-Mail,socCode,)
}
class SpecialistDoctor{
-employeeID
-organizationRole
-name
-address
-phoneNumber
-e-Mail
-socCode
-doctorIndexNumber
 + Employee(employeeID, organizationRole, name, address,\n phoneNumber, e-Mail,socCode,doctorIndexNumber)
}
Company "1" - -> "1" RegisterStore : uses
RegisterStore "1" - ->"*" Employee: create
RegisterEmployeeUI ..> RegisterEmployeeController
RegisterEmployeeController ..> Company
RegisterEmployeeController ..> OrganizationRoleStore
RegisterEmployeeController ..> RegisterStore
Employee ..> SpecialistDoctor
@enduml

PlantUML version 1.2021.4(Sun Apr 04 09:49:39 BST 2021)
(GPL source distribution)
Java Runtime: OpenJDK Runtime Environment
JVM: OpenJDK 64-Bit Server VM
Default Encoding: Cp1252
Language: pt
Country: PT
--></g></svg>